<svg xmlns="http://www.w3.org/2000/svg" viewBox="0 0 297.66 309.87"><defs><style>.cls-1{fill:#fff;}</style></defs><g id="圖層_2" data-name="圖層 2"><g id="圖層_1-2" data-name="圖層 1"><path d="M213.26,38.76a5.16,5.16,0,0,1-1.51.65c-2,.06-4,0-6,0,.54,2.13.41,4.93,1.75,6.28,6.5,6.58,13.11,13.11,20.19,19.05,17.36,14.57,26,33.16,27.23,55.58a42,42,0,0,1-3.8,20.87c-1.62,3.36-.28,5.36,2.19,7.73,6.1,5.86,5.11,15.82-1.87,22.62-6,5.82-16.48,6.81-20.41.56-4-6.42-7.93-5.6-13.83-4-10.64,2.86-20.94.33-31.3-3.08-8.76-2.89-18-4.4-27.15-6-4.73-.81-8.73,1.67-11.82,5.29-2.2,2.57-3.84,5.05-.22,8,2.15,1.76,1.79,4-.16,6.09-4,4.24-4.23,10.5.11,14.44,8.6,7.82,17.55,15.27,26.5,22.69,6.67,5.52,13.61,10.7,20.35,16.14,3.05,2.46,6.09,3.45,10.13,2.46,7.31-1.79,8.82.18,11.19,7.18,1.28,3.78,5.4,6.74,8.6,9.68,2.07,1.9,4.78,3.1,7.56,4.83,1.78-4.79.36-8-2.26-10.74-4.82-5.07-9.89-9.89-14.63-15-6.56-7.09-7.57-13.72-3.54-20.91,3.45-6.16,13.4-11,20.6-9.6,4.72.91,9.25,2.82,14,3.71,4.17.79,8.63,1.67,12.7,1,7.46-1.28,10.53-7.61,7.93-14.67-.77-2.1-1.83-4.11-2.86-6.38,7.59,2.58,9.86,12.89,4.66,19.5-4.08,5.18-10.43,7.15-17,5.5s-13.21-3.53-19.93-4.57c-8.92-1.39-16.38,4.19-17.6,12.34-.78,5.19,2,9,5,12.56s6.67,7,9.83,10.61,7.11,2.8,11,1.62a33.39,33.39,0,0,1,3.75-1.31,6.92,6.92,0,0,1,2.55.56c-.42.75-.77,2.07-1.28,2.14-8.18,1.15-9.68,5.44-9.23,13.49.24,4.24-5.38,9-8.79,13.21-5,6.18-3.62,13.93,3.61,17.33.68.32,1.56.22,3.3.43-2.29-7.13-3.25-13.85,1.85-21.1,1.86,6.56-3.35,13.76,4,18.75.46-3.08.82-5.4,1.17-7.73l.85-.2,1.68,4.51,1,.07c.09-1.55.49-3.17.19-4.65-.51-2.6-2.25-5.18-2-7.65.3-3.56,1-7.88,3.18-10.28,2.71-2.93,7.22-2.82,11.21-.79,3,1.53,4.16,3.6,2.55,7.66-1.37-1.37-2.26-2.94-3.55-3.42-2.47-.93-5.8-2.43-7.6-1.48s-3.38,4.95-2.83,7c1.54,5.92,2.83,11.57.85,17.64-.2.63,2.1,2.94,3.31,3,4.8.27,9.63-.27,14.43-.08a79.93,79.93,0,0,1,11.19,1.48c4.05.75,8,1.78,12.05,2.68-1.16,11.18-8.92,16.43-19.08,13.12-4.27-1.4-8.68-2.37-13-3.53-.1.43-.21.86-.31,1.3l6.62,1.48c-.43.83-.57,1.32-.7,1.32-12.29-.08-24.59-.36-36.88-.28-20.13.13-40.62-1.78-60.29,1.36-21.11,3.38-42,2.75-63,3-11.57.12-23.15-2.16-34.76-2.65-10.62-.44-21.29,0-31.94.19-3.82,0-7.63.35-11.56-.23L33.05,305l-.13-.88H.25L0,303.49a8.45,8.45,0,0,1,2.71-1.11c15.12-.58,30.25-1.18,45.38-1.48,2.7,0,5.46,1.13,8.13,2s5,.56,6-2.48c3.55-10.22,12.08-15.15,21.18-18.87,4.14-1.69,6.25-4,7.18-8,.34-1.46.49-3,.87-4.41,1.94-7.4,1.1-10.49-4.68-14.42-.82-.56-3,.28-4.21,1-4.33,2.44-8.24,6.1-12.85,7.44-5,1.47-10.74,1.5-16.06,1-6.66-.59-13.22-2.32-20-3.6,0,.22-.14-.33,0-.37,7.52-3.83,13.17-10.91,22.58-11.6,7.75-.58,15.4-2.62,23.07-4.13,3-.59,4.48-2.29,4.26-5.66-1.05-15.81,5.82-28.2,16.78-39,4.61-4.52,8.6-9.69,12.7-14.71,3.45-4.21,6.34-8.58,3.36-14.53-.45-.89,1.36-3.09,2.39-4.49.89-1.22,2.83-2,3.13-3.27,1.56-6.68-5.24-22.22-11-26.2-2.31-1.61-4.15-1.63-6.23.21a21,21,0,0,1-4.08,2.86c-20.25,10.53-34,4.39-42.07-15.91-7.92-19.86-4-39.11,6.23-57,5.09-8.82,12-16.65,18.49-24.59s13.25-16.17,20.67-23.44C118.55,4.49,136.62-1,156.86.14c20.59,1.13,34.47,11.77,42.65,30.29,1.65,3.75,3.09,6.34,8,4.65C209.93,34.25,212.82,35.12,213.26,38.76Zm-60.77,76.07c-5.75,4.24-5.23,9.29-2.7,15.37,4.51,10.86,12.38,18.67,21.74,24.94,4.28,2.87,10,3.42,14.87,5.61,11.15,5.07,22.34,4.83,34.08,2.14,15.15-3.47,24.12-13.25,28.35-27.2,3.56-11.73,1.75-24-1.93-35.45-5.31-16.54-17-28.53-30.53-39.07-7.89-6.16-17.25-11.55-17.86-23.42a1.46,1.46,0,0,0-.16-.47c-10-26.95-26-34.52-50.33-33.67-20.52.71-37.7,10-50.73,26.19-4.47,5.55-8.55,11.42-13.12,16.88C73.46,59.46,65.35,73.5,61.46,89.9c-2.7,11.4-2.25,22.45,2.35,33.24,6.66,15.58,25.07,20.71,36.29,9.88a60.69,60.69,0,0,0,14.66-23.53,90.09,90.09,0,0,0,4.92-34.81,12.42,12.42,0,0,1,.81-3.34l1.67.09c.18,3.65.28,7.31.54,10.95,1.11,15.33-3.47,29.24-10.83,42.36-2.17,3.87-2.45,6.48,1.68,9.11,9.61,6.11,12.75,15.82,13.65,26.44.25,3,.61,5.2,4,5.67s7.19,3.25,10-1.8c3-5.38,8-8.27,14.21-9,2-.25,4.09-.65,6.08-1-.65-5.71-4.23-8.61-7.94-11.55-2-1.61-4.35-3.48-5.23-5.75-2.65-6.83-5.67-13.64-1.76-21.35C148.46,111.9,148.54,111.34,152.49,114.83ZM209,257.05a15.51,15.51,0,0,1,2.17-.18c2.92.16,6,.29,6.9-3.29s-2.27-4.55-4.49-6.25a8,8,0,0,1-2.55-4.58c-.82-4.37-3.8-7-7.69-5.33-4.34,1.87-7.25.33-10.43-2.16-10.89-8.49-22-16.7-32.74-25.35-7-5.61-13.59-11.7-20.19-17.78-1.93-1.77-4.22-3.62-1.58-7.14,1.7-2.25.29-4.88-2.83-5.56-2.76-.6-5.59-1.38-8.36-1.25-2.13.11-4.87.93-6.19,2.44-7.28,8.36-14.15,17.08-21.28,25.57-3,3.53-4.33,7.22-3.59,11.94a21,21,0,0,1-4.79,17.24c-4.32,5.29-3.6,16,2,19.84,4.76,3.24,4.69,6.51,3.19,11-.73,2.19-.52,4.79-1.57,6.77-1.92,3.64-3.69,8.32-6.89,10.13C81.23,287,73.53,289.26,68,295.54c-3.33,3.8-3.21,6.49,1.62,8a46,46,0,0,0,11.18,2.15c11.44.62,22.9,1.06,34.35,1.2,5.9.07,11.8-.65,18.07-1-.56-2.7-1-4.84-1.46-7l1.06-.67c1.07,1.05,2.64,1.9,3.14,3.18,2.39,6,7.18,5.45,12.08,4.77,3.13-.43,3.84-1.77,2.3-4.79S148,295,146.8,291.79l1.73-.73c2.23,3.77,4.52,7.51,6.68,11.33,2.3,4.09,5.53,2.18,8.27,1.08,3.14-1.27,2.76-4.13,1.13-6.27a37.33,37.33,0,0,0-7.24-7.45c-9.94-7.31-21.69-6.28-33.11-6.74-1.87-.07-4.28,0-5.48-1.06-2.58-2.29-2.49-14.94-.23-18.31.9,4,1.78,7.8,2.65,11.63.77,3.38,3.18,4.33,6.31,4.47,6.57.29,13.35-.24,19.64,1.27,9.69,2.32,19.46,5.41,22.13,17.32.84,3.73,3.67,3.36,6.15,1.46,3.66-2.81,3.67-8.1-.08-12.45-5.91-6.86-13.87-9.52-22.56-10.25-5-.41-10,.05-14.93-.68a7.54,7.54,0,0,1-5-4.34c-1.4-4.53-1.84-9.36-2.73-14.41a40.34,40.34,0,0,0,6.53-1.92c8.2-3.84,14.84-16.71,13.15-25.64-.3-1.56-1.86-3-3-4.27-4.16-4.53-8.41-9-12.63-13.44,1-.6,1.41-.63,1.61-.45,15.79,13.77,31.61,27.49,49.52,38.57,1.55,1,2.52,3.6,2.85,5.61.63,4,2.89,6.17,6.66,5,2.7-.85,3.73.07,5.1,2.22,2,3.08,6,2.68,7.56-.62C208.21,261.12,208.42,259.25,209,257.05Zm-54.41-23.23c-1.16,3.37-2.14,6.15-3.08,8.94a26.06,26.06,0,0,1-10.86,14.42c-5.42,3.42-5.57,4.46-3.72,12.18,1.17,4.86,5,3.28,8,3.78,7.67,1.27,15.73,1.44,22.94,4,9.12,3.25,16.65,9.59,14.63,19.74-.66,3.27,1.31,3.93,4.2,3.57,5.44-.66,10.9-1.1,16.35-1.7A16.18,16.18,0,0,0,207,298c4.91-1.81,9.78-3.73,14.67-5.59,1.94-.74,3.91-1.42,7-2.56-2.26-1.66-3.55-2.52-4.75-3.5-3.57-2.92-5.63-6.61-4.93-11.33,1-6.91.34-8.25-7-11.64-3.52,3.37-7.44,6.48-12.75,4.35a114.74,114.74,0,0,1-12.9-6.3c-.92-.51-1-2.31-1.7-3.42-1.26-2.17-2.18-4.88-4.05-6.32-7.09-5.47-14.49-10.55-21.82-15.71A31.74,31.74,0,0,0,154.59,233.82ZM76.46,248.56c-9.49,1.65-18.27,3.14-27,4.76a3.33,3.33,0,0,0-2.29,1.75c-.29,1.08-.2,3.11.43,3.46,6.72,3.72,13.87,3.89,21.15,2C73.79,259.13,75.49,255.2,76.46,248.56ZM281.69,295a70.07,70.07,0,0,0-36.46-2.45,10.9,10.9,0,0,0,4,2.69q10.59,3.63,21.25,7C276.67,304.26,280.34,301.87,281.69,295Zm-36.5-124.26c5.57-2.9,9-8.56,7.67-13.59a9.76,9.76,0,0,0-5.12-5.57c-1.12-.48-3.55,2.06-5.63,3.39C247,159.46,249.46,157.32,245.19,170.78Zm-123.36-.07c3.89,4.14,14.07,5.85,20,3.36C137.52,169,127.68,167.33,121.83,170.71Zm101,89.29-5.15.37c1.34,3.06,2.78,6,6,4.68,1.85-.76,3.08-3.67,3.88-5.87.2-.55-2.34-2.1-4.16-3.65C223.1,257.62,223,258.71,222.78,260Zm14.42,32.24c-1.32,3.14-2.14,5.11-3.27,7.81l6.47-1.33Z"/><path d="M292.08,197.78l-10.69,21.11,16.27,5.4-.15,1.42a45.8,45.8,0,0,1-5.08.35c-4.79-.19-9.56-.56-14.34-.82-3-.17-4.65-1.52-2.85-4.43,5-8.11,10.22-16.09,15.35-24.12Z"/><path d="M293.32,248.19c-3.28-4.8-6.16-8.89-8.86-13.1-.4-.62-.18-2.46.18-2.6a4.33,4.33,0,0,1,3.13,0C291.68,234.45,294.69,242.15,293.32,248.19Z"/><path d="M273.81,210.74c-3.3-7-.67-15.46,6.55-22.14C278.08,196.29,276.11,203,273.81,210.74Z"/><path d="M271.17,261.38a12.71,12.71,0,0,1-11.8-9.44C263.3,250.85,268.27,254.71,271.17,261.38Z"/><path d="M280.28,258.06c-5-4.85-4.89-10.85.86-15.65C280.82,248.16,280.57,252.72,280.28,258.06Z"/><path d="M247.94,227.56c-1.53-2.18-2.83-3.65-2.66-3.85a47.14,47.14,0,0,1,5.42-5.15c.07-.05,2.24,1.94,2.08,2.21A78.76,78.76,0,0,1,247.94,227.56Z"/><path class="cls-1" d="M152.49,114.83c-4-3.49-4-2.93-5.88.71-3.91,7.71-.89,14.52,1.76,21.35.88,2.27,3.21,4.14,5.23,5.75,3.71,2.94,7.29,5.84,7.94,11.55-2,.31-4,.71-6.08,1-6.18.74-11.18,3.63-14.21,9-2.84,5.05-6.5,2.29-10,1.8s-3.77-2.66-4-5.67c-.9-10.62-4-20.33-13.65-26.44-4.13-2.63-3.85-5.24-1.68-9.11,7.36-13.12,11.94-27,10.83-42.36-.26-3.64-.36-7.3-.54-10.95l-1.67-.09a12.42,12.42,0,0,0-.81,3.34,90.09,90.09,0,0,1-4.92,34.81A60.69,60.69,0,0,1,100.1,133c-11.22,10.83-29.63,5.7-36.29-9.88-4.6-10.79-5.05-21.84-2.35-33.24,3.89-16.4,12-30.44,22.71-43.22,4.57-5.46,8.65-11.33,13.12-16.88C110.32,13.6,127.5,4.32,148,3.61c24.33-.85,40.3,6.72,50.33,33.67a1.46,1.46,0,0,1,.16.47c.61,11.87,10,17.26,17.86,23.42,13.49,10.54,25.22,22.53,30.53,39.07,3.68,11.43,5.49,23.72,1.93,35.45-4.23,13.95-13.2,23.73-28.35,27.2-11.74,2.69-22.93,2.93-34.08-2.14-4.83-2.19-10.59-2.74-14.87-5.61-9.36-6.27-17.23-14.08-21.74-24.94C147.26,124.12,146.74,119.07,152.49,114.83Zm-50.2-70.69-1.08-.88a26.8,26.8,0,0,1-3.48,3.86A10.23,10.23,0,0,1,94,48.5c-1.48.37-3.72,0-4.41.91-5.14,6.67-10.5,13.27-14.81,20.47C67.93,81.31,69,94.6,67.2,107.22c-.8,5.74.67,10.7,2.94,15.86,6,13.56,20.86,13,27.83,3.53,5.55-7.54,11.1-15.86,13.55-24.7,3.07-11,3-22.94,4.14-34.49.24-2.59.2-5.57-.84-7.84a19,19,0,0,0-5.74-7c-2.39-1.79-5.56-2.53-8.55-3.8Zm74.39,36.32c5.22.18,12.93-5.79,13.17-9.48.07-1.12-2.38-3.5-2.59-3.38A69,69,0,0,0,176,74.93C175.18,75.64,176.43,78.77,176.68,80.46Z"/><path class="cls-1" d="M209,257.05c-.58,2.2-.79,4.07-1.56,5.66-1.61,3.3-5.6,3.7-7.56.62-1.37-2.15-2.4-3.07-5.1-2.22-3.77,1.18-6-1-6.66-5-.33-2-1.3-4.65-2.85-5.61-17.91-11.08-33.73-24.8-49.52-38.57-.2-.18-.58-.15-1.61.45,4.22,4.47,8.47,8.91,12.63,13.44,1.19,1.29,2.75,2.71,3,4.27,1.69,8.93-4.95,21.8-13.15,25.64a40.34,40.34,0,0,1-6.53,1.92c.89,5,1.33,9.88,2.73,14.41a7.54,7.54,0,0,0,5,4.34c4.9.73,10,.27,14.93.68,8.69.73,16.65,3.39,22.56,10.25,3.75,4.35,3.74,9.64.08,12.45-2.48,1.9-5.31,2.27-6.15-1.46-2.67-11.91-12.44-15-22.13-17.32-6.29-1.51-13.07-1-19.64-1.27-3.13-.14-5.54-1.09-6.31-4.47-.87-3.83-1.75-7.66-2.65-11.63-2.26,3.37-2.35,16,.23,18.31,1.2,1.07,3.61,1,5.48,1.06,11.42.46,23.17-.57,33.11,6.74a37.33,37.33,0,0,1,7.24,7.45c1.63,2.14,2,5-1.13,6.27-2.74,1.1-6,3-8.27-1.08-2.16-3.82-4.45-7.56-6.68-11.33l-1.73.73c1.15,3.21,2,6.57,3.56,9.58s.83,4.36-2.3,4.79c-4.9.68-9.69,1.25-12.08-4.77-.5-1.28-2.07-2.13-3.14-3.18l-1.06.67c.45,2.14.9,4.28,1.46,7-6.27.39-12.17,1.11-18.07,1-11.45-.14-22.91-.58-34.35-1.2a46,46,0,0,1-11.18-2.15c-4.83-1.52-5-4.21-1.62-8,5.51-6.28,13.21-8.57,20.1-12.45,3.2-1.81,5-6.49,6.89-10.13,1-2,.84-4.58,1.57-6.77,1.5-4.47,1.57-7.74-3.19-11-5.63-3.82-6.35-14.55-2-19.84a21,21,0,0,0,4.79-17.24c-.74-4.72.63-8.41,3.59-11.94,7.13-8.49,14-17.21,21.28-25.57,1.32-1.51,4.06-2.33,6.19-2.44,2.77-.13,5.6.65,8.36,1.25,3.12.68,4.53,3.31,2.83,5.56-2.64,3.52-.35,5.37,1.58,7.14,6.6,6.08,13.21,12.17,20.19,17.78,10.76,8.65,21.85,16.86,32.74,25.35,3.18,2.49,6.09,4,10.43,2.16,3.89-1.68,6.87,1,7.69,5.33a8,8,0,0,0,2.55,4.58c2.22,1.7,5.45,2.55,4.49,6.25s-4,3.45-6.9,3.29A15.51,15.51,0,0,0,209,257.05Z"/><path class="cls-1" d="M76.46,248.56c-1,6.64-2.67,10.57-7.74,11.92-7.28,1.94-14.43,1.77-21.15-2-.63-.35-.72-2.38-.43-3.46a3.33,3.33,0,0,1,2.29-1.75C58.19,251.7,67,250.21,76.46,248.56Z"/><path class="cls-1" d="M245.19,170.78c4.27-13.46,1.79-11.32-3.08-15.77,2.08-1.33,4.51-3.87,5.63-3.39a9.76,9.76,0,0,1,5.12,5.57C254.22,162.22,250.76,167.88,245.19,170.78Z"/><path class="cls-1" d="M121.83,170.71c5.85-3.38,15.69-1.72,20,3.36C135.9,176.56,125.72,174.85,121.83,170.71Z"/><path class="cls-1" d="M222.78,260c.18-1.29.32-2.38.6-4.47,1.82,1.55,4.36,3.1,4.16,3.65-.8,2.2-2,5.11-3.88,5.87-3.25,1.34-4.69-1.62-6-4.68Z"/><path class="cls-1" d="M237.2,292.24l3.2,6.48-6.47,1.33C235.06,297.35,235.88,295.38,237.2,292.24Z"/><path d="M102.29,44.14l-1.76,4.62c3,1.27,6.16,2,8.55,3.8a19,19,0,0,1,5.74,7c1,2.27,1.08,5.25.84,7.84-1.09,11.55-1.07,23.46-4.14,34.49-2.45,8.84-8,17.16-13.55,24.7-7,9.45-21.87,10-27.83-3.53-2.27-5.16-3.74-10.12-2.94-15.86,1.77-12.62.73-25.91,7.57-37.34,4.31-7.2,9.67-13.8,14.81-20.47.69-.9,2.93-.54,4.41-.91a10.23,10.23,0,0,0,3.74-1.38,26.8,26.8,0,0,0,3.48-3.86Z"/><path d="M176.68,80.46c-.25-1.69-1.5-4.82-.67-5.53a69,69,0,0,1,11.25-7.33c.21-.12,2.66,2.26,2.59,3.38C189.61,74.67,181.9,80.64,176.68,80.46Z"/></g></g></svg>