<svg xmlns="http://www.w3.org/2000/svg" viewBox="0 0 558.06 669.26"><defs><style>.cls-1{fill:#fff;}</style></defs><g id="圖層_2" data-name="圖層 2"><g id="圖層_1-2" data-name="圖層 1"><path d="M154.34,273.84c-4.22,9.62-6.63,18.55-11.67,25.59a33.43,33.43,0,0,1-19.1,12.94c-7.77,1.94-15.28,5.52-23.48,4.29-16.75-2.51-33.07-5.88-45.73-18.89-8.23-8.45-15.6-17.38-20.42-28.1-2.43-5.41-3.8-11.34-5.28-17.13-2.12-8.29-4.2-16.62-5.68-25-.77-4.36-.12-9-.25-13.46-.36-13.2.5-26.17,4.32-39,4.53-15.21,7.24-31,12.63-45.89,4.69-12.91,9.58-25.77,14.4-38.65,4.53-12.12,11.47-23.57,18.76-34.35,5.4-8,12.76-14.78,19.8-21.53C102.5,25.19,114.8,20,127.55,15.45c10.33-3.67,20.94-4.78,31.69-6C163.63,9,167.68,5.66,172,3.78c2.57-1.12,5.22-2.54,7.91-2.76,3.2-.26,5.84,1,3.26,5.08-.45.71-.16,1.88-.22,2.9,6.49,1.25,12.76,2.22,18.91,3.7,7.89,1.9,15.67,4.22,23.51,6.33,8.43,2.27,16.38,5.4,25.78,2.67,9.62-2.8,20-3,29.9-4.82,11.35-2.07,22.6-4.67,33.9-7a8.1,8.1,0,0,1,1-.11c8.88-.52,17.79-.79,26.65-1.63,7.79-.73,15.5-2.51,23.3-3s15.77-1.1,23.36.18c9.36,1.58,18.2,1.07,26.54-2.86,7.62-3.59,14.47-2.73,22.06,0,10.74,3.89,14.83,12.18,16.74,22.26.33,1.71-.78,3.73-1.35,5.56C451.53,35.6,450,41,448.06,46.31c-1.85,5.11-.55,13.46,3.71,16.77,1.94,1.51,5.45,2.78,7.5,2,13.07-4.63,26.49-6.8,40.15-5.31a169.32,169.32,0,0,1,32.51,6.33c8.11,2.55,14.74,8.61,20.23,15.4,3.08,3.81,3.14,7.79.25,11.72-4.12,5.61-10.19,8.44-16.56,10-3.24.79-7.09-1.29-10.56-1-7.79.67-14.8-2.24-22.17-3.59-10.24-1.88-19.53-7.73-30.41-6.85-3.36.27-4.84,1.48-4.88,4.8-.17,15.45-6.08,28.51-15.16,40.91a221.54,221.54,0,0,1-27.59,31.58c-9.39,8.73-19.9,15.89-31,22.34-14.79,8.59-29.72,16.87-43.66,27-16,11.64-31,24.23-44.09,38.86-8.75,9.74-17.57,19.71-24.36,30.8-4.86,7.94-6.2,18-9.52,26.94-2.88,7.8-.6,14.58,2.67,21.57a18.8,18.8,0,0,1,1.65,9.08c-1.18,14.64,4,27.89,8.12,41.45,3.16,10.32,5.59,20.87,8.13,31.37,2,8.34,4.54,16.69,5.34,25.17.81,8.65.13,17.5-.56,26.21-.48,6-2.23,11.81-3.2,17.75-2,12.49-7.35,23.43-14.47,33.86a72.25,72.25,0,0,1-21,20c-8.82,5.73-9.41,19.19-5.08,25.84,1.49,2.3,4.91,3.7,7.74,4.68a34.39,34.39,0,0,0,9.6,1.58c19.22.85,36.79,7.86,54.47,14.43a97.49,97.49,0,0,1,13.69,6.21c2.1,1.18,3.65,3.51,5.18,5.52,4.21,5.53,9.26,10.71,12.18,16.88,4.83,10.19,3.91,21.52,3.62,32.54a5.12,5.12,0,0,1-1.39,3c-5.43,5.94-11.84,9.44-20.25,9.78-10.13.41-20.22,1.85-30.33,2.78-6.06.56-12.14.88-18.2,1.49-8.45.85-16.88,1.89-25.33,2.82a33.75,33.75,0,0,1-3.49.08c-30,0-60,.11-90-.06-9.57-.06-19.17-.55-28.7-1.42-12.85-1.18-25.66-2.86-38.48-4.43-11.84-1.44-20.38-17.4-15.91-28.53,5.37-13.41,16-21.83,26.86-30.21,7.55-5.8,15.77-11.26,21.71-18.49,7.17-8.74,8.17-19.67,4.44-30.75a71.12,71.12,0,0,0-10.8-20c-3.79-5.09-9.25-5.54-13.86-3.93-17.43,6.11-35.35,3.71-53.09,4-4.61.07-9.22-1.93-13.86-2.77A112.51,112.51,0,0,1,20,522.31c-5.7-2.82-11.47-5.84-16.4-9.78-6-4.77-4.34-10,2.95-12.32,10.67-3.42,21.2-7.3,32-10.47a62.3,62.3,0,0,1,15.87-2.53c14-.35,28-.13,42-.13,8.27,0,12.63-2.61,12.69-10.56.08-9.16,4.86-16,8.6-23.29a279,279,0,0,1,28.91-45.42c7.83-10,14.25-21.09,21.34-31.66,6.91-10.29,13.93-20.5,20.78-30.83a100.85,100.85,0,0,0,6.92-11.89c.64-1.35-.16-3.46-.46-5.2-.8-4.6-1.79-9.19,3.48-12.08a5.62,5.62,0,0,0,1.83-2.25c3.58-6.3-2.42-27.17-11-29.28-4.9-1.2-9.93-1.89-14.75-3.34-4.3-1.3-8.35-3.42-12.58-5C159.18,275.17,156.09,274.38,154.34,273.84ZM177.75,40.41l-1.8.38c-1.12-3.08-2.64-6.09-3.27-9.27-.84-4.27-2.94-7.23-7.27-7.11-6.21.17-12.68.2-18.53,2-9.61,2.93-18.73,7.41-28.18,10.91C106.58,41.79,100,52.41,92.49,61.59c-8.58,10.56-16.18,22.1-20.88,35.18C68.2,106.25,64.31,115.54,61,125c-3,8.54-5.36,17.3-8.3,25.85-6.69,19.41-12.58,38.89-11,59.86.92,11.85,1,23.75,1.69,35.62a28.41,28.41,0,0,0,1.87,9.55c3,6.86,6.35,13.57,9.94,20.13,6.76,12.38,18.73,18,31.35,21.22,7.45,1.89,15.79,0,23.69.43,6.23.3,11.57-1.8,16.83-4.55s11.58-11.63,9.38-19c-4.89,5.44-9.6,10.71-14.35,15.94a13.07,13.07,0,0,1-11,4.63,91.93,91.93,0,0,0-11.5,0c-12,.83-21-5.44-29.61-12.34-9-7.15-14.85-16.62-18.61-27.36-2.74-7.82-5.87-15.61-5.14-24.18.45-5.21.74-10.45,1.51-15.62,1-6.89,1.51-14.06,3.87-20.51a262,262,0,0,1,13.84-30.9c4.37-8.38,12.67-10.21,21.72-8.07,8.78,2.08,16.39,5.93,21.48,14,3.84,6.05,9.08,11.33,12.22,17.69C128.41,202.49,135,218,142.23,234c.34-2.1,1.24-4.28.9-6.24q-1.84-10.75-4.42-21.38c-1.26-5.18-2.84-10.3-4.61-15.33-3.81-10.84-13.47-16.66-21.29-24A18.23,18.23,0,0,1,106.67,155c-.15-1.79,1.09-4.63,2.52-5.35s4.08.38,5.68,1.45c11.9,7.93,20,19.26,27.09,31.35,5.74,9.88,10.57,20.19,11.86,31.89.68,6.26,3.15,12.32,3.91,18.57,1,8.31,1.07,16.74,1.77,25.09.12,1.4,1.18,3.57,2.25,3.89a60.51,60.51,0,0,0,10.57,1.91c2.79.33,6.15-.7,8.36.52,8.15,4.48,16.8,8.67,23.64,14.78,9.48,8.46,14.74,19.75,15.39,32.9.13,2.77,1,6.61,2.87,7.94,3.4,2.37,6.07,6.24,11.47,5.85,4.57-.33,9.38,2.27,13.91,1.82,3.4-.33,8.32-2.72,9.4-5.45,2.23-5.6,2.71-12,3.24-18.15.7-8.16,4.69-14.93,8.79-21.48,4.83-7.71,10.52-14.91,16-22.17,6.84-9,13.12-18.55,21.05-26.45s17.54-14.69,26.88-21.28c11.74-8.27,23.35-17.11,36.14-23.44,17.7-8.76,33.86-19.28,47.94-33A202.5,202.5,0,0,0,433.1,139a89.81,89.81,0,0,0,9.46-14.24c2.21-4.12,3.24-8.85,5.13-13.17,3.18-7.25,3.42-14.51-.05-21.58-4.84-9.84-9.73-19.68-15.17-29.2a129.13,129.13,0,0,0-13.18-19.43,68.31,68.31,0,0,0-26.1-18.73c-7.48-3.17-15.11-2.95-22.57-3.79-6.76-.76-13.85,1.64-20.82,2.48-13,1.57-26.05,2.61-39,4.64-9.43,1.49-19.18,3-27.86,6.7-10.93,4.64-22.3,5.93-33.67,7.64-3.91.59-8.12-.72-12.18-1.28-6.78-.94-13.59-1.81-20.32-3-3-.55-5.84-2-8.8-2.87-6.68-2-13.38-3.86-20.11-5.62-2.24-.59-4.45-.9-5.53,2.31C181.13,33.44,179.31,36.88,177.75,40.41ZM329.08,628.3a39.75,39.75,0,0,1,2.1,6c.33,1.94-.07,4,.12,6,.56,6.14,3.93,8,9.36,5.34,11.69-5.75,12.07-7,5.48-18.29-.16-.28-.17-.65-.31-1-4.15-9.25-9.37-17.8-18.28-23.13a113.74,113.74,0,0,0-18.27-8.89c-6.51-2.45-13.37-4-20.13-5.67-6.6-1.68-13.24-3.29-19.92-4.59-8.63-1.69-17.36-2.82-26-4.6-4.67-1-8.57-4.26-8.75-9-.32-8.56-.78-17-2.85-25.37-.43-1.77,2.34-6,4.13-6.34,7.45-1.31,13.39-5.28,18.68-9.94,4.43-3.9,10-6.5,12.53-12.88,3.44-8.61,8.19-16.48,8.73-26.25.58-10.38,3.59-20.65,3.79-31,.21-10.74-1.52-21.55-2.68-32.29a145.29,145.29,0,0,0-3.07-19.76c-3.55-14.11-7.75-28.06-11.51-42.12-2.71-10.11-7.14-18.06-18.65-20.51-9.64-2.06-19-5.61-28.51-8.08-3.93-1-7,1-8.43,5-.67,1.83-.9,3.95-2,5.5-7.1,10.38-14.1,20.85-21.67,30.89-9.16,12.15-19.21,23.65-28.21,35.91a243.12,243.12,0,0,0-18.1,28.43c-4.45,8.26-8.6,17.05-10.68,26.12a82,82,0,0,0-1.53,28c1,8.33,4.93,16.4,8.3,24.27,1.43,3.33,4.45,6.17,7.25,8.65,3.91,3.47,8.39,6.3,12.46,9.59,6.38,5.16,9.32,20.39,6.41,29.37-2.2,6.76-2.88,14.09-5.6,20.59-2.59,6.19-5.93,12.75-10.77,17.13-6.3,5.71-14.74,9-21.63,14.14-6.74,5-12.84,11-18.92,16.83-2.45,2.36-.57,8.52,2.77,9.3,7.45,1.72,15,4.06,22.52,4.26,26.46.71,53-.85,79.33,3.19,6.1.94,12.17,2.29,18.3,2.68,7.33.48,14.93,1.67,21.73-2.49,1-.64,2.29-2.69,2-3.54-1.61-4.38-3.67-8.59-5.64-12.83-1.38-3-3-6.41.69-8.31,3.8-2,6.46.54,8.2,4.07,2.32,4.71,4.74,9.37,7.19,14,3.68,7,12,8.39,17.6,2.87a13,13,0,0,0,3.05-4.84c2-5.76,3.75-6.26,8-2,2,2,4,5.32,6.38,5.65,9.77,1.37,19.19-.9,26.35-7.73,2.77-2.64,3-8,4.45-12.31Zm-307.42-119-.3,1.49c3.09,1.47,6.27,2.79,9.26,4.44,13.24,7.26,27.86,9,42.47,9.87,8.32.52,16.76-.66,25.13-1.3,5.77-.44,10.57-3.95,11.22-7.74.89-5.1-2.59-12.46-7.1-14.72-6.31-3.17-13-4.62-20-5.77-8.1-1.34-15.53.18-23,1.86-9,2-17.81,4.83-26.63,7.53C28.92,506.1,25.33,507.83,21.66,509.29ZM458,75.41l-.08,2.6q15.56,2.55,31.1,5.08c4.67.75,9.52.86,14,2.25,8.83,2.76,17.41,6.32,26.17,9.33,5.14,1.77,9.15-1.45,9.33-6.87.26-8.29-6.19-11.7-11.88-13.89-7.77-3-16.3-4.3-24.62-5.43-10.36-1.42-20.61.68-30.71,3C466.74,72.44,462.38,74.06,458,75.41Z"/><path d="M495.59,119.87c9.47,2.28,20.51,6.2,26.75,17.9a11.38,11.38,0,0,1-2.51,14.33c-3.27,3-7.22,1.67-11.05,0-11.48-5-17.47-14.91-22.71-25.35C483.71,122.06,486.14,119.88,495.59,119.87Z"/><path d="M540.78,52.8c-7.41-1.18-14.86-2.19-22.22-3.68a5.48,5.48,0,0,1-3.47-3.72c-.2-1.61.87-3.79,2.06-5.09,6.12-6.67,14.84-7.81,22.94-10,7.44-2,15.79,3.86,17.39,11.5.85,4.08-4.8,9.9-10.13,10.29-2.15.16-4.32,0-6.48,0Z"/><path d="M557.51,141.2c0,3.64.2,6.16,0,8.63-.36,3.73-3.4,4.93-6.32,2.55-6.43-5.24-9-12.73-11.18-20.28-.47-1.64.53-5,1.75-5.54a9.11,9.11,0,0,1,7,.18C554.89,129.9,559.73,134.25,557.51,141.2Z"/><path class="cls-1" d="M177.75,40.41c1.56-3.53,3.38-7,4.61-10.62,1.08-3.21,3.29-2.9,5.53-2.31,6.73,1.76,13.43,3.67,20.11,5.62,3,.86,5.79,2.32,8.8,2.87,6.73,1.23,13.54,2.1,20.32,3,4.06.56,8.27,1.87,12.18,1.28,11.37-1.71,22.74-3,33.67-7.64,8.68-3.69,18.43-5.21,27.86-6.7,12.92-2,26-3.07,39-4.64,7-.84,14.06-3.24,20.82-2.48,7.46.84,15.09.62,22.57,3.79a68.31,68.31,0,0,1,26.1,18.73,129.13,129.13,0,0,1,13.18,19.43c5.44,9.52,10.33,19.36,15.17,29.2,3.47,7.07,3.23,14.33.05,21.58-1.89,4.32-2.92,9-5.13,13.17A89.81,89.81,0,0,1,433.1,139a202.5,202.5,0,0,1-15.66,17.21c-14.08,13.73-30.24,24.25-47.94,33-12.79,6.33-24.4,15.17-36.14,23.44-9.34,6.59-18.83,13.26-26.88,21.28s-14.21,17.48-21.05,26.45c-5.52,7.26-11.21,14.46-16,22.17-4.1,6.55-8.09,13.32-8.79,21.48-.53,6.14-1,12.55-3.24,18.15-1.08,2.73-6,5.12-9.4,5.45-4.53.45-9.34-2.15-13.91-1.82-5.4.39-8.07-3.48-11.47-5.85-1.91-1.33-2.74-5.17-2.87-7.94-.65-13.15-5.91-24.44-15.39-32.9-6.84-6.11-15.49-10.3-23.64-14.78-2.21-1.22-5.57-.19-8.36-.52a60.51,60.51,0,0,1-10.57-1.91c-1.07-.32-2.13-2.49-2.25-3.89-.7-8.35-.75-16.78-1.77-25.09-.76-6.25-3.23-12.31-3.91-18.57-1.29-11.7-6.12-22-11.86-31.89-7-12.09-15.19-23.42-27.09-31.35-1.6-1.07-4.33-2.12-5.68-1.45s-2.67,3.56-2.52,5.35a18.23,18.23,0,0,0,6.14,12.08c7.82,7.31,17.48,13.13,21.29,24,1.77,5,3.35,10.15,4.61,15.33q2.56,10.6,4.42,21.38c.34,2-.56,4.14-.9,6.24-7.22-16-13.82-31.51-21.3-46.62-3.14-6.36-8.38-11.64-12.22-17.69-5.09-8-12.7-11.88-21.48-14-9-2.14-17.35-.31-21.72,8.07a262,262,0,0,0-13.84,30.9c-2.36,6.45-2.86,13.62-3.87,20.51-.77,5.17-1.06,10.41-1.51,15.62-.73,8.57,2.4,16.36,5.14,24.18,3.76,10.74,9.66,20.21,18.61,27.36,8.62,6.9,17.65,13.17,29.61,12.34a91.93,91.93,0,0,1,11.5,0,13.07,13.07,0,0,0,11-4.63c4.75-5.23,9.46-10.5,14.35-15.94,2.2,7.38-4,16.21-9.38,19s-10.6,4.85-16.83,4.55c-7.9-.39-16.24,1.46-23.69-.43C73.94,294.06,62,288.42,55.21,276c-3.59-6.56-7-13.27-9.94-20.13a28.41,28.41,0,0,1-1.87-9.55c-.67-11.87-.77-23.77-1.69-35.62-1.62-21,4.27-40.45,11-59.86C55.61,142.33,58,133.57,61,125c3.34-9.49,7.23-18.78,10.64-28.26,4.7-13.08,12.3-24.62,20.88-35.18,7.46-9.18,14.09-19.8,26.21-24.28,9.45-3.5,18.57-8,28.18-10.91,5.85-1.79,12.32-1.82,18.53-2,4.33-.12,6.43,2.84,7.27,7.11.63,3.18,2.15,6.19,3.27,9.27Zm80,34.54c0-4.24-2.08-6-5.39-4.52a29.42,29.42,0,0,0-8.08,5.08c-6.31,5.91-12.35,12.11-18.38,18.31a19.07,19.07,0,0,0-4.25,5.88c-.87,2.17-.68,4.76-1,7.16,2.38-.19,5.1.29,7.1-.68,10.79-5.28,17.9-14.9,26.14-23.14C256,80.93,256.64,77.36,257.73,75Z"/><path class="cls-1" d="M329.08,628.3h-4.16c-1.46,4.36-1.68,9.67-4.45,12.31-7.16,6.83-16.58,9.1-26.35,7.73-2.35-.33-4.34-3.61-6.38-5.65-4.25-4.23-6-3.73-8,2a13,13,0,0,1-3.05,4.84c-5.58,5.52-13.92,4.12-17.6-2.87-2.45-4.64-4.87-9.3-7.19-14-1.74-3.53-4.4-6.06-8.2-4.07-3.65,1.9-2.07,5.35-.69,8.31,2,4.24,4,8.45,5.64,12.83.31.85-.94,2.9-2,3.54-6.8,4.16-14.4,3-21.73,2.49-6.13-.39-12.2-1.74-18.3-2.68-26.33-4-52.87-2.48-79.33-3.19-7.54-.2-15.07-2.54-22.52-4.26-3.34-.78-5.22-6.94-2.77-9.3,6.08-5.85,12.18-11.79,18.92-16.83,6.89-5.16,15.33-8.43,21.63-14.14,4.84-4.38,8.18-10.94,10.77-17.13,2.72-6.5,3.4-13.83,5.6-20.59,2.91-9,0-24.21-6.41-29.37-4.07-3.29-8.55-6.12-12.46-9.59-2.8-2.48-5.82-5.32-7.25-8.65-3.37-7.87-7.26-15.94-8.3-24.27a82,82,0,0,1,1.53-28c2.08-9.07,6.23-17.86,10.68-26.12a243.12,243.12,0,0,1,18.1-28.43c9-12.26,19-23.76,28.21-35.91,7.57-10,14.57-20.51,21.67-30.89,1.07-1.55,1.3-3.67,2-5.5,1.45-4,4.5-6,8.43-5,9.56,2.47,18.87,6,28.51,8.08,11.51,2.45,15.94,10.4,18.65,20.51,3.76,14.06,8,28,11.51,42.12a145.29,145.29,0,0,1,3.07,19.76c1.16,10.74,2.89,21.55,2.68,32.29-.2,10.36-3.21,20.63-3.79,31-.54,9.77-5.29,17.64-8.73,26.25-2.55,6.38-8.1,9-12.53,12.88-5.29,4.66-11.23,8.63-18.68,9.94-1.79.32-4.56,4.57-4.13,6.34,2.07,8.39,2.53,16.81,2.85,25.37.18,4.71,4.08,8,8.75,9,8.6,1.78,17.33,2.91,26,4.6,6.68,1.3,13.32,2.91,19.92,4.59,6.76,1.72,13.62,3.22,20.13,5.67a113.74,113.74,0,0,1,18.27,8.89c8.91,5.33,14.13,13.88,18.28,23.13.14.3.15.67.31,1,6.59,11.25,6.21,12.54-5.48,18.29-5.43,2.68-8.8.8-9.36-5.34-.19-2,.21-4-.12-6A39.75,39.75,0,0,0,329.08,628.3ZM183.48,395.4l-1.5-1.46c-2.6.88-6,1-7.62,2.79a63.66,63.66,0,0,0-9,12.69A127.88,127.88,0,0,0,156.71,428c-3.91,10.95-7,22.19-10.64,33.23-2.59,7.83-5.56,15.54-8.33,23.31-1.13,3.15-2.91,6.26-3.18,9.5-.91,10.92,6.58,18.11,12.73,25.56,8.21,9.94,19.12,16.56,30.82,21.58,3.72,1.59,8.7,2.48,12.43,1.38,12-3.54,21.94-10.37,27.25-22.36a128.47,128.47,0,0,0,5.76-14.49c3.77-12.38,8.19-24.69,10.44-37.37,1.95-11,1.46-22.39,1.65-33.62A45.92,45.92,0,0,0,234,422.1a26.51,26.51,0,0,0-4.69-9.54c-2.94-3.64-8.79-1.89-9.57,2.71a102.83,102.83,0,0,0-1.58,15.14c-.22,13.15.15,26.32-.18,39.47a65.81,65.81,0,0,1-2.36,15.91,184.79,184.79,0,0,1-8.15,23.86c-2.77,6.39-5.19,13.48-13.55,17.14-1.56-3.29-3.12-6.58-5.13-10.8a61.81,61.81,0,0,1-7.7,2.78c-4.09.94-8.31,2.09-12.43,1.94-5.24-.2-6.57-3-5-8.32a40.14,40.14,0,0,1,1.68-5.07c2.27-5,.36-8-5.28-8.53a26.75,26.75,0,0,1-8.53-1.83c-1.21-.55-2.48-3.47-2-4.65.8-2.06,3.08-3.48,4.44-5.38,1.94-2.71,4.58-5.4,5.22-8.46,1.57-7.46,1.62-15.26,3.29-22.69a152,152,0,0,1,7.19-22.65c3.25-8.19,7.67-15.92,10.92-24.1C182.3,404.78,182.57,400,183.48,395.4ZM206,570.83c.52,3.43,1.31,7.61,1.76,11.84.53,5,4.67,9.56,9.66,10.2,7.94,1,15.89,1.89,23.82,3,12.74,1.74,25.65,2.68,37.83,7.3,13.9,5.27,29.19,7.61,40,19.32,1.92,2.07,3.79,2.15,5.15-1.2,1.55-3.81-.09-6.6-2.34-9-12.81-13.57-28.81-20-47.3-21-4.75-.24-9.74-.18-14.14-1.69-10.15-3.47-20.51-4.19-31.05-4.17-4.78,0-7.95-3.58-8.49-8.36a156.48,156.48,0,0,0-3.21-19.8c-.57-2.3-3.16-4.31-5.22-6-3-2.39-4.28,0-4.64,2.46C207.1,559.15,206.68,564.55,206,570.83Z"/><path class="cls-1" d="M21.66,509.29c3.67-1.46,7.26-3.19,11-4.34,8.82-2.7,17.64-5.52,26.63-7.53,7.49-1.68,14.92-3.2,23-1.86,7,1.15,13.7,2.6,20,5.77,4.51,2.26,8,9.62,7.1,14.72-.65,3.79-5.45,7.3-11.22,7.74-8.37.64-16.81,1.82-25.13,1.3-14.61-.91-29.23-2.61-42.47-9.87-3-1.65-6.17-3-9.26-4.44Z"/><path class="cls-1" d="M458,75.41c4.43-1.35,8.79-3,13.29-4,10.1-2.27,20.35-4.37,30.71-3,8.32,1.13,16.85,2.45,24.62,5.43,5.69,2.19,12.14,5.6,11.88,13.89-.18,5.42-4.19,8.64-9.33,6.87-8.76-3-17.34-6.57-26.17-9.33-4.46-1.39-9.31-1.5-14-2.25q-15.56-2.5-31.1-5.08Z"/><path d="M257.73,75c-1.09,2.41-1.72,6-3.82,8.09-8.24,8.24-15.35,17.86-26.14,23.14-2,1-4.72.49-7.1.68.28-2.4.09-5,1-7.16a19.07,19.07,0,0,1,4.25-5.88c6-6.2,12.07-12.4,18.38-18.31a29.42,29.42,0,0,1,8.08-5.08C255.65,69,257.77,70.71,257.73,75Z"/><path d="M183.48,395.4c-.91,4.56-1.18,9.38-2.87,13.63-3.25,8.18-7.67,15.91-10.92,24.1a152,152,0,0,0-7.19,22.65c-1.67,7.43-1.72,15.23-3.29,22.69-.64,3.06-3.28,5.75-5.22,8.46-1.36,1.9-3.64,3.32-4.44,5.38-.46,1.18.81,4.1,2,4.65a26.75,26.75,0,0,0,8.53,1.83c5.64.53,7.55,3.52,5.28,8.53a40.14,40.14,0,0,0-1.68,5.07c-1.61,5.32-.28,8.12,5,8.32,4.12.15,8.34-1,12.43-1.94a61.81,61.81,0,0,0,7.7-2.78c2,4.22,3.57,7.51,5.13,10.8,8.36-3.66,10.78-10.75,13.55-17.14a184.79,184.79,0,0,0,8.15-23.86A65.81,65.81,0,0,0,218,469.88c.33-13.15,0-26.32.18-39.47a102.83,102.83,0,0,1,1.58-15.14c.78-4.6,6.63-6.35,9.57-2.71A26.51,26.51,0,0,1,234,422.1a45.92,45.92,0,0,1,1.64,12.61c-.19,11.23.3,22.65-1.65,33.62-2.25,12.68-6.67,25-10.44,37.37a128.47,128.47,0,0,1-5.76,14.49c-5.31,12-15.22,18.82-27.25,22.36-3.73,1.1-8.71.21-12.43-1.38-11.7-5-22.61-11.64-30.82-21.58-6.15-7.45-13.64-14.64-12.73-25.56.27-3.24,2.05-6.35,3.18-9.5,2.77-7.77,5.74-15.48,8.33-23.31,3.65-11,6.73-22.28,10.64-33.23a127.88,127.88,0,0,1,8.68-18.57,63.66,63.66,0,0,1,9-12.69c1.64-1.77,5-1.91,7.62-2.79Z"/><path d="M206,570.83c.66-6.28,1.08-11.68,1.86-17,.36-2.5,1.69-4.85,4.64-2.46,2.06,1.66,4.65,3.67,5.22,6a156.48,156.48,0,0,1,3.21,19.8c.54,4.78,3.71,8.37,8.49,8.36,10.54,0,20.9.7,31.05,4.17,4.4,1.51,9.39,1.45,14.14,1.69,18.49.92,34.49,7.39,47.3,21,2.25,2.38,3.89,5.17,2.34,9-1.36,3.35-3.23,3.27-5.15,1.2-10.84-11.71-26.13-14.05-40-19.32-12.18-4.62-25.09-5.56-37.83-7.3-7.93-1.09-15.88-2-23.82-3-5-.64-9.13-5.25-9.66-10.2C207.33,578.44,206.54,574.26,206,570.83Z"/></g></g></svg>