<svg xmlns="http://www.w3.org/2000/svg" viewBox="0 0 368.46 413.57"><defs><style>.cls-1{fill:#fff;}</style></defs><g id="圖層_2" data-name="圖層 2"><g id="圖層_1-2" data-name="圖層 1"><path d="M245.32,359.31c-4.47-4.7-8.4-8.83-12.34-12.95-3.54-3.7-7.14-7.33-10.61-11.09-5.11-5.53-11.12-7.57-18.57-5.7a67.71,67.71,0,0,1-27.82,1.1c-5.41-.89-16.72,4.2-19.1,11.36a8.11,8.11,0,0,0,4.1,9.84c2.61,1.35,5.6,1.95,8.42,2.86s6.1,1.47,8.78,2.9a12,12,0,0,1,6.55,12.48c-.56,5.49-4.29,8.86-9.31,10-7.63,1.77-15.41,3-23.18,4.12-29.5,4.17-59.17,4.35-88.86,3.22a52.81,52.81,0,0,1-11.81-1.74C40.12,382.59,36,372.66,41.3,362c4.58-9.13,12.84-13.33,21.9-16.24,14.75-4.74,30.06-5.81,45.42-6.13,3.29-.07,4.39-.75,4.22-4.45-.53-11.51,5.65-19.24,15.16-24.73,2.45-1.42,5-2.68,7.77-4.17-8.89-12.68-13.63-26.36-13.05-42.22l-3.44,1.18c-31,10.67-59.58,7.22-84.44-15.19-11.17-10.06-17.45-23.21-20-38.1a4.85,4.85,0,0,0-1.9-3.22C.19,202.21-3,186.47,2.75,173.92c4-8.68,9.22-13.55,21.52-20.4-.32-1-.6-2-1-3-4.81-11.64-1.17-24.24,9.28-31,2.62-1.68,2.86-3,1.47-5.61-6.1-11.53-9.83-23.64-9.25-36.95.76-17.3,7.37-32.08,19.13-44.38C60.46,15.29,80.05,3.26,104.47.67,131-2.15,155,3.76,175.39,21.72c18.93,16.65,34.7,35.78,46,58.43A213.66,213.66,0,0,1,238,126.6c.28,1.18.73,2.32,1.27,4,6.67-3.6,12.87-7.27,19.35-10.33a21.94,21.94,0,0,0,10.69-10c1.34-2.63,2.8-5.46,3.11-8.32C273.17,94.85,277,90,283.3,88c13.85-4.44,27.8-8.83,42.46-9.77a24.74,24.74,0,0,1,16.91,4.8c7.91,5.93,10.65,22.61,0,30.6,9,6.82,10.94,16,8.28,26.38-2.84,11.05-12.25,16.59-22.56,11.53-1.32-.65-2.76-1.05-4.42-1.66-2.1,9.33-8.11,14.07-17.26,14.1s-14.34-6-18.7-13.55c-2.89,2.15-5.41,4.37-8.24,6.09-12,7.31-24.38,14.13-36.18,21.79-13.05,8.48-25.7,17.6-38.38,26.63-3.93,2.8-3.8,5.46.2,8.76,5.38,4.45,11.1,8.49,16.45,13,9.36,7.85,18.7,15.75,27.74,24,3.18,2.89,5.52,2.06,8-.21a56.79,56.79,0,0,0,3.8-4.59c2.43-2.75,5.94-2.38,7.15,1.06,2.71,7.72,2.25,18.1-5,25a5,5,0,0,0-1.64,3.31c.65,9.38-1.15,18.38-3.58,27.36a8.89,8.89,0,0,0,.76,6.19q13.74,23,28,45.64c.88,1.4,3.06,2.33,4.82,2.74,9,2.09,18.11,3.59,27,6,12.35,3.31,24.15,8.13,34.11,16.47,6.67,5.58,12.26,12.1,14.85,20.66,2,6.52-.66,11.36-7.39,12.44a77,77,0,0,1-15.63.75c-32.25-1.46-63.38-8.88-94.18-18-3.7-1.1-7.5-1.87-11.2-2.95-5.51-1.6-10.43-4.19-13.7-9.15-4-6.06-3.5-13,2.24-17.41,3.53-2.7,8.13-4,12.33-5.78C241.58,359.61,243.12,359.65,245.32,359.31ZM304.12,87c7.56,3.51,12.41,8.77,12.18,17.38a42.8,42.8,0,0,1-1.53,10.7c-2.87,9.87-15.15,14.36-22.85,8.46-1-.79-1.33-2.53-2-3.84,1.39.18,3,0,4.12.61,5.74,3.43,14.05,1.37,16.08-4.8A45.35,45.35,0,0,0,312,102c0-4-2.42-7-5.92-9-7-3.85-13.93-5.39-21.52-1.12-4.33,2.45-7,5.25-8,10.41-1.63,9-5.81,16.6-14.61,20.9-6.39,3.11-12.52,6.73-18.86,9.94-2.28,1.15-2.76,2.52-2.58,5,.32,4.69.63,9.54-.14,14.14-1.76,10.55-10,16.29-20.51,15.13-7.81-.85-14.48-4.51-20.89-8.62-3.27-2.09-6.07-2.34-9.06.2-1.14,1-2.43,1.76-3.56,2.73-4.06,3.5-6.85,7.28-7.14,13.26-.25,5.21-2.55,10.34-4.16,15.44-.38,1.18-1.69,2-2.48,3.11-.92,1.26-2.27,2.5-2.54,3.91C165,223.88,152,245,129.39,260a6.36,6.36,0,0,0-2.48,4.43c-.54,20.88,7.33,38,23.77,50.85,15.9,12.36,34.09,14.44,53.24,10.09,8.61-2,15.38.82,21.23,6.91,3.63,3.78,7.28,7.54,10.9,11.32,3.89,4.05,7.92,8,11.54,12.25,1.32,1.56,1.65,4,2.42,6-1.73.62-3.44,1.27-5.19,1.83-4.23,1.35-8.78,2.07-12.64,4.11-5,2.67-6.68,8.79-3.34,12.8a30.21,30.21,0,0,0,10.07,7.32c3.53,1.7,7.63,2.22,11.5,3.18,19.48,4.82,38.91,9.78,58.45,14.32,6.61,1.54,13.48,2,20.19,2.94,2.11-5.48-.23-9.19-3.58-12.14-3.53-3.11-7.65-5.54-11.38-8.45-.89-.69-1.26-2.07-1.86-3.13,1.2.05,2.66-.33,3.57.22,3.53,2.1,7.32,4.05,10.17,6.91a47.3,47.3,0,0,1,7.31,10.57c1,1.77.06,5.06,1.3,6.07,1.42,1.17,4.28.58,6.51.73,1.24.09,2.49.16,3.74.2,4.45.12,5.25-.92,4-5.3a6.34,6.34,0,0,0-1.3-2.65c-3.65-3.88-7.28-7.81-11.17-11.43-2.36-2.19-5.28-3.77-7.77-5.84-.74-.62-.85-2-1.25-3,1.1,0,2.39-.29,3.26.18a36.24,36.24,0,0,1,5.19,3.65c8.12,6.38,17.09,12.15,17.37,24.53,3.75-.3,7.66.58,10.19-2.69s.41-6.48-1.12-9.44c-4.62-8.91-11.71-15.39-20.31-20.37-12.83-7.41-26.86-11.66-41.31-13.66C290,361.81,283,357.93,277.91,348c-6.74-13.17-15.34-25.39-23.23-38a7.88,7.88,0,0,1-1-7.32,95.32,95.32,0,0,0,3.61-15.28c1.74-12,.17-23.34-8.92-32.28-5.68-5.6-11.7-10.88-17.84-16-9.13-7.55-18.62-14.66-27.74-22.22-6.57-5.44-6.65-10.09,0-15.31,8.91-7,18-13.82,27.41-20.13,19.4-13,41.72-21.48,59.08-38.17,1.13,2.39,1.94,4.47,3.05,6.38,3.67,6.29,8.52,10.91,16.47,10,4.46-.5,8-2.73,9.85-7s-.12-7.46-3.22-10.25a18.6,18.6,0,0,1-3.18-3.15A29.3,29.3,0,0,1,309.6,134c-.07-.18,1.59-1.47,1.83-1.31,1.66,1.1,3.65,2.15,4.62,3.77,3.89,6.52,9.66,10.3,16.72,12.38a10,10,0,0,0,11.29-3.8c4.44-6.05,4.84-12.85,2.54-19.63s-6.51-9.28-13.71-9.19c-3.87,0-7.73.19-11.6.2-1.9,0-4.24-.14-3.74-2.77.16-.86,2.54-1.76,3.95-1.85,5.07-.33,10.21,0,15.23-.56a9.2,9.2,0,0,0,8.14-7.34c2.34-10.77-2-19.27-13.2-21.1C322.21,81.2,313.2,83.79,304.12,87ZM166.75,114.21c-.55,2.47-.6,5-1.68,7-1.18,2.15-.71,3.45.77,4.89,5.53,5.39,10.85,11,16.64,16.13a108.69,108.69,0,0,0,31.61,19.66c12.72,5.08,22.69-1.62,23-15.3a37.11,37.11,0,0,0-.71-9.31c-3.91-16.4-8.23-32.68-15.2-48.13C210.48,65.46,195,45.41,176.09,27.71,155.42,8.33,131,1.71,103.35,5,83.89,7.22,67.76,16.5,53.29,29.12c-8.47,7.38-15.41,16-19.75,26.46C25,76.22,29.1,95.71,39,114.64a3,3,0,0,0,2.59,1.18c13-2.21,22.06,3.16,28,14.39,1.55,2.92,3.06,3.15,5.51,1.1a20.23,20.23,0,0,0-.51-2.48,25.53,25.53,0,0,1,.58-17.59c5.65-15.09,21.42-22.15,35.1-15.43,3,1.46,5.37,4,8.16,5.86.84.56,2.42,1,3.11.64,6-3.57,11.81-7.34,17.44-10.9-3.29-9.59-6.76-18.68-9.47-28-2.13-7.29-3.36-14.84-4.82-22.3-.2-1,.58-2.2.9-3.3l1.13.36a237,237,0,0,0,21.22,59c2.78,5.41,6.35,7.66,12.22,7.66-.33-.63-.57-1.18-.9-1.68-7.75-11.7-14.51-24-18.64-37.42-3.18-10.32-5.24-21-7.47-31.61-.57-2.69-.44-6,2.61-7.64s5.53-.06,8,1.48c2,1.24,4,2.61,6,3.68,1.92,1,3.49.53,4.7-1.5,3.16-5.29,7.8-6.39,12.76-2.51a85.84,85.84,0,0,1,12.28,11.43c15.9,18.55,27.86,39.61,37.12,62.1a296,296,0,0,1,11.14,34.11c3.05,11.1-4.27,18.16-15.49,15.59a14.62,14.62,0,0,1-5.13-2.13c-8-5.69-16.26-11.13-23.75-17.46C177.41,126.21,172.32,120,166.75,114.21ZM19,211.48a63.28,63.28,0,0,0,8.71,23.34C48.31,269,97,274.62,125.42,257.45c18.89-11.43,31.18-28.1,37.71-49,5.31-17,5.25-34-1.56-50.63-.89-2.17-1.82-4.66-3.52-6-.79-.64-3.45,1.07-5.27,1.7-.59.2-1.32.2-1.76.57-.84.69-2.07,1.52-2.17,2.41-1,9.17-12.27,15.57-21.1,12.73-4.63-1.49-8.84-4.37-13.06-6.91-1.69-1-2.5-1.58-4.36,0-10.76,9.28-21.34,18.84-32.7,27.35C60.51,202.53,42.35,213.4,19,211.48Zm139.42-83.22c-.94.36-2,.71-3,1.15-5.38,2.35-10.95,2.32-16.49,1-1.39-.34-2.48-2-3.71-3a24,24,0,0,1,4.55-2.12c1.13-.28,2.46.42,3.68.37,3.59-.13,7.27,0,10.74-.76,5.26-1.17,8.74-6,8-10.21s-4.56-6.77-10.31-6.69a65.7,65.7,0,0,0-26.5,5.68c-14.31,6.44-28.62,12.9-43,19.24-19.38,8.54-38.85,16.88-58.2,25.51-8.89,4-15.46,10.42-18.68,19.84C.1,194.17,10.11,207.85,26.9,207.61c7.9-.11,15.3-2.37,22.33-5.59,22.07-10.13,40.06-26,57.68-42.22,4.4-4.06,5.6-4.41,10.36-.58,4,3.23,8.28,6,13.64,6.43,5.89.5,11.85-3,13.44-8,1-3.26-.21-4.92-3.49-5.5a11.19,11.19,0,0,1-5-2.34,42.35,42.35,0,0,1-6.4-6.78c-.92-1.22-1-3.1-1.41-4.68,1.7.61,3.73.82,5,1.92,2.06,1.75,3.44,4.27,5.42,6.14,5,4.68,12.4,5,17,1C161.61,142.08,162.82,134.72,158.41,128.26Zm6.39,200.53c-6.41-4.1-13.22-8.39-19.94-12.8-2.58-1.7-4.92-5.15-7.43-5.21-3-.07-6,2.68-9,4.21a9.41,9.41,0,0,0-1,.58c-10.64,7.24-13.2,17.55-7.15,28.69a6.1,6.1,0,0,1,1,2.38c0,.88-.29,2.27-.87,2.54a3.37,3.37,0,0,1-3-.23c-1-.81-1.41-2.38-2.39-3.28s-2.38-2-3.58-2c-16.74.29-33.45,1.2-49.43,6.77-7.9,2.75-15.13,6.88-17.92,15.65-.74,2.36-.63,5-.91,7.5,2-3,2.82-6.21,4.28-9.07,2.63-5.15,6.6-8.81,12.77-9,1,0,1.94.95,2.92,1.46-.86.68-1.66,1.86-2.58,1.95-5.39.54-8.51,3.82-10.47,8.44a39.81,39.81,0,0,0-2.09,6.79c-1.37,5.91-.57,6.89,5.62,7.39.14-.2.37-.38.41-.6a10.57,10.57,0,0,0,.19-1.86c0-9.33,4.79-15.51,12.89-19.27,1.71-.79,4-.38,6-.53.23,3.15-2.62,2.93-4.31,3.71-6.84,3.17-10.76,8.16-11,15.92-.09,3,.85,4.21,4,4.34,32.47,1.35,64.84.85,97-4.13,5.17-.8,10.33-1.73,15.42-2.91,3.36-.78,5.93-3,6.29-6.6a8.16,8.16,0,0,0-4.41-8.41,28.63,28.63,0,0,0-5.9-2.13c-3-.86-6.17-1.19-9-2.4-9.84-4.2-11.82-14.71-4.16-22.18C159.56,332.15,162.62,330.39,164.8,328.79ZM139.68,96c-5.4,3.36-10.37,6.39-15.25,9.56-.63.41-.79,1.54-1.18,2.33.93.35,2,1.17,2.77,1,6-1.61,11.88-3.42,18.12-5.27ZM260.89,268c5-3.94,6.7-13.48,3.57-18.5l-8.6,7.52C257.51,260.64,259.2,264.33,260.89,268ZM165.45,131.16c0,4.1-1,7.48.22,9.46,2.29,3.69,5.89,6.57,9.5,10.37,0-3.26,1.07-6.94-.24-9.28C172.82,138,169.14,135.11,165.45,131.16ZM169,166.27c6.43-2.6,7-5.41,2.44-10.9C166.65,160,166.47,160.67,169,166.27Zm5.85.31c-5.82,1.33-6.4,2.62-4.33,9.62C175.8,176.18,176.72,174.14,174.89,166.58Zm-8.44-9.25c4.85-5,4.93-5.7,1.23-8.84C163.53,152.9,163.53,152.9,166.45,157.33ZM171,187.79l.95.29c.94-3.12,1.87-6.24,2.86-9.54C170.3,178.29,170.32,178.21,171,187.79ZM162.4,150l1.48.43,1.74-5.85c-1.17.13-2.53-.1-3.46.43C159,146.88,161.75,148.41,162.4,150Z"/><path class="cls-1" d="M304.12,87c9.08-3.21,18.09-5.8,27.55-4.24,11.19,1.83,15.54,10.33,13.2,21.1a9.2,9.2,0,0,1-8.14,7.34c-5,.61-10.16.23-15.23.56-1.41.09-3.79,1-3.95,1.85-.5,2.63,1.84,2.77,3.74,2.77,3.87,0,7.73-.15,11.6-.2,7.2-.09,11.4,2.38,13.71,9.19S348.5,139,344.06,145a10,10,0,0,1-11.29,3.8c-7.06-2.08-12.83-5.86-16.72-12.38-1-1.62-3-2.67-4.62-3.77-.24-.16-1.9,1.13-1.83,1.31a29.3,29.3,0,0,0,2.71,5.36,18.6,18.6,0,0,0,3.18,3.15c3.1,2.79,5,6,3.22,10.25s-5.39,6.53-9.85,7c-7.95.89-12.8-3.73-16.47-10-1.11-1.91-1.92-4-3.05-6.38C272,160,249.66,168.49,230.26,181.52c-9.41,6.31-18.5,13.13-27.41,20.13-6.66,5.22-6.58,9.87,0,15.31,9.12,7.56,18.61,14.67,27.74,22.22,6.14,5.08,12.16,10.36,17.84,16,9.09,8.94,10.66,20.29,8.92,32.28a95.32,95.32,0,0,1-3.61,15.28,7.88,7.88,0,0,0,1,7.32c7.89,12.57,16.49,24.79,23.23,38,5.08,9.95,12.13,13.83,22.7,15.28,14.45,2,28.48,6.25,41.31,13.66,8.6,5,15.69,11.46,20.31,20.37,1.53,3,3.61,6.21,1.12,9.44s-6.44,2.39-10.19,2.69c-.28-12.38-9.25-18.15-17.37-24.53a36.24,36.24,0,0,0-5.19-3.65c-.87-.47-2.16-.15-3.26-.18.4,1,.51,2.38,1.25,3,2.49,2.07,5.41,3.65,7.77,5.84,3.89,3.62,7.52,7.55,11.17,11.43a6.34,6.34,0,0,1,1.3,2.65c1.25,4.38.45,5.42-4,5.3-1.25,0-2.5-.11-3.74-.2-2.23-.15-5.09.44-6.51-.73-1.24-1-.32-4.3-1.3-6.07A47.3,47.3,0,0,0,326,391.71c-2.85-2.86-6.64-4.81-10.17-6.91-.91-.55-2.37-.17-3.57-.22.6,1.06,1,2.44,1.86,3.13,3.73,2.91,7.85,5.34,11.38,8.45,3.35,2.95,5.69,6.66,3.58,12.14-6.71-.95-13.58-1.4-20.19-2.94-19.54-4.54-39-9.5-58.45-14.32-3.87-1-8-1.48-11.5-3.18a30.21,30.21,0,0,1-10.07-7.32c-3.34-4-1.7-10.13,3.34-12.8,3.86-2,8.41-2.76,12.64-4.11,1.75-.56,3.46-1.21,5.19-1.83-.77-2-1.1-4.41-2.42-6-3.62-4.27-7.65-8.2-11.54-12.25-3.62-3.78-7.27-7.54-10.9-11.32-5.85-6.09-12.62-8.87-21.23-6.91-19.15,4.35-37.34,2.27-53.24-10.09-16.44-12.8-24.31-30-23.77-50.85a6.36,6.36,0,0,1,2.48-4.43c22.59-15,35.65-36.1,40.67-62.54.27-1.41,1.62-2.65,2.54-3.91.79-1.07,2.1-1.93,2.48-3.11,1.61-5.1,3.91-10.23,4.16-15.44.29-6,3.08-9.76,7.14-13.26,1.13-1,2.42-1.76,3.56-2.73,3-2.54,5.79-2.29,9.06-.2,6.41,4.11,13.08,7.77,20.89,8.62,10.52,1.16,18.75-4.58,20.51-15.13.77-4.6.46-9.45.14-14.14-.18-2.5.3-3.87,2.58-5,6.34-3.21,12.47-6.83,18.86-9.94,8.8-4.3,13-11.86,14.61-20.9.94-5.16,3.62-8,8-10.41,7.59-4.27,14.55-2.73,21.52,1.12,3.5,1.94,6,5,5.92,9a45.35,45.35,0,0,1-1.83,13.56c-2,6.17-10.34,8.23-16.08,4.8-1.1-.65-2.73-.43-4.12-.61.64,1.31.94,3,2,3.84,7.7,5.9,20,1.41,22.85-8.46a42.8,42.8,0,0,0,1.53-10.7C316.53,95.77,311.68,90.51,304.12,87Z"/><path class="cls-1" d="M166.75,114.21c5.57,5.78,10.66,12,16.7,17.09,7.49,6.33,15.74,11.77,23.75,17.46a14.62,14.62,0,0,0,5.13,2.13c11.22,2.57,18.54-4.49,15.49-15.59a296,296,0,0,0-11.14-34.11c-9.26-22.49-21.22-43.55-37.12-62.1a85.84,85.84,0,0,0-12.28-11.43c-5-3.88-9.6-2.78-12.76,2.51-1.21,2-2.78,2.49-4.7,1.5-2.09-1.07-4-2.44-6-3.68-2.49-1.54-5.09-3.07-8-1.48s-3.18,4.95-2.61,7.64c2.23,10.6,4.29,21.29,7.47,31.61,4.13,13.42,10.89,25.72,18.64,37.42.33.5.57,1,.9,1.68-5.87,0-9.44-2.25-12.22-7.66a237,237,0,0,1-21.22-59l-1.13-.36c-.32,1.1-1.1,2.3-.9,3.3,1.46,7.46,2.69,15,4.82,22.3,2.71,9.31,6.18,18.4,9.47,28-5.63,3.56-11.47,7.33-17.44,10.9-.69.41-2.27-.08-3.11-.64-2.79-1.86-5.2-4.4-8.16-5.86-13.68-6.72-29.45.34-35.1,15.43a25.53,25.53,0,0,0-.58,17.59,20.23,20.23,0,0,1,.51,2.48c-2.45,2.05-4,1.82-5.51-1.1-6-11.23-15.06-16.6-28-14.39A3,3,0,0,1,39,114.64C29.1,95.71,25,76.22,33.54,55.58c4.34-10.5,11.28-19.08,19.75-26.46C67.76,16.5,83.89,7.22,103.35,5,131,1.71,155.42,8.33,176.09,27.71c18.88,17.7,34.39,37.75,45.08,61.44,7,15.45,11.29,31.73,15.2,48.13a37.11,37.11,0,0,1,.71,9.31c-.3,13.68-10.27,20.38-23,15.3a108.69,108.69,0,0,1-31.61-19.66c-5.79-5.11-11.11-10.74-16.64-16.13-1.48-1.44-2-2.74-.77-4.89C166.15,119.22,166.2,116.68,166.75,114.21Z"/><path class="cls-1" d="M19,211.48c23.36,1.92,41.52-8.95,58.64-21.79,11.36-8.51,21.94-18.07,32.7-27.35,1.86-1.61,2.67-1,4.36,0,4.22,2.54,8.43,5.42,13.06,6.91,8.83,2.84,20.06-3.56,21.1-12.73.1-.89,1.33-1.72,2.17-2.41.44-.37,1.17-.37,1.76-.57,1.82-.63,4.48-2.34,5.27-1.7,1.7,1.35,2.63,3.84,3.52,6,6.81,16.66,6.87,33.66,1.56,50.63-6.53,20.9-18.82,37.57-37.71,49C97,274.62,48.31,269,27.7,234.82A63.28,63.28,0,0,1,19,211.48Zm41.07,21.64a54.41,54.41,0,0,0,34.62-13.34c4.81-4.1,6.21-9.33,4.3-14.39a12.36,12.36,0,0,0-12.82-7.78,45.87,45.87,0,0,0-12.58,3.18,65.06,65.06,0,0,0-26,18.34C43.42,224,45.76,230.35,52,232A58.8,58.8,0,0,0,60.06,233.12Z"/><path class="cls-1" d="M158.41,128.26c4.41,6.46,3.2,13.82-2.94,19.14-4.63,4-12.06,3.65-17-1-2-1.87-3.36-4.39-5.42-6.14-1.28-1.1-3.31-1.31-5-1.92.44,1.58.49,3.46,1.41,4.68a42.35,42.35,0,0,0,6.4,6.78,11.19,11.19,0,0,0,5,2.34c3.28.58,4.53,2.24,3.49,5.5-1.59,5-7.55,8.54-13.44,8-5.36-.44-9.61-3.2-13.64-6.43-4.76-3.83-6-3.48-10.36.58C89.29,176.06,71.3,191.89,49.23,202c-7,3.22-14.43,5.48-22.33,5.59-16.79.24-26.8-13.44-21.35-29.37,3.22-9.42,9.79-15.88,18.68-19.84,19.35-8.63,38.82-17,58.2-25.51,14.36-6.34,28.67-12.8,43-19.24a65.7,65.7,0,0,1,26.5-5.68c5.75-.08,9.57,2.46,10.31,6.69s-2.75,9-8,10.21c-3.47.77-7.15.63-10.74.76-1.22.05-2.55-.65-3.68-.37a24,24,0,0,0-4.55,2.12c1.23,1,2.32,2.67,3.71,3,5.54,1.34,11.11,1.37,16.49-1C156.44,129,157.47,128.62,158.41,128.26Z"/><path class="cls-1" d="M164.8,328.79c-2.18,1.6-5.24,3.36-7.69,5.74-7.66,7.47-5.68,18,4.16,22.18,2.83,1.21,6,1.54,9,2.4a28.63,28.63,0,0,1,5.9,2.13,8.16,8.16,0,0,1,4.41,8.41c-.36,3.64-2.93,5.82-6.29,6.6-5.09,1.18-10.25,2.11-15.42,2.91-32.19,5-64.56,5.48-97,4.13-3.11-.13-4.05-1.33-4-4.34.24-7.76,4.16-12.75,11-15.92,1.69-.78,4.54-.56,4.31-3.71-2,.15-4.27-.26-6,.53-8.1,3.76-12.92,9.94-12.89,19.27a10.57,10.57,0,0,1-.19,1.86c0,.22-.27.4-.41.6-6.19-.5-7-1.48-5.62-7.39a39.81,39.81,0,0,1,2.09-6.79c2-4.62,5.08-7.9,10.47-8.44.92-.09,1.72-1.27,2.58-1.95-1-.51-2-1.49-2.92-1.46-6.17.16-10.14,3.82-12.77,9-1.46,2.86-2.28,6.05-4.28,9.07.28-2.51.17-5.14.91-7.5,2.79-8.77,10-12.9,17.92-15.65,16-5.57,32.69-6.48,49.43-6.77,1.2,0,2.59,1.08,3.58,2s1.37,2.47,2.39,3.28a3.37,3.37,0,0,0,3,.23c.58-.27.9-1.66.87-2.54a6.1,6.1,0,0,0-1-2.38c-6-11.14-3.49-21.45,7.15-28.69a9.41,9.41,0,0,1,1-.58c3-1.53,6-4.28,9-4.21,2.51.06,4.85,3.51,7.43,5.21C151.58,320.4,158.39,324.69,164.8,328.79Z"/><path class="cls-1" d="M139.68,96l4.46,7.58c-6.24,1.85-12.15,3.66-18.12,5.27-.78.21-1.84-.61-2.77-1,.39-.79.55-1.92,1.18-2.33C129.31,102.35,134.28,99.32,139.68,96Z"/><path class="cls-1" d="M260.89,268c-1.69-3.7-3.38-7.39-5-11l8.6-7.52C267.59,254.55,265.89,264.09,260.89,268Z"/><path class="cls-1" d="M165.45,131.16c3.69,4,7.37,6.8,9.48,10.55,1.31,2.34.24,6,.24,9.28-3.61-3.8-7.21-6.68-9.5-10.37C164.44,138.64,165.45,135.26,165.45,131.16Z"/><path class="cls-1" d="M169,166.27c-2.57-5.6-2.39-6.32,2.44-10.9C176.05,160.86,175.47,163.67,169,166.27Z"/><path class="cls-1" d="M174.89,166.58c1.83,7.56.91,9.6-4.33,9.62C168.49,169.2,169.07,167.91,174.89,166.58Z"/><path class="cls-1" d="M166.45,157.33c-2.92-4.43-2.92-4.43,1.23-8.84C171.38,151.63,171.3,152.29,166.45,157.33Z"/><path class="cls-1" d="M171,187.79c-.65-9.58-.67-9.5,3.81-9.25-1,3.3-1.92,6.42-2.86,9.54Z"/><path class="cls-1" d="M162.4,150c-.65-1.63-3.39-3.16-.24-5,.93-.53,2.29-.3,3.46-.43l-1.74,5.85Z"/><path d="M60.06,233.12A58.8,58.8,0,0,1,52,232c-6.19-1.68-8.53-8-4.39-12.9a65.06,65.06,0,0,1,26-18.34,45.87,45.87,0,0,1,12.58-3.18A12.36,12.36,0,0,1,99,205.39c1.91,5.06.51,10.29-4.3,14.39A54.41,54.41,0,0,1,60.06,233.12Z"/></g></g></svg>