<svg xmlns="http://www.w3.org/2000/svg" viewBox="0 0 336.04 393.96"><defs><style>.cls-1{fill:#383838;}.cls-2{fill:#adadad;}.cls-3{fill:#939393;}.cls-4{fill:#222;}.cls-5{fill:#c2c2c2;}.cls-6{fill:#ddd;}.cls-7{fill:#d6d6d6;}.cls-8{fill:#dcdcdc;}.cls-9{fill:#d3d3d3;}.cls-10{fill:#454545;}.cls-11{fill:#cbcbcb;}.cls-12{fill:#9b9b9b;}.cls-13{fill:#cecece;}.cls-14{fill:#a8a8a8;}.cls-15{fill:#616161;}.cls-16{fill:#cfcfcf;}.cls-17{fill:#4d4d4d;}.cls-18{fill:#2c2c2c;}.cls-19{fill:#474747;}.cls-20{fill:#3f3f3f;}.cls-21{fill:#2a2a2a;}.cls-22{fill:#d5d5d5;}.cls-23{fill:#4f4f4f;}.cls-24{fill:#313131;}.cls-25{fill:#363636;}.cls-26{fill:#c7c7c7;}.cls-27{fill:#d4d4d4;}.cls-28{fill:#bdbdbd;}.cls-29{fill:#a6a6a6;}.cls-30{fill:#606060;}.cls-31{fill:#c5c5c5;}.cls-32{fill:#414141;}.cls-33{fill:#dbdbdb;}.cls-34{fill:#c3c3c3;}.cls-35{fill:#9c9c9c;}.cls-36{fill:#d2d2d2;}.cls-37{fill:#b0b0b0;}.cls-38{fill:#666;}.cls-39{fill:#a5a5a5;}.cls-40{fill:#4a4a4a;}.cls-41{fill:#ccc;}.cls-42{fill:#585858;}.cls-43{fill:#636363;}.cls-44{fill:#9b771a;}.cls-45{fill:#987519;}.cls-46{fill:#9b761a;}.cls-47{fill:#2e2307;}.cls-48{fill:#3e3e3e;}.cls-49{fill:#944f3c;}.cls-50{fill:#231b06;}.cls-51{fill:#373737;}.cls-52{fill:#322608;}.cls-53{fill:#2d2d2d;}.cls-54{fill:#262626;}.cls-55{fill:#934f3d;}.cls-56{fill:#292929;}.cls-57{fill:#2b2106;}.cls-58{fill:#272727;}.cls-59{fill:#c9c9c9;}.cls-60{fill:#342808;}.cls-61{fill:#2a2007;}.cls-62{fill:#1e1705;}.cls-63{fill:#252525;}.cls-64{fill:#1f1804;}.cls-65{fill:#281f06;}.cls-66{fill:#312508;}.cls-67{fill:#2e2e2e;}.cls-68{fill:#302507;}.cls-69{fill:#56420e;}.cls-70{fill:#322607;}.cls-71{fill:#232323;}.cls-72{fill:#555;}.cls-73{fill:#b5b5b5;}.cls-74{fill:#2d2307;}.cls-75{fill:#c4c4c4;}.cls-76{fill:#271e06;}.cls-77{fill:#393939;}.cls-78{fill:#725c23;}.cls-79{fill:#4c4c4c;}.cls-80{fill:#513e0d;}.cls-81{fill:#343434;}.cls-82{fill:#151003;}.cls-83{fill:#acacac;}.cls-84{fill:#53400d;}.cls-85{fill:#b9b9b9;}.cls-86{fill:#261d05;}.cls-87{fill:#312608;}.cls-88{fill:#353535;}.cls-89{fill:#b2b2b2;}.cls-90{fill:#d7d7d7;}.cls-91{fill:#3d2f0a;}.cls-92{fill:#919191;}.cls-93{fill:#a9a9a9;}.cls-94{fill:#5d5d5d;}.cls-95{fill:#b7b7b7;}.cls-96{fill:#41320b;}.cls-97{fill:#705612;}.cls-98{fill:#4b4b4b;}.cls-99{fill:#afafaf;}.cls-100{fill:#6f5511;}.cls-101{fill:#494949;}.cls-102{fill:#3b3b3b;}.cls-103{fill:#999;}.cls-104{fill:#525252;}.cls-105{fill:#6c5412;}.cls-106{fill:#271510;}.cls-107{fill:#7f7f7f;}.cls-108{fill:#282828;}.cls-109{fill:#424242;}.cls-110{fill:#434343;}.cls-111{fill:#372a08;}.cls-112{fill:#9f9f9f;}.cls-113{fill:#231b05;}.cls-114{fill:#7b7b7b;}.cls-115{fill:#362909;}.cls-116{fill:#392c09;}.cls-117{fill:#1e1e1e;}.cls-118{fill:#161003;}.cls-119{fill:#bbb;}.cls-120{fill:#696969;}.cls-121{fill:#24140f;}.cls-122{fill:#575757;}.cls-123{fill:#303030;}.cls-124{fill:#3c3c3c;}.cls-125{fill:#aeaeae;}.cls-126{fill:#251c05;}.cls-127{fill:#523f0c;}.cls-128{fill:#5e5e5e;}.cls-129{fill:#b4b4b4;}.cls-130{fill:#644c10;}.cls-131{fill:#644d10;}.cls-132{fill:#5b5b5b;}.cls-133{fill:#523f0d;}.cls-134{fill:#6e6e6e;}.cls-135{fill:#5e490f;}.cls-136{fill:#4e4e4e;}.cls-137{fill:#1d1d1d;}.cls-138{fill:#878787;}.cls-139{fill:#242424;}.cls-140{fill:#1d1604;}.cls-141{fill:#503d0c;}.cls-142{fill:#130f03;}.cls-143{fill:#0f0b02;}.cls-144{fill:#111;}.cls-145{fill:#fcfcfc;}.cls-146{fill:#a47d1b;}.cls-147{fill:#654e10;}.cls-148{fill:#775c14;}.cls-149{fill:#a37d1b;}.cls-150{fill:#a27c1b;}.cls-151{fill:#a57f1c;}.cls-152{fill:#fefefe;}.cls-153{fill:#bfbfbf;}.cls-154{fill:#fdfdfd;}.cls-155{fill:#f2f2f2;}.cls-156{fill:#e0e0e0;}.cls-157{fill:#ececec;}.cls-158{fill:#a4a4a4;}.cls-159{fill:#d9d9d9;}.cls-160{fill:#efefef;}.cls-161{fill:#e1e1e1;}.cls-162{fill:#ebebeb;}.cls-163{fill:#733f30;}.cls-164{fill:#a47e1b;}.cls-165{fill:#dedede;}.cls-166{fill:#e2e2e2;}.cls-167{fill:#d8d8d8;}.cls-168{fill:#a3a3a3;}.cls-169{fill:#bcbcbc;}.cls-170{fill:#f1f1f1;}.cls-171{fill:#404040;}.cls-172{fill:#3a3a3a;}.cls-173{fill:#030303;}</style></defs><g id="圖層_2" data-name="圖層 2"><g id="圖層_1-2" data-name="圖層 1"><path class="cls-1" d="M172,392.48l1.52-1.46c1.19-.79,2.37-2.95,3.82-1,1.13,1.5-1.23,2.1-1.9,3.2a3.21,3.21,0,0,1-1,.76H171C170.66,393,171.55,392.91,172,392.48Z"/><path class="cls-2" d="M174.46,394c.68-.72,1.38-1.41,2-2.16.4-.46,1.2-.9.62-1.63s-1.42-.66-2.18-.06c-.44.35-.75.9-1.41.91.12-.83.81-1.23,1.37-1.69a1.88,1.88,0,0,1,2.68.27c.94.85.36,1.63-.28,2.34l-1.82,2Z"/><path class="cls-3" d="M78.49,394c3.8-1.8,5.36-1.8,7,0h-1a3.92,3.92,0,0,0-3.5,0Z"/><path class="cls-4" d="M81,394c1.17-.92,2.33-1.3,3.5,0Z"/><path class="cls-5" d="M172,392.48,171,394h-1A2.13,2.13,0,0,1,172,392.48Z"/><path d="M332.49,75.54l-.61.92a16.69,16.69,0,0,1-1.77,2.25,5.89,5.89,0,0,0-1.91,1.67,38.88,38.88,0,0,0-4.58,5.34,9.27,9.27,0,0,0-2.84,2.77,2.84,2.84,0,0,1-.5.48c-2.49,1.4-3.82,3.8-5.26,6.1-.93,1.48-.14,2.72.66,3.87a5.18,5.18,0,0,0,1.87,1.59,7.16,7.16,0,0,1,.95.41c.93,2.53,3.33,3.84,4.84,5.89,2.05,3.29,4.08,6.6,6.05,9.94,3.15,5.21,3.18,5.42-1.17,9.63-3.13,3-5.83,6.53-9.57,8.91A58.36,58.36,0,0,1,308,144.18c-.9.59-1.14,1.61-1.83,2.33-2.33,2.43-5.33,3.85-8.08,5.65a28.65,28.65,0,0,0-6.52,5c-.94,1.55-2.55,2.32-3.94,3.34a30.61,30.61,0,0,0-5.42,5.37c-2.92,2-5.38,4.61-8.25,6.73s-5.85,3.64-7.89,6.62c-1.49,2.17-3.75,3.76-5.73,5.51a13.54,13.54,0,0,0-5,10,10.93,10.93,0,0,1-1.53,4.17,28.6,28.6,0,0,0-2.68,6.41c-1.11,1.5-2.62,2.72-3.29,4.55-3,6-8.31,9.65-13.7,13.2a5,5,0,0,0-2,1.78c-2.76,2.76-6.65,3.1-10,4.69-4.77,2.08-9.81,2.68-14.93,3.34-4.5.59-8.94.39-13.4.57-1.29,0-2.49.16-3.37,1.23-5.2,4.69-10.32,9.46-16.22,13.29-2.58,1.67-4.17,4.37-6.45,6.36a44.19,44.19,0,0,0-4.05,3.81c-.67.63-1,1.29-.37,2.12.76.72,1.72.5,2.6.51,4,0,8,0,11.93,0a4.21,4.21,0,0,0,3.55-1.32c1-1.17,2.48-1.38,4-1.56,4.42-.52,8.29.77,12,3,16.4.17,32.79.07,49.18,0,2.95,0,5.72.84,8.6,1.14A3.11,3.11,0,0,1,258.2,265a23.08,23.08,0,0,1,.45,3.7c0,21.31-.09,42.61.07,63.91a5,5,0,0,1-2.11,4,5.47,5.47,0,0,1-2.57,1.3,21,21,0,0,1-4,.24c-17.34,0-34.68,0-52,0-1.84,0-2.27,1.42-2.67,2.8s-.7,2.92-1.91,4c-1.8,3.37-2.25,7.25-4.21,10.6a148.41,148.41,0,0,1-12.14,17.58c-2.7,3.36-6.54,5.38-10.17,7.51-2.69,1.57-6.05.28-8-2.13-3.11-3.89-4.2-8.44-4.54-13.19-.15-2.11.54-4.25.81-6.38a24.25,24.25,0,0,1,1.63-4.35,5.47,5.47,0,0,0,1.17-1.93,3.1,3.1,0,0,1,.3-.57,4.92,4.92,0,0,0,.75-1.8,3.75,3.75,0,0,1,.84-1.06c1.35-3.29,3.8-6,5.27-9.19-.17-.67,1.24-1.35,0-2-5.21,0-10.42-.24-15.63.1a5.55,5.55,0,0,0-2.45,2.39,5.77,5.77,0,0,1-4.23,3.15,8,8,0,0,0-1.41.45c-1.59.79-3.75.79-4.55,2.67a10.91,10.91,0,0,0-.27,8c.89,2.41,1.47,4.93,2.51,7.28a3.92,3.92,0,0,1,.32.65,7.27,7.27,0,0,0,2.31,4c3.08,3,6.23,5.83,10.29,7.45a13,13,0,0,1,1.83,1.87c.79,1.53,1.4,3.2,2.3,4.65,2.17,3.48,1.6,5.23-2,7.85-6.25,1.75-12.57,1.49-19,1-8-.54-15.42-3.56-23.27-4.56a4.85,4.85,0,0,1-.91-.4c-2.72-.9-5.26-2.25-7.93-3.3-4.46-1.76-9.1-3.14-13.37-5.43-1.56-.84-2.64-2.25-4.15-3.1A10.55,10.55,0,0,1,83,371.64a55.51,55.51,0,0,1-9.33-7c-1-2.07-2.12-4.1-4.14-5.4a6,6,0,0,1-1.9-2.27,7.08,7.08,0,0,1-.72-2.18c-1.52-3.52-2.36-7-.78-10.83,1.1-2.67,2.71-4.08,5.6-4.13,4.25-.07,8.42.19,12.4,2.08,1.9.9,4.3.64,6,2.3,4,2.48,8.26,4.4,12.22,6.91,2.86,2.14,3.53,1.79,4.21-1.64.5-2.55-.09-5.31,1.47-7.65a3.44,3.44,0,0,1,.31-.64c.53-.87.86-1.74,0-2.63-1.28-.63-2.63-.36-3.94-.36q-47.68,0-95.36,0c-4,0-5.74-1.16-7-4.63-.25-1.14.08-2.39-.68-3.43a7.3,7.3,0,0,1-.46-3.43q0-29,0-58c0-5.35,2.6-7.9,8-7.9q22.5,0,45,0c.75,0,1.5,0,2.25,0,1.29-.09,1.78-1,1-1.82-2.6-2.8-2.44-6-1.78-9.37.46-2.36-.69-4.24-2.27-5.81-3.15-3.15-5.19-7.1-7.8-10.63a3.37,3.37,0,0,1-.32-3.33c1.36-3.85,1.34-3.86-2.18-5.91a2.86,2.86,0,0,1-1.09-1.29,9.16,9.16,0,0,1-.54-4.37,3.73,3.73,0,0,1,1.59-2,3.81,3.81,0,0,0,2.49-2.44,5.41,5.41,0,0,1,1.71-1.69,9.41,9.41,0,0,0,3.21-2.24c3.53-3.57,7.11-7.09,10.63-10.67s7-7,10.55-10.52c1.12-1.12,1.56-2.17-.13-3.16-.2-.13-.39-.26-.57-.4C66,181.49,61.8,177.6,59.8,171.9A3.75,3.75,0,0,0,57,169.07c-2.9.62-5.78,1.49-8.75.39a24.17,24.17,0,0,1-3.18-1.26,2.47,2.47,0,0,1-.61-.45,2.92,2.92,0,0,0-1-.66c-6.57-2.64-9.26-8.68-7.18-16.11C38,144.54,42,140,47.11,136c3.64-2,7.36-2.4,11.17-.47a3.37,3.37,0,0,0,4.28-.77c2.56-2.53,4.16-5.75,6.24-8.62,1.06-1.48,1.83-3.15,3.44-4.16a3.84,3.84,0,0,0,.56-.41c1.53-1.8,2.93-3.73,4.94-5,2.19-2.7,5.69-3.57,8.2-5.83,1.83-1.52,4.07-2.2,6.23-3,3.8-2.6,8.3-3,12.59-4.16,5-1,10.06-.37,15.09-.5,1.73,0,3.08,1.13,4.6,1.73,1.85.73,3.81,1,5.69,1.64,3.23,1.88,6.25,4.09,9.45,6l.86.61c1.54.53,3.06,1.06,4.55,1.7,1.48.93,2.62.69,3.81-.68,1.06-1.2,2-2.64,3.58-3.29,1.3,0,2-1,2.83-1.81,2.4-2.23,4.41-4.86,7.17-6.71a25.72,25.72,0,0,0,4.19-4.48c3.51-4.12,7.77-7.46,11.35-11.48.63-.71,1.67-.79,2.2-1.6,1.41-1.49,3-2.85,3.81-4.84.61-1.46,2.31-1.81,3.34-2.89,5-5.22,9.19-11.09,14.28-16.2.92-1.14,2.23-2,2.74-3.43,4.7-4.44,9.31-9,13.65-13.77,3.88-4.28,7.64-8.66,11.53-12.92,3.51-2.4,5.62-6.19,9-8.8A178.47,178.47,0,0,0,254,8.25c.6-.59,1.47-.79,2-1.46a17.81,17.81,0,0,0,5-4c3.32-3.42,5.2-2.53,8.34-.08a24.69,24.69,0,0,0,4.11,3.14C277.14,9.33,281,12.67,284,17c1.44,2.08,3.73,3.47,5.44,5.42,4,4.6,9.07,8.2,12.52,13.31,1.6,2.37,3.78,4.16,5.71,6.21,1.69,3.44,5.33,4.83,7.83,7.44,5.72,5.94,12.06,11.26,17.75,17.24a9.75,9.75,0,0,1,2,3.67C336.2,72.91,334,74.06,332.49,75.54Z"/><path class="cls-6" d="M46.94,212.42l-1.5,1.51a5.46,5.46,0,0,1-2.5,2.5l-1.49,1.51A5.69,5.69,0,0,0,42,222.5l.62.93a9,9,0,0,1,2.32,1.44c1.45.89,1.85,2.2.83,3.59-1.68,2.29-.67,3.83.71,5.94a85,85,0,0,0,7.76,10.31c1.55,1.74,1.57,3.85,1.1,5.9-.69,3-.46,5.58,1.82,7.82a1.83,1.83,0,0,1,.54,2.25c-.46.86-1.34.53-2,.53q-24,0-48,0c-3.94,0-6.4,2.49-6.4,6.51q0,30,0,60a29.16,29.16,0,0,0,1.28,6.76c.45,1.87,3,3.25,5.29,3.25H106c3.12,0,3.14,0,2.48,3.1-.68,1.87-1.81,3.62-1.52,5.75a1,1,0,0,1-.77-.09c-1.26-1.19-.77-2.59-.45-3.95.66-2.85.67-2.86-2.33-2.87-5.8,0-11.61,0-17.41,0a13.91,13.91,0,0,1-5.32-.69,66.93,66.93,0,0,0,7,2.15,4,4,0,0,1,3.42,3.18c-.24.42-.62.42-1,.33a7.16,7.16,0,0,0-5.11-2.2,3.45,3.45,0,0,1-1.65-.49c-3.92-2.28-8.25-2.07-12.53-1.92a5,5,0,0,0-3.77,2.5c-.57.83-.45,2-1.3,2.61A.89.89,0,0,1,65,345c.58-2.28,1.34-4.44,4-5.4l-.31-.59H66.05C47,339,27.9,338.85,8.82,339a8.5,8.5,0,0,1-8.4-7.58A95.27,95.27,0,0,1,0,320.27c0-17.5,0-35,0-52.49C0,262.91,3,260,7.89,260q23,0,46,0c.78,0,1.86.44,2.29-.4s-.72-1.16-1.09-1.76c-1.44-2.34-2.32-4.67-.89-7.44a3.77,3.77,0,0,0-.61-4.45c-3.65-3.66-6-8.27-9.14-12.29a3.64,3.64,0,0,1,0-5c1-1.23,1.18-2-.56-3-4.23-2.35-4.73-6.7-1.19-10C52,206.89,60.89,197.79,70,188.85c1.52-1.51,1.61-2.21-.34-3.45a31.7,31.7,0,0,1-7.09-6.93.89.89,0,0,1,.64-.25c2,1.36,3.49,3.3,5.24,5a9.2,9.2,0,0,0,2.54,1.89h0c2.15,1.68,2.21,2,.42,3.8q-5.1,5.13-10.22,10.22c-3.62,3.62-7.24,7.23-10.84,10.87A11,11,0,0,1,46.94,212.42Z"/><path class="cls-6" d="M254.38,337.44c.34-.67,1.36-.05,1.63-.85,2.35-1.25,2.48-3.34,2.47-5.72-.07-20.71,0-41.42-.08-62.12,0-2.3.06-4.83-2.24-6.41a.69.69,0,0,1-.27-.82c1.93-.34,2.71.7,3.05,2.42a28.3,28.3,0,0,1,.54,5.67c0,20.39-.21,40.78.1,61.16.1,6.14-3.59,8.1-8.44,8.15-9.81.12-19.63,0-29.45,0-7,0-14,.09-21,0-2.46-.05-4.28.28-4.62,3.13-.28,2.38-2.67,3.69-3.1,6a1.29,1.29,0,0,1-.49-1.07c.22-.64.13-1.34.31-2,1.92-1,2-3,2.64-4.71.44-1.12.68-2.44,2.28-2.55q27.1,0,54.2,0C252.76,337.71,253.62,338,254.38,337.44Z"/><path class="cls-7" d="M44.92,167.63A1.55,1.55,0,0,0,45,168a.38.38,0,0,1-.08.59c-3.47-1.26-6.89-2.74-8.51-6.32-1.34-3-2.34-5.91-1.33-9.61a34.72,34.72,0,0,1,4.37-10.54,23.12,23.12,0,0,1,9.56-8,10.11,10.11,0,0,1,8.42.05c3,1.32,4.56.74,6.34-2.15,2-3.16,4.12-6.19,6.23-9.26a2.46,2.46,0,0,1,1.54-1.18.86.86,0,0,1,.18.72c-2.28,3.52-4.64,7-7,10.44-2.2,3.25-4.08,4.72-7.79,2.53-3-1.77-6.4-1-9.39.88-6,4.07-10.07,9.33-11.34,16.67C35,159.88,37.29,164.32,44,166.89A1.7,1.7,0,0,1,44.92,167.63Z"/><path class="cls-8" d="M307.38,42A14.64,14.64,0,0,1,303,37.78c-2.72-3.82-6-7-9.19-10.44-4.76-5.15-10.27-9.56-14.34-15.41-1.53-2.21-4.4-3.46-6-5.81q-.37-.35.06-.63c3.89,3.41,7.88,6.68,10.88,11,1.54,2.21,4,3.67,5.73,5.76,3.75,4.46,8.67,7.86,12,12.71,1.82,2.68,4.31,4.68,6.34,7.12A.78.78,0,0,1,307.38,42Z"/><path class="cls-9" d="M250.85,205.46a23.11,23.11,0,0,1,2.45-6.21,23.44,23.44,0,0,0,1.82-6.13c.48-2.45,1.13-5,3.25-6.92a94.94,94.94,0,0,0,8.66-8.93,25.06,25.06,0,0,1,6.66-5.07c3.12-1.86,5.31-4.71,8.28-6.66.55-.42,1.06-1,1.87-.68a62.85,62.85,0,0,1-8.55,7.42c-3,2.35-6.41,4.21-8.88,7.34a44.38,44.38,0,0,1-6,5.64,13.37,13.37,0,0,0-4.58,9.18c-.4,3.54-2.84,6.5-4,9.88-.13.39-.27.78-.41,1.17A.34.34,0,0,1,250.85,205.46Z"/><path class="cls-10" d="M111,384c3,1.62,6.53,1.43,9.74,2.42a75.93,75.93,0,0,0,15.78,2.93c6,.51,12.09.49,18-1.39a.36.36,0,0,1,.62,0c0,1.6-1.42,1-2.15,1.47a69,69,0,0,1-18.5.52c-8.18-.74-15.82-3.6-23.8-5.07-.62-.11-1.35-.16-1.69-.88A1.85,1.85,0,0,1,111,384Z"/><path class="cls-11" d="M162.5,259.92c-.18-1.82,1.5-2.35,2.39-3.42a34.35,34.35,0,0,1,2.56-2.56c1.42,0,1.85-1.54,3-2,.22,1.64-.89,2.47-2.07,3.06-1.63.81-2.69,2.2-4,3.37-.87.8-.88,1.56.43,1.58,4.73.08,9.46,0,14.19,0a2,2,0,0,0,1.09-.5c4.12-3.56,8.8-1.94,13.36-1.47a1.32,1.32,0,0,1-1.25.39c-2.56-.31-5.13-.05-7.69-.14a3.44,3.44,0,0,0-2.94,1.58c-.89,1.38-2,1.45-3.39,1.44q-6.21-.08-12.42,0A3.56,3.56,0,0,1,162.5,259.92Z"/><path class="cls-12" d="M307.38,42l1,.05c1.54,3.36,5.1,4.54,7.51,7,5.77,5.89,11.85,11.49,17.69,17.32a11.71,11.71,0,0,1,2.3,4.08c.69,1.77-.66,3.63-3.37,5.05.05-.3,0-.71.17-.9,2.95-3.1,3-5.13,0-8.08-2.72-2.66-5.32-5.42-8.24-7.9-3.86-3.28-7.28-7.07-11-10.56C311.4,46.13,308.63,44.85,307.38,42Z"/><path class="cls-13" d="M256.06,7.06c-3.18,2.47-5.72,5.63-9.1,7.92-2,1.39-3.53,3.58-5.4,5.25-1.44,1.29-3.19,2.23-4.63,3.51-2.51,2.22-4.35,5.11-7,7.16a7.34,7.34,0,0,1-1.53,1.25.48.48,0,0,1-.54-.26c.06-.15.07-.37.18-.45,4.36-3.31,7-8.52,12.07-11.07.81-.41,1.26-1.49,2-2.19,3.75-3.81,8.44-6.55,12-10.55a4.88,4.88,0,0,1,1.28-.69A.47.47,0,0,1,256.06,7.06Z"/><path class="cls-14" d="M192.41,258l1.06,0c3,2.26,6.47,2.48,10.13,2.45,14.82-.12,29.65-.07,44.47,0a28.78,28.78,0,0,1,7.82,1.14,1.88,1.88,0,0,1,.05.47,5.92,5.92,0,0,1-3.89-.16c-2.38-.78-4.76-.59-7.14-.6q-23.57,0-47.13,0A9.71,9.71,0,0,1,192.41,258Z"/><path class="cls-15" d="M139,362.48c-2.17-4.83-4.17-9.65-2.56-15.16a3.11,3.11,0,0,1,2.19-2.42c4.18-1.25,8-3,10.39-6.93a115,115,0,0,1,17.41,0c.27.92-.65,1.28-.9,2-.17.23-.34.22-.5,0,.42-1.21.15-1.75-1.29-1.72-4.16.08-8.32.06-12.48,0a3.29,3.29,0,0,0-3.13,1.7c-1.38,2.68-3.79,3.69-6.4,4.65-5.05,1.87-6.28,4.64-4.66,9.94.15.47.3.95.44,1.42C138.15,358.1,139.34,360.11,139,362.48Z"/><path class="cls-16" d="M139,362.48q-.73-3.25-1.49-6.51c1.7,1.1,1.35,3.11,1.84,4.65a16.07,16.07,0,0,0,6,8.13,71.51,71.51,0,0,0,6.46,4.5c3.92,2.35,5.21,6.72,6.6,10.75.76,2.22-2.66,5.32-5.46,5.42.45-.88,1.9-.24,2.16-1.42,2.87-2.43,2.55-5.06.63-7.91-.87-1.28-1.28-2.85-2.24-4.1l-1.52-1.51a32.54,32.54,0,0,1-9-6.31c-1.61-1.54-3.22-3.06-3.9-5.28C139,362.75,139,362.62,139,362.48Z"/><path class="cls-17" d="M189.9,234.85a4.48,4.48,0,0,1,4-1.91c5.37.12,10.77.29,16.06-.6,3.5-.59,7.24-.63,10.38-2.76a2.4,2.4,0,0,1,2.08-.58c0,1.75-1.91,1-2.59,1.92-3.63,1.57-7.54,1.65-11.36,2.29-5.19.86-10.37.72-15.56.72-1.37,0-2,1.09-3,1.61A.44.44,0,0,1,189.9,234.85Z"/><path class="cls-13" d="M204.51,57.53c-.39,1.51-1.55,2.41-2.66,3.34a1.27,1.27,0,0,1-1.35.71,32.12,32.12,0,0,1,4.62-5.93c5.4-5.72,10.91-11.33,16.36-17a19.52,19.52,0,0,0,1.32-1.78.69.69,0,0,1,.43.51,2.34,2.34,0,0,1-.71,1.79C216.5,45.28,210.81,51.7,204.51,57.53Z"/><path class="cls-10" d="M200.5,61.58l1.35-.71c-.22,1.28-1.3,1.92-2.14,2.62-4.45,3.7-6.92,9.16-11.36,12.78-3.11,2.54-5.09,6-7.92,8.7a.67.67,0,0,1-1,0Z"/><path class="cls-18" d="M111,384h-2c-2.6-1-5.2-1.93-7.79-2.92q-4.83-1.86-9.64-3.77a17.6,17.6,0,0,1-6-4.26q-.24-.18-.15-.36c0-.11.1-.17.16-.17,2,.25,2.87,2.32,4.66,3.11,2.63,1.16,5.39,2,8,3.08s5.54,2,8.12,3.32C107.75,382.83,109.51,383,111,384Z"/><path class="cls-19" d="M189.9,234.85l.08.69c-2.14,2.77-5.23,4.47-7.69,6.87-3.65,3.56-8.2,6-11.86,9.52-1,.71-1.15,2.57-3,2,3.46-4.61,8.73-7.11,12.83-11C183.31,240.07,186.68,237.54,189.9,234.85Z"/><path class="cls-20" d="M297.91,151.94c3.08-2.42,7-3.74,9.15-7.42.92-1.56,3.11-2.06,4.55-3.37,2.25-2.06,4.65-4,6.76-6.19a.83.83,0,0,1,1.1.06,62.3,62.3,0,0,1-10.64,9.21,8.28,8.28,0,0,0-1.57,1.56c-2.53,3.06-5.89,5-9.29,6.82A.4.4,0,0,1,297.91,151.94Z"/><path class="cls-21" d="M179.4,85h1a115.34,115.34,0,0,0-13.52,13.28c-1.25,1.48-2.4,3.45-4.46,4.24-.16-.12-.22-.24-.17-.36s.1-.19.15-.19c4.65-6.23,10.69-11.13,16-16.67C178.68,85.06,179.09,85.06,179.4,85Z"/><path class="cls-22" d="M250.85,205.46l.6,0c-2.62,2.35-2.85,6.07-5,8.7-.09.12-.05.39-.16.46-3.75,2.43-6.26,6.42-10.46,8.27-.47-1.28.8-1.17,1.32-1.66a68.52,68.52,0,0,1,7.68-6.73c1.51-1,1.84-3.27,2.88-4.86C248,207.67,249.48,206.62,250.85,205.46Z"/><path class="cls-23" d="M130.44,107a47.1,47.1,0,0,0-22.58-3.61c-1.16.1-2.14,1-3.36.59-.22-1.32,1.22-.35,1.46-1h0a104.28,104.28,0,0,1,15.51,0c3.23,1.68,7,1.87,10.11,3.93A.8.8,0,0,1,130.44,107Z"/><path class="cls-24" d="M319.47,135l-1.09-.06c4.49-3,7.78-7.2,11.58-10.9a3.41,3.41,0,0,0,.27-4.91c-.5-.66-.89-1.4-1.33-2.1a1,1,0,0,1-.1-1c1.75.8,2.11,2.65,3.07,4.06a4.62,4.62,0,0,1-1.3,4.55c-3.25,3.41-6.63,6.68-10,10C320.33,134.85,319.85,134.88,319.47,135Z"/><path class="cls-9" d="M256.06,7.06,255.34,7c2.59-1.65,4.58-4,6.89-5.93,2.07-1.77,4.63-1.19,7.36,1.38a22.46,22.46,0,0,0,3.86,3.09l-.06.63c-1.66-.35-2.57-1.71-3.74-2.73-3.34-2.94-5.91-3.31-8.94.08C259.4,4.93,258.08,6.47,256.06,7.06Z"/><path class="cls-25" d="M247.72,209.67a10.71,10.71,0,0,1-4.5,6.53,80.49,80.49,0,0,0-7.38,6.72,6.6,6.6,0,0,0-2.91,1.53.64.64,0,0,1-1,.09c.47-1.61,2.2-1.61,3.2-2.53,4.19-3.81,9.52-6.5,11.88-12.11C247.12,209.76,247.49,209.74,247.72,209.67Z"/><path class="cls-26" d="M185.06,364.07c-2.86,3.38-4.89,7.38-8,10.56A14.54,14.54,0,0,1,172.5,378a1,1,0,0,1-1.06.06c-.27-.83.42-.93.91-1.19a19.93,19.93,0,0,0,6-5.63,70.56,70.56,0,0,0,4.37-6.2c.47-.74,1.08-1.72,2.28-1.66A.57.57,0,0,1,185.06,364.07Z"/><path class="cls-27" d="M185.06,364.07l-.09-.59c-.54-2,1.18-3.16,2-4.52,2.08-3.47,4.25-6.84,4.88-10.95.08-.53.28-1.17,1.08-1.1,0,.38,0,.75.08,1.13C191.94,354.17,188.46,359.1,185.06,364.07Z"/><path class="cls-28" d="M155.4,374c-2.54-6.55-1.89-13,.51-19.42a2.29,2.29,0,0,1,1.14-1.56c.33,2.2-1.21,3.94-1.46,6-1.1,4.43-1.28,8.83.41,13.18a2.43,2.43,0,0,1,.12,1.7A.52.52,0,0,1,155.4,374Z"/><path class="cls-11" d="M318.25,101.07l-.8-.09c-.75-.39-1.13-1.16-1.74-1.72-1.54-1.38-1.49-3-.47-4.87a16.53,16.53,0,0,1,5.22-5.86h0c.49-.75,1-1.55,1.91-1.8A.9.9,0,0,1,323,87c-1.78,2.51-4.43,4.2-6.23,6.74-1.5,2.12-1.75,3.81.52,5.47A14.89,14.89,0,0,1,319,101,.43.43,0,0,1,318.25,101.07Z"/><path class="cls-29" d="M106,103c-.21.74-1.18.42-1.46,1-4.3.95-8.58,1.91-12.5,4a.55.55,0,0,1-.17-.64C96.13,104.61,101.08,103.89,106,103Z"/><path class="cls-30" d="M162.43,101.94c0,.18,0,.37,0,.55-2.76,2.12-5,4.82-7.5,7.19-.7.65-1.26,1.61-2.48,1.32-.17-.11-.23-.22-.17-.33s.11-.18.17-.18c2.91-1.94,5-4.77,7.55-7.08C160.72,102.78,161.21,101.74,162.43,101.94Z"/><path class="cls-31" d="M232,224.54l1-.09a11.09,11.09,0,0,1-6.74,4c-2.32.36-3.9,2.44-6.31,2.47.45-1.21,2.14-.73,2.59-1.93C225.68,227.59,229.31,227.1,232,224.54Z"/><path class="cls-32" d="M283.84,164.86l-1.87.68c2.37-3.71,6.43-5.55,9.45-8.55a.42.42,0,0,1,.7.09c-1.41,2.46-4,3.55-6.08,5.26C285.16,163.07,284,163.55,283.84,164.86Z"/><path class="cls-5" d="M331.87,120.07c-1.4-1.06-1.83-2.83-2.94-4.09a61.2,61.2,0,0,1-5.27-8.57.67.67,0,0,1,.38-.54c2.48,2.67,4,6,5.79,9.08C330.59,117.24,332,118.32,331.87,120.07Z"/><path class="cls-33" d="M171.39,377.93l1.11.07a28.41,28.41,0,0,1-5.83,4c-2.24,1.1-5.84.54-7.16-1.08a1.45,1.45,0,0,1,.65-.31c3.71,1.63,6.81.17,9.78-1.94C170.39,378.37,170.7,377.78,171.39,377.93Z"/><path class="cls-34" d="M44.92,168.58,45,168a5,5,0,0,1,3,1c3.08,1.41,6.08.41,9.1-.28.55,0,1,.06,1.16.73a.63.63,0,0,1-.34.63c-1.13-.65-2.26-.11-3.31.13A12.85,12.85,0,0,1,44.92,168.58Z"/><path class="cls-35" d="M73.93,364.49a98.81,98.81,0,0,0,9.12,6.91.43.43,0,0,1-.1.61c-3.27-1.31-5.53-4.08-8.45-5.92-.69-.44-1.55-1-1.48-2.13C73.58,363.68,73.71,364.16,73.93,364.49Z"/><path class="cls-36" d="M65,345l.63.05a17.41,17.41,0,0,0,1.64,10c-.07.65.34,1.37-.23,2l-2.67-6.82C63.6,348.3,64.58,346.66,65,345Z"/><path class="cls-20" d="M165,340h.5c-1.12,3.6-3.82,6.31-5.42,9.63a.53.53,0,0,1-.16-.81C161,345.5,163.28,342.91,165,340Z"/><path class="cls-37" d="M86,111c-1.65,1.93-4.15,2.6-6.12,4a7.13,7.13,0,0,0-2,1.82c-.26.5-.76.34-1.17.41a.57.57,0,0,1-.41-.46,88,88,0,0,1,8.56-5.92A1,1,0,0,1,86,111Z"/><path class="cls-25" d="M130.44,107l1.14-.09a30.74,30.74,0,0,1,8,5.49c-2.25-.09-3.41-2.09-5.2-3C133,108.76,131.75,107.85,130.44,107Z"/><path class="cls-29" d="M121.47,103,106,103c.54-.72,1.33-.57,2.05-.58q5.71,0,11.42,0C120.17,102.39,121,102.29,121.47,103Z"/><path class="cls-38" d="M73.93,364.49,73,364a22.71,22.71,0,0,0-5-5.48A1.23,1.23,0,0,1,68,357c1.58,1.73,3.2,3.42,4.71,5.21A3.34,3.34,0,0,1,73.93,364.49Z"/><path class="cls-34" d="M63.14,178.41l-.62.06c-2.32-2.36-3.14-5.54-4.63-8.36l.26-.28c1.27-.21,1.72,1,1.81,1.63.35,2.22,1.65,3.86,2.85,5.6A1.35,1.35,0,0,1,63.14,178.41Z"/><path class="cls-39" d="M152.47,110.49V111a12,12,0,0,0-3.29,3.34c-1.3,1.59-2.58,1.87-4.21.66a.35.35,0,0,1,.08-.56c1.58.76,2.71.21,3.87-1S150.77,110.84,152.47,110.49Z"/><path class="cls-40" d="M159.9,348.8l.15.81-.57.89c-.42.61-.47,1.42-1,2h0a10.72,10.72,0,0,1-1,2l-1.54,4.47c-.21.24-.41.23-.59-.05q.85-2.92,1.7-5.86C158.06,351.66,158.43,349.86,159.9,348.8Z"/><path class="cls-35" d="M323,87,322.4,87c-.29-.9.65-1,1-1.51A35.74,35.74,0,0,1,328,80.1a.7.7,0,0,1,.72-.37.46.46,0,0,1,.33.41C326.67,82.13,325.15,84.89,323,87Z"/><path class="cls-20" d="M292.12,157.08l-.7-.09c1.61-2.4,4.1-3.65,6.49-5.05l.06.67Z"/><path class="cls-41" d="M86,111l-1.11-.1a19,19,0,0,1,6.92-3.53c0,.21.11.43.17.64Z"/><path class="cls-11" d="M160.1,380.9l-.59,0c-1.29-2.36-3.31-4.28-4.11-6.93l.54,0C157.51,376.17,159.77,378,160.1,380.9Z"/><path class="cls-5" d="M318.25,101.07,319,101c1.06,2.5,3.46,3.85,5.07,5.88l-.22.24c-.34.16-.65.19-.84-.22C321.53,104.85,319.11,103.59,318.25,101.07Z"/><path class="cls-13" d="M222.8,36.88c1.12-2.22,3.26-3.41,5-5l.27.24a1.46,1.46,0,0,1-1,1.81c-1.61.76-2.32,2.62-4,3.18Z"/><path class="cls-37" d="M71.54,122.08v-.52c2.09-1.08,2.5-3.87,4.81-4.73l.25.3a55.18,55.18,0,0,1-3.71,4.79l0,0C72.52,122.44,72,122.29,71.54,122.08Z"/><path class="cls-35" d="M329.86,78.46a4.35,4.35,0,0,1,2-2A4.36,4.36,0,0,1,329,80.14l-.24-.27C328.75,79.09,329.53,78.94,329.86,78.46Z"/><path class="cls-42" d="M145.05,114.44,145,115c-1.49-.68-3.35-.51-4.52-2C142.23,112.71,143.58,113.75,145.05,114.44Z"/><path class="cls-14" d="M68,357l0,1.53c-.32-.51-.64-1-1-1.52L67,355c.17-.31.33-.31.49,0Z"/><path class="cls-43" d="M83,372l.1-.61,2.4,1.11c0,.18,0,.36,0,.53A3.63,3.63,0,0,1,83,372Z"/><path class="cls-44" d="M209.94,64c5.61-5.67,10.91-11.64,16.52-17.32,4.9-5,10-9.78,14.45-15.18,2.16-.92,3.07-3,4.51-4.66a2.46,2.46,0,0,0,.39-.51,7.63,7.63,0,0,0,.81-2,1.7,1.7,0,0,1,.66-.67c.56-.28,1.16-.47,1.72-.75.16-.13.33-.24.5-.36.63-.45.83-1.2,1.27-1.78.84-.93,2.14-1.21,3-2.12,1.66-.81,2.71-2.32,4-3.59s2.6-2.73,3.89-4.07c2.63-2.74,4.45-2.6,8.07.1a25,25,0,0,1,6.72,6.84,25.31,25.31,0,0,0,3.79,4.16c1.39,1.37,1.36,2.87.06,4.34a10,10,0,0,0-1.8,2.05c-.5,1-1,2.08,0,2.92s2.18.29,3-.71a8.93,8.93,0,0,1,1.34-1.78c2.62-1.57,2.65-1.6,4.8.61,2.72,2.8,4.71,6.26,7.76,8.74,3.27,2.67,6.06,5.84,9.25,8.57,1.14,1,2.25,2,3.31,3,1.44,1.44,1.52,3-.1,4.21s-2.23,2.88-3.69,4a1.73,1.73,0,0,0-.55,2.24c.4.82,1.22.73,2,.74,1.84,0,3.36-.3,4.23-2.33.57-1.33,1.64-2.61,3.54-1.87a8.11,8.11,0,0,1,3.44,2.68,33.62,33.62,0,0,0,6.94,6.74c1.38.94,2.32,2.35,3.54,3.48,1,.92.7,2-.17,2.85-1.5,1.55-3,3.13-4.59,4.56-3.68,2.48-6.26,6.06-8.79,9.53-3,4.14-6.49,2.63-8.74-.43a13.4,13.4,0,0,0-1.89-2.28,51.81,51.81,0,0,1-8.56-9.29c-3.95-5.69-9-10.3-13.44-15.5-1.93-2.27-3.94-4.46-5.89-6.71-1.88-2.41-4.49-2.44-6.91.13a13,13,0,0,1-2.64,2.15,45.3,45.3,0,0,0-8.26,7.34c-2.57,2.66-5.54,5-8.36,7.39-3.84,3.28-7.48,6.74-11.19,10.16-4.13,3.8-8.63,7.2-12.65,11.17-2.35,2.33-5.17,4.15-7.44,6.58a2.84,2.84,0,0,1-3.1.9c-3.84-.93-7.67-2.19-11.69-1.74-4.63.51-9.43.34-13.44,3.47-1.46,1.14-3.17.55-4.64-.34-3.87-2.34-8.29-.18-8.39,4.28a6.26,6.26,0,0,1-2.33,5.14,43,43,0,0,0-4.1,4c-2.51,1.45-4.76,3.36-7.62,4.18-2.45.75-4.93,1.36-7.42,1.94a1,1,0,0,1-.7-.22,1.59,1.59,0,0,1,.27-1.73c1.91-1.85,3.75-3.79,5.7-5.6,2.34-.53,3.43-2.65,5.07-4.06a20,20,0,0,0,1.92-1.88A14.18,14.18,0,0,0,172,101a5,5,0,0,1,1.28-1.51c3.39-2.56,6.17-5.74,9.19-8.69,3.44-3.35,6.86-6.73,10.29-10.1,2.36-2.32,4.91-4.48,6.77-7.28.82-1.24,2.63-1.48,3.24-3C205.27,68.4,207.46,66,209.94,64Z"/><path class="cls-44" d="M114.5,200.47l.42.09c6.13,2.4,10.21,7.55,15.19,11.48,1.33,1.06,1.85,3.12,3.94,3.37a25.44,25.44,0,0,0,1.18,2.33c1.86,4.68.74,8.56-4.46,8.25-1.26-.08-1.72.8-2.19,1.7a2.53,2.53,0,0,0-.18,3.13c.38,1.8-.36,2.77-2,3.76-5.92,3.64-11.74,7.52-16.66,12.43-3.55,3.55-7.76,6.68-9.57,11.75A3.25,3.25,0,0,1,96.53,261a40.71,40.71,0,0,0-5.74,0,6.22,6.22,0,0,1-6.35-3.93,15.21,15.21,0,0,0-5.39-6.23c-1.47-1.1-2.59-2.56-4.06-3.64-2.61-3.42-6.53-3.45-10.26-4a3.46,3.46,0,0,0-1.9.44c-2.2,1-3.27.82-4.57-1.22-1.59-2.49-3.68-4.59-5.2-7.13-1.05-1.76-1.23-3,.37-4.57,2.16-2.08,4.6-3.8,6.87-5.72,7.55-6.38,15.67-12,23.07-18.61A21.79,21.79,0,0,1,86.51,204h0a84.94,84.94,0,0,0,7.5-6c1.48-2.79,4.06-2,6.4-1.95,3.27,0,6.21,1.49,9.19,2.5C111.21,199.11,112.83,199.9,114.5,200.47Z"/><path class="cls-45" d="M45,313.91c-11.58,0-23.15-.07-34.72,0-2.39,0-3.23-.75-3.21-3.17.09-13.07,0-26.15,0-39.22,0-3.29,1.21-4.47,4.54-4.47H128.33c2.95,0,3,.46,2.52,3.43a40.28,40.28,0,0,0-.94,9.37c.07,1,.23,2-.91,2.63a6.68,6.68,0,0,1-4.1-.09c0-.17.07-.44.15-.46,3.28-.71,3.21-3.23,3.25-5.78a25.58,25.58,0,0,1,.49-4.46c.43-2.16-.46-2.49-2.37-2.48q-55.11.09-110.22,0c-1.25,0-2.5,0-3.75,0-3-.08-3.13,0-3.14,3q0,16.38,0,32.75c0,2.13-1,4.8.54,6.26s4,.42,6,.43c9.09.06,18.17,0,27.25,0,.66,0,1.33,0,2,0,2,.06,4,.21,4.76,2.41A4.75,4.75,0,0,1,48,319.82a9.08,9.08,0,0,1-3.7.35H12.05c-2.84,0-2.84,0-2.84,2.91,0,1.42,0,2.84,0,4.25,0,1.7.8,2.43,2.44,2.42H245.79a19.21,19.21,0,0,1,4.48.2,1.63,1.63,0,0,1,.78.59,1.71,1.71,0,0,1-1.82,1.38c-.75.05-1.5,0-2.25,0H12.83c-.67,0-1.34,0-2,0A3.67,3.67,0,0,1,7,328.15c-.1-2.33,0-4.66,0-7-.07-2.08.86-2.72,2.87-2.71,11.66.05,23.32,0,35,0,1.36,0,2.63,0,3.34-1.54.88-1.94.49-2.75-1.69-2.95A8.23,8.23,0,0,1,45,313.91Z"/><path class="cls-46" d="M169.72,267.07c3.33,0,6.66.16,10,0,4-.23,5.39,2.09,6.64,4.56,1.08,2.12.76,4.55.67,6.86-.06,1.57-1.64,2-2.54,2.87a52.4,52.4,0,0,0-4.54,4.16c-.47.55-1,.47-1.57.47-5.65,0-11.3-.07-17,0-2.15,0-3.08-.87-2.93-3,.33-4.59-.78-9-1.78-13.41-.49-2.16.31-2.5,2.06-2.48C162.41,267.09,166.06,267.07,169.72,267.07Z"/><path class="cls-47" d="M45,313.91c1.21-.55,2.41-.73,3.47.31.78.76.56,1.61.17,2.53A3.35,3.35,0,0,1,45.17,319c-11.4-.05-22.81,0-34.22,0-3.44,0-3.44,0-3.44,3.56,0,1.83,0,3.66,0,5.49,0,2.46,1,3.39,3.53,3.44h2.75q116.92,0,233.86,0c1.18,0,2.56.46,3.39-.93.18-1.82.21-3.64.21-5.47q0-26.44,0-52.89c0-3.64-.32-3.95-4-4H208.05c-3.43,0-3.35.23-3.12,3.54a12.87,12.87,0,0,0,4.5,9.34,6.41,6.41,0,0,1,2,5.21,1.42,1.42,0,0,1-.5.78l-.46-.57a10.1,10.1,0,0,1-1-2,3.13,3.13,0,0,0-1.58-2.94c-3.19-1.93-4.3-4.87-4.41-8.38a8.12,8.12,0,0,0-.2-1.47c-.86-3.95.13-5.18,4.23-5.18h35.24c2,0,4,0,6,0,2.84.07,4.22,1.51,4.22,4.35q0,28.38,0,56.74c0,3.32-1.53,4.86-4.86,4.86H11.91c-3.71,0-5.36-1.63-5.38-5.28,0-2,0-4,0-6,0-2.25.89-3.25,3.31-3.23,11.58.09,23.16,0,34.74,0a10.13,10.13,0,0,0,2-.05c1.3-.27,1.62-1.46,1.69-2.47s-.94-1-1.69-1C46,314.44,45.37,314.54,45,313.91Z"/><path class="cls-46" d="M59.48,211c1.21-.67,1.71-1.94,2.53-2.95,2.5-.89,3.32-3.6,5.37-5l.51-.42a7.2,7.2,0,0,0,2.1-2c2.86-2.88,5.67-5.82,8.65-8.59a2.79,2.79,0,0,1,3.51-.69c.95.47,2,.83,2.92,1.3,2.2,1.1,2.33,1.66.29,3.17-4.7,3.46-9.08,7.32-13.82,10.76-3.75,2.73-8,5-11,8.78-2.52,0-3.28,2.53-5.06,3.6-.45.27-.66.93-1.37.85-.48,0-1,.08-1.29-.48s.07-.77.3-1.12A29.77,29.77,0,0,1,59.48,211Z"/><path class="cls-48" d="M107.92,341.45c.55-3.39.55-3.39-3.1-3.39H8.4c-4.24,0-6.12-1.94-6.94-6.06-.75-3.81-.56-7.6-.57-11.41q-.06-26.35,0-52.71c0-4.46,2.59-7.07,7-7.07q23.61,0,47.22,0c.79,0,1.87.42,2.31-.42s-.38-1.68-1-2.31c-2-2-2.24-4.44-1.56-6.95a6.92,6.92,0,0,0-2-7.46c-3.45-3.28-5.37-7.72-8.29-11.41-.8-1-.28-1.94.31-2.74,1.64-2.24,1.34-3.9-1.26-5.08-.37-.17-1-.32-.95-1,3.71.76,4.82,2.68,3.16,5.89-.87,1.68-.44,2.76.55,4.26a113.85,113.85,0,0,0,8.77,11.72,5.51,5.51,0,0,1,.78,5.25c-.77,2.85-.67,5.38,1.56,7.59.68.69,1.44,1.59.86,2.65s-1.63.66-2.52.66h-48a6.09,6.09,0,0,0-6.29,6.18q0,30,0,60c0,.8-.25,1.69.5,2.34.62.93-.13,2.08.49,3,1,3.27,2.56,4.47,5.84,4.47q49,0,98,0c1.19,0,2.84-.63,3.1,1.48-.32.84-.29,1.82-1,2.52h0C108.29,341.74,108.1,341.74,107.92,341.45Z"/><path class="cls-49" d="M106.87,290c2.33,0,4.65-.08,7,0,1.41.07,2.6.11,1.38,2.35-4.77,8.72-2.41,6.78-12,7a11.09,11.09,0,0,0-1.73.1c-.86.15-1.82.93-2.5-.05-.52-.73,0-1.64.45-2.31,1.23-1.81,0-3.4-.52-4.95-.66-2,0-2.33,1.77-2.25C102.72,290.09,104.8,290,106.87,290Z"/><path class="cls-50" d="M122.48,322c5.32,5.32,11.71,3.68,18,2.74a4.19,4.19,0,0,1,2.19-.07c5.44,2.08,10-.19,14.36-3,1.13-.73,2.07-1.66,3.53-1.36a1.27,1.27,0,0,0,1.15-.27c2.73-2.11,5.54-4.11,7.06-7.4a2,2,0,0,0,0-1.78c-.72-2-1.24-4.11-1.81-6.19s.1-3.12,2.22-3.84a27.67,27.67,0,0,1,10.81-1c3.16.21,7.13,1,9,4.69,1,2,.12,3.18-1.61,3.95-1.91.85-4.58,4.67-4.37,6.86.27,2.74,1.31,5.08,4.15,6.21a25.5,25.5,0,0,0,15.24,1.22c1-.22,2.22.2,3.07-.72.92-.62,2.07.14,3-.49l1-.54a.43.43,0,0,1,.67.11c.19,1.64-1.12,2-2.19,2.17-2.08.25-4,.92-6.08,1.31a28.13,28.13,0,0,1-14.23-1.21c-3.74-1.22-6.07-4-6-7.74,0-3.32,1.14-6.72,4.74-8.41a1.81,1.81,0,0,0,0-3.45c-2.72-1.15-5.25-3.21-8.64-2.24-2,.56-4.16-.06-6.21.37-2.81.6-3.34,1.47-2.56,4.21.21.72.51,1.41.76,2.11,1.31,3.73.53,6.52-2.39,9.16a20.78,20.78,0,0,1-8,4.82c-3,.93-5.48,3.39-8.74,4.06-2.69.56-5.38,1.18-8.09.12a1.24,1.24,0,0,0-.73-.15c-3.31,1.18-6.8.06-10.11.75s-6-.65-8.51-2.46C122.68,323.7,121.78,323,122.48,322Z"/><path class="cls-51" d="M197,261c17.14,0,34.27,0,51.41,0a59.7,59.7,0,0,1,7.57,1c3.07.79,2.82,3.72,2.83,5.65.19,21.65.14,43.29.09,64.94,0,1.83-.44,3.71-2.85,4,1.95-1.74,2-3.95,2-6.41q-.15-30.6,0-61.19a19.46,19.46,0,0,0-.62-4.66c-.48-2-2.4-1.69-3.88-1.88-17.3-2.17-34.68-.41-52-1-1.5-.05-3,0-4.49-.05-.19-.1-.25-.2-.2-.31S196.9,261,197,261Z"/><path class="cls-52" d="M169.91,113a18.15,18.15,0,0,1,3.05-3.21c1.89-1.51,3.18-3.18,3.08-6.06-.19-4.93,6-6.47,8.92-4.44a4,4,0,0,0,5.24-.08,9.59,9.59,0,0,1,7-2.19c1.72.16,3.12-.92,4.83-1,4.22-.2,8.21.83,12.22,1.76a3.37,3.37,0,0,0,3.52-1c4.63-4.27,9.32-8.5,14.08-12.59,6.9-5.93,13.26-12.46,20.38-18.09,4.41-3.49,7.73-8.16,12.54-11.14,1.75-1.09,3.16-2.55,4.78-3.78a3.94,3.94,0,0,1,6,1.32c-.18.24-.37.23-.57,0-2-1.93-3.4-2.1-5.34-.36a38.73,38.73,0,0,1-4.65,3.63c-4.87,3.16-8.33,7.9-12.87,11.45A106.93,106.93,0,0,0,240,77.94c-3.71,3.93-8.3,6.8-12,10.75-3.27,3.53-7.36,6.17-10.71,9.64-1.53,1.58-3.37.24-4.89-.2-4.39-1.28-8.75-1.2-13.25-.84a21.47,21.47,0,0,0-10,3.3c-1.6,1-3.2,0-4.63-.75-3.62-2-7.44-.12-7.5,4a6.81,6.81,0,0,1-2.88,5.83c-1.5,1.16-2.54,2.86-4.2,3.87-.16-.11-.22-.23-.18-.35S169.86,113,169.91,113Z"/><path class="cls-53" d="M139.55,317.08c-.83,2.17-2,4.07-4.53,4.39-3.67.46-7-.14-9.2-3.5-1.2-1.84-.25-5.84,1.71-7.2a20,20,0,0,0,2.8-2.46c.45-.43,1.25-.85.89-1.61a2,2,0,0,0-2.07-1.15c-1.93.44-4,.1-5.81,1.11-2.08,1.19-3.81,1.21-5.57-.62-2.35-2.45-3-4.34-1.91-6.83a5.91,5.91,0,0,1,3-3.46,8.76,8.76,0,0,0,2.5-2c2.75-2.66,5.8-3.08,9.05-1.25,3.56,2,4.94,1.18,5-2.83.05-2-.6-4.16.78-6.06.35-.47.06-1.08-.19-1.65a9.76,9.76,0,0,1-.11-7.21c.1-.31.46-.72.36-.88-1.8-3.07.66-6,.16-9.13-.36-2.14-.85-3.29-3.31-3.26-8.74.09-17.48,0-26.21,0a.58.58,0,0,1,.28-.8,4.89,4.89,0,0,1,2.42-.36q11.91,0,23.81,0a5.13,5.13,0,0,1,2.65.46c1.4.89,1.47,2.31,1.47,3.74,0,4.78-.8,9.57-.48,14.3.25,3.63-.14,7.21-.07,10.82.11,4.79-2.75,6.46-6.93,4.29-3.58-1.85-5.07-1.72-8,1.13-1.47,1.45-3.57,2.12-4.63,4.08-.91,1.68-1.23,3.24.14,4.82s3,2.42,5.07,1.44a17.37,17.37,0,0,1,5.54-1.26,3.54,3.54,0,0,1,3.84,1.69c.9,1.52,0,2.68-1,3.73-.64.66-1.3,1.3-1.89,2s-1.23,1.12-1.8,1.73a4.51,4.51,0,0,0,.11,4.57c1.25,1,2.32,2.3,4.1,2.5,2.63.31,4.87-.15,6.32-2.66.34-.6.65-1.39,1.62-1.25A.53.53,0,0,1,139.55,317.08Z"/><path class="cls-54" d="M201.41,299.92a12.77,12.77,0,0,0-.67,8.37c.56,2.27,1.52,3.31,3.88,3.22a3,3,0,0,1,3.16,2.64,2.83,2.83,0,0,1-2.55,3.38,16.35,16.35,0,0,0-3.85,1c-2.26.89-4.45.26-6.67,0-2.45-.3-2.86-2.54-3.81-4.2s.68-2.38,1.54-2.92a5.15,5.15,0,0,0,2.23-6.69c-1-2.72-2.78-5.06-6.27-5.24a5.56,5.56,0,0,1-4.77-7.41c.82-2.17,1.64-4.38,3.53-6.16,5.65-5.34,6-12.75,1.31-18.9a1.46,1.46,0,0,1,.75-.36,1.51,1.51,0,0,1,1.16.44,9.44,9.44,0,0,1,2.26,6.59c-.07,2.54.13,5.08-.12,7.61a3.23,3.23,0,0,1-.25.74,26.27,26.27,0,0,1-4.29,5.12,9.9,9.9,0,0,0-2.88,6.44c-.15,2.73.82,3.93,3.51,4.52,1,.22,2,.23,2.95.44a4.47,4.47,0,0,1,2.92,2.34c.94,2.07,2.57,3.87,2.13,6.46-.3,1.8-.74,3.38-2.43,4.38-1,.62-1.93,1.46-1.5,2.83a3.59,3.59,0,0,0,2.89,2.76c3.23.56,6.25-.3,9.25-1.32.72-.24,1.38-.73,1.24-1.64s-.89-1.11-1.67-1.19a5.31,5.31,0,0,1-5-4.08c-1-3.3-1.75-6.47,1.33-9.15A.82.82,0,0,1,201.41,299.92Z"/><path class="cls-55" d="M167.66,296c-3.35-.29-6,.72-7.78-1.95-.46-.71-1-1.4-.72-2.28s1.29-.88,2.11-.88c4.49,0,9,0,13.47,0,1.33,0,3.08.14,3,1.81s-1.55,1.74-3.11,2C172,295.19,169.5,296.49,167.66,296Z"/><path class="cls-56" d="M139.55,317.08l-.13-.73c-.45-1.44.52-2,1.6-2.29a2.62,2.62,0,0,1,2.9.95,7.77,7.77,0,0,1,.86,1.79c.87,1.83,2.25,2.85,4.39,2.49a4.33,4.33,0,0,0,3.57-3.39c1.09-3.88,2.13-4.3,5.75-2.15a3,3,0,0,0,4.78-2.36,7,7,0,0,0-1.9-6.19c-1.43-1.22-3.26-1.61-4.9-2.39a3.2,3.2,0,0,1-2.16-3.27c.34-5.91-1.19-11.66-1.85-17.45-.52-4.61-1.09-9.29-1.68-13.94-.23-1.8-1.8-3.25-1.3-5.22a3.79,3.79,0,0,1,3-2.53,9,9,0,0,0,2.2-1,.74.74,0,0,1,.73.09c-.12,1.45-1,1.84-2.35,2.07-2.4.42-2.91,1.68-1.73,3.79a8.2,8.2,0,0,1,1.12,3.51c.29,4.31.15,8.61,1.77,12.85,1,2.58,0,5.74.71,8.61s.56,6.1.53,9.17c0,1.16.44,1.64,1.59,2.09,2.64,1,5.58,1.72,6.95,4.74,1.2,2.66,1.6,5.2-.26,7.74-1.71,2.33-3.93,2.66-6.19.84-.66-.53-1.08-1.58-2.27-1.06-1,.45-.77,1.33-.89,2.13-.28,2.08-3.2,4.85-5.23,5-2.91.27-4.73-1-5.74-4C142.73,314.86,141.51,314.88,139.55,317.08Z"/><path class="cls-57" d="M128,228c.52-1.26,1.06-2.35,2.74-2.48,4.56-.35,5-.9,4.69-5.58a15.71,15.71,0,0,0-.52-2.41.33.33,0,0,1,.57,0l.5.5a15.78,15.78,0,0,1,0,6,4.82,4.82,0,0,1-2.5,2c-1.11.59-2.4-.17-3.51.46a4.51,4.51,0,0,0-1.06,4.33c.41,1.72,0,2.94-1.89,4a89.07,89.07,0,0,0-17.35,12.8c-3.8,3.67-7.58,7.43-9.89,12.35a2.48,2.48,0,0,1-1.31,1.43c-5.53,2.06-12.15-.64-15.17-5.78a18.6,18.6,0,0,0-4.73-4.67A32.88,32.88,0,0,1,74.41,247c.18-.27.38-.29.61-.06,3.33,2.95,7.51,5.06,9.45,9.41,1.24,2.78,3.3,4,6.43,4.23,4.74.28,8.37-.17,11.07-5.21,3.32-6.18,9.26-10.3,14.74-14.65,3.27-2.59,6.93-4.54,10.3-6.94,1.37-1,1-2.13,1-3.32A2.33,2.33,0,0,1,128,228Z"/><path class="cls-58" d="M160.1,380.9c-.93-2.58-3-4.51-4.16-6.93-.55-2.46-1.14-4.92-1.63-7.39-.53-2.67.91-5.09,1-7.69l.59.05c-1.41,5.81-1,11.44,1.91,16.74,3.28,5.87,6.94,6.31,12.43,2.27a38,38,0,0,0,9.08-8.62c4.44-6.32,9.28-12.44,11.88-19.82.59-1.66.83-3.46,1.72-5a.4.4,0,0,1,.08.69c0,.58-.07,1.16-.11,1.75-1.4,3.13-2.1,6.53-3.88,9.54-1.37,2.33-3.34,4.33-4.08,7-2.78,1.65-3.69,4.81-5.64,7.14a31.52,31.52,0,0,1-7.94,7.31c-2.5,1.64-4.6,4-8,3.85A6.49,6.49,0,0,1,160.1,380.9Z"/><path class="cls-59" d="M136.45,261.55a3.54,3.54,0,0,0-2.33-.67q-13.56.06-27.13.07c-1.23-.67-.39-1.48,0-2.07,1.45-2.28,2.28-5,4.77-6.54l.09-.09c4.43-3.79,9.36-6.9,14.09-10.29l3.1-1.89c1.62-.35,2.21-2.46,4.08-2.38a.69.69,0,0,1,.49.55,5.35,5.35,0,0,1-2.37,2.49c-3.42,2.36-7,4.57-10.37,6.91-3.94,2.69-8.17,5.17-10.77,9.43-.34.55-1,1.07-.64,1.76s1.2.46,1.84.47c7.25,0,14.49,0,21.73,0,1.3,0,2.72-.22,3.65,1.1A1,1,0,0,1,136.45,261.55Z"/><path class="cls-60" d="M75,247l-.6.06c-2.48-2.75-6-2.86-9.25-3.53a2.81,2.81,0,0,0-2.35.62c-2,1.62-3.76.46-4.63-1-1.71-2.91-4.26-5.16-5.83-8.18-.87-1.66-.79-2.69.34-3.94,2.19-2.4,4.91-4.17,7.37-6.27,8.12-6.93,17-12.95,24.89-20.18a1.79,1.79,0,0,1,1.55-.53,115.82,115.82,0,0,1-11.88,10.12Q66,221,57.45,227.85a28.63,28.63,0,0,0-4.16,3.54c-.79.93-1.11,1.83-.34,2.91,2,2.81,3.95,5.66,6,8.43a2.5,2.5,0,0,0,3.28.9C66.28,242,72,243.53,75,247Z"/><path class="cls-61" d="M274.91,52.52l.57,0c4.61,4.64,8.85,9.63,13.28,14.43,5.06,5.47,8.92,12,14.65,16.84,1.58,1.33,2.24,3.37,4.27,4.43,2.41,1.26,3.93.55,5.31-1.29a119,119,0,0,1,7.92-9.16,2,2,0,0,1,1.48-.8.34.34,0,0,1,.15.37c0,.13-.07.19-.11.19-3.27,2.7-5.73,6.11-8.4,9.34-.16.19-.23.45-.38.64-2.16,2.63-6.24,2.87-8.2.11a39,39,0,0,0-4.34-5.06c-7.21-7.27-12.78-16-20.24-23.08A63.76,63.76,0,0,1,274.91,52.52Z"/><path class="cls-62" d="M203,70.55c-1.85,2-3.6,4.21-5.59,6.13-4.95,4.81-9.69,9.81-14.75,14.52-3,2.81-5.63,6-9,8.49-1.6,1.16-2.13,3.34-3.76,4.6a9.35,9.35,0,0,1-2.44,1.69.64.64,0,0,1-1,0c10.18-10.08,20.43-20.1,30.49-30.31,2-2,4.16-4,6.06-6.13A.8.8,0,0,1,203,70.55Z"/><path class="cls-63" d="M162,123.54c1.22-1.6,3.23-1.85,4.88-2.54,4.22-1.74,7.32-5,10.82-7.62,1.56-1.19,3.27-2.19,4.76-3.5s3.57,0,4,1.93c.11.56,0,1.17.07,1.74.17,1.17.91,2.21,2,2.21a2.22,2.22,0,0,0,2-2.22,10.33,10.33,0,0,0,0-3c-.89-4.3,2.88-8.07,6.81-8.34,3.74-.26,7.48-1.59,11.26-.25a1.32,1.32,0,0,1-.61.48c-3.91.11-7.7,1-11.53,1.66-2.83.45-4.21,2.33-4.25,5.22,0,1.25.06,2.5-.05,3.75-.18,2.21-1.65,4.27-3.18,4.25-2,0-3-1.59-3.71-3.24-1.38-3.38-1.35-3.44-4.31-1.36-2,1.39-3.75,3-5.66,4.52-3.13,2-5.83,4.67-9.48,5.81C164.52,123.43,163.37,124.42,162,123.54Z"/><path class="cls-64" d="M283,29.05c-.73,1.4-1.35,2.92-3.28,3s-2.64-1-2.12-2.68a7.71,7.71,0,0,1,2.37-3.16c1.21-1.16,1.49-2.46.26-3.7-3.76-3.82-6.77-8.35-11.11-11.62-2.37-1.78-4.33-1.65-6.67.05-1.79,1.29-2.92,3.08-4.48,4.52-1.48,1-2.47,2.56-4,3.52l-3,2c-.66.53-.7,1.57-1.56,1.93h0a21.84,21.84,0,0,0-2,1l-.49.53a8,8,0,0,1-1,2h0c-.19.21-.36.21-.52,0,.11-1.93,1.27-3,2.79-4.08,1.81-1.33,3.61-2.76,5.3-4.26,3-2.63,5.78-5.42,8.68-8.12a4.86,4.86,0,0,1,6.72-.23c2.75,2.54,6.14,4.38,7.94,8.05.61,1.24,2.1,2.46,3.29,3.6a3.51,3.51,0,0,1,.25,5.36,10.39,10.39,0,0,0-.87.89c-.75,1.09-1.93,2.38-.47,3.46s1.91-.59,2.59-1.49a9.45,9.45,0,0,1,1.26-1.18.34.34,0,0,1,.16.36C283,29,283,29.05,283,29.05Z"/><path class="cls-31" d="M42,156.52a2.36,2.36,0,0,1-1.06-2.37c.48-2.88.55-5.76,2.23-8.46,1.44-2.29,2.11-5,4.93-6.19a24.79,24.79,0,0,1,7.2-1.66c3.14-.32,5.06,2.83,4.22,5.88s-2.39,4.39-5.9,4.48-5.63,3.12-7.71,5.64c-.72.88-1.94,1.64-1.8,3.08.2.62.47,1.35-.31,1.68s-1.07-.42-1.33-1C42.26,157.24,42.3,156.8,42,156.52Z"/><path class="cls-65" d="M60.47,215a15.34,15.34,0,0,1,4.37-4c4.32-3.15,8.72-6.2,13-9.44,2.82-2.15,5.48-4.53,8.15-6.87.62-.54.88-1.31-.34-1.62a1.69,1.69,0,0,1-.24-.05c-5-2.18-5-2.18-9,1.74-2.12,2.11-4.26,4.2-6.39,6.3a.5.5,0,0,1-.61,0,.41.41,0,0,1,0-.59c2.46-2.55,4.9-5.12,7.4-7.63,2.83-2.83,3.63-3,7.34-1.17a5.09,5.09,0,0,0,2.77.82A2.74,2.74,0,0,1,87,195c-7.48,6.08-15,12.12-23,17.57-1.45,1-2.21,2.83-4,3.41C59.7,215.41,60.23,215.26,60.47,215Z"/><path class="cls-13" d="M214.9,226a4.55,4.55,0,0,1-2.85.71,13.12,13.12,0,0,0-6.27,1.37c-2.69,1.14-5.42,2.06-8.39,1a3.84,3.84,0,0,0-1.23-.11c-10.31-.34-14.85-6.89-16.42-15.88-.45-2.54-.17-5.05-.68-7.52-.21-1,.4-1.74.83-2.53a.49.49,0,0,1,.68,0,26.5,26.5,0,0,1,.31,4.45,6.17,6.17,0,0,0,0,3.56c.1,4.29,1.84,8,4.13,11.5a7.06,7.06,0,0,0,3.57,2.93,18.77,18.77,0,0,1,3.35,1.61c1.48.58,3,.17,4.53.3a14.65,14.65,0,0,0,9.72-1.11,17.84,17.84,0,0,1,8-1.49,1.58,1.58,0,0,1,.77.17A.73.73,0,0,1,214.9,226Z"/><path class="cls-66" d="M283,29.05c0-.19,0-.38,0-.57,1.72-1.55,3.25-1.25,4.7.44,2.37,2.75,4.64,5.63,7.23,8.18,4.23,4.16,8.72,8,13,12.12,2.24,2.11,2.05,3.45-.23,5.5a24,24,0,0,0-3.41,3.92c-.63.88-.44,1.74.93,1.88a4.12,4.12,0,0,0,4.25-1.9c.89-1.31,1.65-3.38,4-2.11a.32.32,0,0,1,.11.36c0,.12-.09.17-.13.17A3,3,0,0,0,310,59c-.91,1.9-3.79,3.21-5.66,2.37-1.47-.66-2-1.79-.81-3.18s2.54-2.82,3.84-4.2,2-2.68.13-4.13c-4-3.07-7.28-7-11.31-10.11-2.51-1.94-4.35-4.75-6.48-7.18-.7-.81-1.38-1.65-2-2.51C286.42,28.32,284.92,27.58,283,29.05Z"/><path class="cls-67" d="M207.78,102.1l.73-.14.45,0c.95.62,2.09-.06,3.06.45,2.75-.38,4.81,1.51,7.19,2.29,7.56,2.49,13,7.77,17.14,14.32a80.5,80.5,0,0,0,5.14,7.74c2.35,2.91,2.12,6.81,3.87,10a54,54,0,0,1,2.65,6.64.47.47,0,0,1,0,.67c-.83.11-1.24-.43-1.46-1.08-1.33-3.91-3.74-7.39-4.37-11.62a9.73,9.73,0,0,0-2.43-4.85,43.48,43.48,0,0,1-4.36-6.34c-2.43-4-5.21-7.69-9.29-10.19a4.55,4.55,0,0,1-.64-.39,33.81,33.81,0,0,0-15.44-6C209,103.5,208,103.41,207.78,102.1Z"/><path class="cls-68" d="M278.93,160.49c-3.07,2.74-6.07,5.57-9.23,8.2s-6.22,4.83-8.82,7.82a1.17,1.17,0,0,1-1.33.38.91.91,0,0,1-.55-1.22,22.27,22.27,0,0,0,0-9.58,5.29,5.29,0,0,1,0-2.71c1-2.71-.29-5-1.06-7.36a1.77,1.77,0,0,1-.12-1.49.69.69,0,0,1,1,.32c1,2.42,2.55,4.65,2,7.52-.75,3.64.58,7.22.26,11.37,3-1.72,4.83-4.07,7.07-5.9a115.09,115.09,0,0,0,9.29-7.77,1.25,1.25,0,0,1,1.4-.23A.42.42,0,0,1,278.93,160.49Z"/><path class="cls-69" d="M285.92,76c-2.58,2.33-5.15,4.68-7.75,7q-6.48,5.77-13,11.52a5.41,5.41,0,0,0-.54.53c-.84,1-2.68,1.92-1.24,3.45,1.26,1.34,2.25-.21,3.34-.92,4.74-3.09,8.37-7.52,13.09-10.61a.47.47,0,0,1,.67,0,1.74,1.74,0,0,1-.92,1.89c-4.47,3.06-7.95,7.3-12.52,10.22a4.7,4.7,0,0,1-2.5,1,2.82,2.82,0,0,1-2.85-1.6,2.63,2.63,0,0,1,.67-3c1.3-1.53,3-2.61,4.41-4C272.23,86,278.45,81.41,283.9,76c.56-.57,1.13-1.28,2.12-1A.84.84,0,0,1,285.92,76Z"/><path class="cls-70" d="M304.44,95a41.73,41.73,0,0,0,6.15,6.92c4.85,4.18,8,9.77,12.17,14.53,2.66,3,2.24,4.92-.88,7.33s-5.49,5.65-8.73,7.92c-1.28.89-2.49,1.89-3.72,2.84a.92.92,0,0,1-.28-.64c.23-1.17,1.19-1.73,2-2.43,2.57-2.19,5.53-4,7.28-7,.44-.78,1.36-.9,2.05-1.33,2.54-1.57,3-3.37,1.21-5.75-1.92-2.59-4.23-4.91-6.06-7.55-2.86-4.12-6.57-7.39-10-11a4.27,4.27,0,0,1-1.27-2.1A2.28,2.28,0,0,1,304.44,95Z"/><path class="cls-71" d="M92.48,114c3.73-1.82,7.23-4.26,11.57-4.52a25.42,25.42,0,0,0,4.78-1.14,25.43,25.43,0,0,1,14.89.76,84.71,84.71,0,0,1,12.8,5.62c1.83,1,3.58,2.25,5.41,3.33a1.53,1.53,0,0,1-1.05.45c-2.81-.22-4.6-2.45-6.94-3.61a64.63,64.63,0,0,0-13.69-5.45c-4.72-.36-9.4-.63-14,1-2.09.7-4.43.62-6.48,1.63a4,4,0,0,1-.67.38c-1.91.52-3.56,1.78-5.58,2A1.24,1.24,0,0,1,92.48,114Z"/><path class="cls-54" d="M66,170.54c-.62-4.27-3.3-8.17-2.41-12.69,1-5.2.47-10.9,3.1-15.52,2.76-4.85,4.39-10.53,9-14.26a12.92,12.92,0,0,0,1.7-2.09l.31.18c.62,1.49-.45,2.4-1.31,3.17-3.16,2.83-4.85,6.52-6.36,10.34a3.34,3.34,0,0,1-.33.62,5.85,5.85,0,0,0-2.12,4.85,9.11,9.11,0,0,1-.76,2.51,7.25,7.25,0,0,1-.64,1c-.39,5.52-2.15,11,.13,16.54a7.92,7.92,0,0,1,.21,4.65A1.54,1.54,0,0,1,66,170.54Z"/><path class="cls-72" d="M179.9,189.92c-.74,2.6-3.06,4.63-3,7.52.12,3.13-1.61,5.67-2.47,8.48-.66,2.15-.27,4.3-.35,6.44,0,1.25-.15,2.49-1.39,3-4.94,1.89-8.42,5.41-11.52,9.54-1.49,2-3.72,3.42-4.3,6.06a3.14,3.14,0,0,1-.48-2.75,2.43,2.43,0,0,1,.82-1.5c3.24-2.27,5.13-5.78,7.87-8.52a15.06,15.06,0,0,1,5-3.14,4,4,0,0,0,2.71-4.46c-.14-2.56-.14-5.14,1.11-7.52a12.24,12.24,0,0,0,1.37-4.9c.13-2.87,1.79-5.27,3.06-7.76a2.47,2.47,0,0,1,.49-.53A1,1,0,0,1,179.9,189.92Z"/><path class="cls-31" d="M113,378.45c-1.83-1.7-4.36-1.87-6.49-2.08-3.91-.39-5.48-4.24-8.94-5.13-1.19-.31-.8-1.85-.63-2.9.11-.73.46-1.43.51-2.16.07-.95-.18-1.89-1.28-2.14-.93-.2-1.48.39-2,1.15-2.4,3.49-4.66,3.58-7.25.35a1,1,0,0,1,0-1.1c2.87,1.92,5.26,1.87,7.47-1.23.93-1.31,3-.68,4,.86a4.26,4.26,0,0,1,.34,4.06,1.73,1.73,0,0,0,1.13,2.56,1.29,1.29,0,0,1,.46.2c4.8,4.6,11.29,5,17.16,7,.81.27,1.85.44,1.37,1.75A13.09,13.09,0,0,1,113,378.45Z"/><path class="cls-73" d="M250.88,156.54a6.92,6.92,0,0,0,1.06,3.45,12.45,12.45,0,0,0,0,5.5h0a3.11,3.11,0,0,1,0,3h0a9.85,9.85,0,0,0,0,5.33,4,4,0,0,1,0,2.65h0a5.08,5.08,0,0,0,0,3.5,3.77,3.77,0,0,1,0,.47,7.3,7.3,0,0,0-.72,2.38c-1.33,5.45-1.83,11.15-4.77,16.12h0c-.85,3.08-3.3,5.35-4.25,8.37-.54.76-1.23,1.38-1.77,2.12h0c-.31.44-.57,1.09-1.18.29.14-2.74,2.05-4.66,3.3-6.85,1.92-3.41,3.81-6.79,4.74-10.66,1.68-6.94,3.45-13.78,3.14-21.1-.22-5-.25-9.92-.7-14.87C250.31,155.47,250.58,156.05,250.88,156.54Z"/><path class="cls-74" d="M86,288.93a46,46,0,0,0-3.19,8.48c-.26,1.12-.47,2.1.42,3,.18.18.47.38.47.57,0,5.41,4.57,4.22,7.47,4.84a16.16,16.16,0,0,0,9.27-1,9.91,9.91,0,0,1,3-.3c1.68-.16,3.36.63,5.1-.27a2.15,2.15,0,0,1,2.4,1c.83,1.68,2.27,2.68,3.59,3.85a1.46,1.46,0,0,1-1,.46,2.25,2.25,0,0,1-2.33-1.44c-.86-1.82-2.07-2.69-4.11-1.82a2,2,0,0,1-1.65-.24,6.05,6.05,0,0,0-4.88.16,3.91,3.91,0,0,1-.65.24,23,23,0,0,0-2.74.45,4.62,4.62,0,0,1-.71.18,36.93,36.93,0,0,1-9.68-.47,3.49,3.49,0,0,1-.7-.2,20.65,20.65,0,0,1-2.4-1.41,2.7,2.7,0,0,1-.52-.44c-.93-1.06-.4-2.63-1.28-3.72a3.58,3.58,0,0,1-.26-.64,7.92,7.92,0,0,1,0-2.83,4.15,4.15,0,0,1,.19-.69,9.75,9.75,0,0,0,.67-4.14,2.51,2.51,0,0,1,.6-1.62c.6-.46,1.31-.81,1.59-1.59a1.72,1.72,0,0,1,.45-.48A.84.84,0,0,1,86,288.93Z"/><path class="cls-75" d="M185,354l-2.07,2.92c-.26.46-.48,1.05-1.13.4-.07-2.54,1.75-4.27,2.92-6.19a59.49,59.49,0,0,0,4.06-9.09c.47-1.17.1-1.89-1.12-1.82-5.27.32-10.62-1-15.81,1.13a7.91,7.91,0,0,0-4.16,3.67c-.66,1.19-1,2.72-2.65,3.07-.6-.72-.18-1.34.12-2,1.43-3.3,3.49-5.91,7.12-6.91a6.81,6.81,0,0,1,2.88-.65c4.39,0,8.78,0,13.16,0,2.74,0,3.45,1.59,2.39,4.07a86.83,86.83,0,0,1-4.23,9.13A4.7,4.7,0,0,0,185,354Z"/><path class="cls-76" d="M285.92,76c0-.34,0-.69-.05-1a32.92,32.92,0,0,1-4.47-5.56c-1.91-2.85-4.88-4.69-6.61-7.68-.84-1.47-2.36-1.7-3.86-.58-3,2.23-5.72,4.75-8.66,7-1,.78-1.88,1.6-3.22,1.64a1.07,1.07,0,0,1-.62-.32c3.91-3.27,7.77-6.61,11.75-9.8,1.89-1.52,4-1,5.79,1.13,3.22,3.87,6.41,7.76,9.65,11.62A2.59,2.59,0,0,1,285.92,76Z"/><path class="cls-77" d="M67.46,355l-.25,0L67,355c-1.4-3.21-2.82-6.41-1.38-10,1.32-4.34,4-6.06,8.29-5.59,3.25.36,6.62.27,9.51,2.17,1.27.83,2.78.31,4.08.94a7.12,7.12,0,0,1,2.59,1.87c.22.23.19.42-.08.58-3.44-2.21-7.39-3-11.26-4a24.07,24.07,0,0,0-6.67-.57c-3,.08-4.51,1.29-5.47,4.09a12.18,12.18,0,0,0,.4,8.87C67.19,353.9,67.3,354.47,67.46,355Z"/><path class="cls-25" d="M44.92,167.63a11.87,11.87,0,0,1-7-4.38c-3-3.71-3.27-7.85-1.8-12.26,1.33-4,2.77-7.9,5.92-10.88a26.1,26.1,0,0,1,5.4-4.18c.16.12.22.24.17.36s-.09.19-.15.19c-3.77,3.21-7.62,6.33-9.41,11.23-1.42,3.9-2.83,7.81-1.39,12,1.09,3.15,3.49,5.16,6.42,6.6C43.78,166.63,44.89,166.4,44.92,167.63Z"/><path class="cls-4" d="M186,352c1.56-3.35,3.17-6.69,4.66-10.07.63-1.43.26-3.05-1.41-3-5.7.08-11.46-.94-17.1.66a.47.47,0,0,1-.7-.11A4.15,4.15,0,0,1,175,338c4.56-.07,9.13-.09,13.7,0,2.38,0,3.47,1.64,2.73,3.91a66.76,66.76,0,0,1-4.28,9.63c-.21.42-.7.7-1.06,1C185.75,352.39,185.73,352.21,186,352Z"/><path class="cls-51" d="M254.38,337.44c-.83,1-2,.58-3,.58q-27.19.08-54.38.07c-.15-.12-.21-.24-.17-.37s.08-.2.13-.2l46.44-.08Z"/><path class="cls-78" d="M86,288.93,85,289c.15-2.59,2.1-3.37,4.13-3.85,3.29-.77,6.55-1.81,10-1.69,1.84-.43,3.79.22,5.59-.58a5.13,5.13,0,0,1,4.52.13,71.24,71.24,0,0,0,12.22.1c1.14-.32,2.2-1.13,3.49-.65l4,0c-3,.55-5.73,2-8.77,2-4.3-.08-8.61-.19-12.89-.29a54.2,54.2,0,0,0-14,1.41C90.71,286.26,87.7,286.2,86,288.93Z"/><path class="cls-76" d="M278.93,160.49V160c.35-1.7,1.82-2.51,3-3.45,6.75-5.5,12.81-11.78,19.64-17.19a5.32,5.32,0,0,1,1.25-.8c.7-.21,1.39-.61,2.11-.07-2.14,2.55-5.29,3.89-7.56,6.29a73.73,73.73,0,0,1-7.6,6.91C286.09,154.55,283.18,158.36,278.93,160.49Z"/><path class="cls-79" d="M83,356.5c-1.58,3.44-4,3.79-6.84,1.52a11.26,11.26,0,0,1-4.45-7.17C70.79,345,73.09,342,79,343.24a8.1,8.1,0,0,1,4.08,1.69,1.47,1.47,0,0,1-1,.56c-1.54.2-2.84-.8-4.34-.88-3.3-.18-5,1.1-4.79,4.37a10.31,10.31,0,0,0,2.62,6.55c2.58,2.67,3.59,2.72,6.8.69A.8.8,0,0,1,83,356.5Z"/><path class="cls-18" d="M47.49,136.48l0-.55c2.88-2.36,6.19-2.36,9.37-1.19,3.92,1.45,5.82.82,8-2.83,2-3.39,4.44-6.56,6.69-9.83l1.38-.19c-3,3.08-5,6.83-7.37,10.37a17.82,17.82,0,0,1-3.69,4,3,3,0,0,1-3.51.16C54.69,134.17,51.09,134.69,47.49,136.48Z"/><path class="cls-80" d="M174.45,220.49c2.48,4,4.84,8.1,9.67,9.84,1.88.68,2.06,1.56.18,2.82a86.89,86.89,0,0,0-8.11,6.07c-2.06,1.74-3.84,3.81-5.75,5.74a.43.43,0,0,1-.61,0c-.39-1,.3-1.52.88-2.12a63.63,63.63,0,0,1,10.69-9.17c.34-.23.64-.52,1-.75,1.29-.88,1.3-1.64-.24-2.16-3.76-1.26-5.47-4.62-7.63-7.5a2.66,2.66,0,0,1-.68-2.75A.41.41,0,0,1,174.45,220.49Z"/><path class="cls-81" d="M223.08,37.12c1.62-1.71,3.75-2.92,5-5,.71-.25.92-1.23,1.8-1.23-.87,1.83-2.43,3-3.81,4.4-2.88,2.93-5.35,6.24-8.17,9.23-4.14,4.37-8.44,8.59-12.69,12.86-.14.14-.47.1-.71.14,2.83-3.38,6.19-6.28,9.11-9.54C216.83,44.42,220.61,41.33,223.08,37.12Z"/><path class="cls-15" d="M201.41,299.92h-.53c-.4-.76,0-1.31.49-1.83a4.67,4.67,0,0,0,1.94-4.34c-.1-1.4,0-2.82,0-4.24a5.24,5.24,0,0,0-2.8-4.91c-2.61-1.45-4.42-3.43-4.26-6.74.09-1.92-1.65-3.73-.47-5.78a.5.5,0,0,1,.71-.1,14,14,0,0,1,1,5.55,5.58,5.58,0,0,0,3.6,5.7c1.94.9,3.21,2.15,3.5,4.15.48,3.26.89,6.56-.38,9.79C203.66,298.54,202.24,298.91,201.41,299.92Z"/><path class="cls-82" d="M313.41,57l0-.53a6,6,0,0,1,3.68,2.62,31.9,31.9,0,0,0,5.92,6c1.67,1.29,3,2.84,4.53,4.23.92.83,1.24,1.81.37,2.84-1.65,2-3.22,4-5.5,5.27l0-.56c1.37-1.43,2.73-2.87,4.13-4.28,1.19-1.18,1.12-2.16-.11-3.35-3.66-3.51-8-6.36-10.81-10.72C315.16,57.89,314.15,57.55,313.41,57Z"/><path class="cls-83" d="M138,342a11,11,0,0,1-1.64.5,5.27,5.27,0,0,0-4.78,4.69c-.1,2.41-.36,4.78-.67,7.15a14.05,14.05,0,0,0,1.39,7.95,11.68,11.68,0,0,1,.85,3.58.75.75,0,0,1-.8.18c-1.66-3.23-3.34-6.53-3-10.25.34-4-.3-8.17,2-11.85a5.66,5.66,0,0,1,6.54-2.71A.55.55,0,0,1,138,342Z"/><path class="cls-84" d="M250,132c.12-1.48-1-2.42-1.6-3.57-3.57-6.91-7.57-13.52-13.51-18.75-1.78-1.57-4.16-2.46-5.39-4.67a1.12,1.12,0,0,1,.67-.26,41.45,41.45,0,0,1,11.71,10.53c3.29,4.31,5.76,9.07,8.37,13.77.56,1,1.28,2,.9,3.24C250.56,132.82,250.25,132.41,250,132Z"/><path class="cls-85" d="M108.49,361c.63,1,1.58,1.51,2.48.72a3.65,3.65,0,0,0,1.19-4c-2.26-5.59.78-10.83.79-16.25a.52.52,0,0,1,.73.1,9,9,0,0,1,.16,5.86c-.84,3.33-1.47,6.6-.23,10,.65,1.78-.18,3.46-1.19,4.9a2.46,2.46,0,0,1-3.31.9c-1.84-1.16-3.84-2.25-4.86-4.37C105.85,358.44,106.85,358.93,108.49,361Z"/><path class="cls-86" d="M169.91,244.94l.53,0c-2.24,2.65-4.59,5.21-7.71,6.85-1,.54-1.73,0-2.09-1.07a3.38,3.38,0,0,1,2.32-4.25c2.37-.85,2.78-2.6.9-4.24A11.63,11.63,0,0,1,162,240a1.2,1.2,0,0,1,.6-.36c2.27.42,3.29,2.15,3.84,4.08s-.38,3.19-2.18,3.92c-1,.39-2.06.73-1.72,2.45a13.44,13.44,0,0,0,4.14-3.24C167.5,245.84,168.36,244.79,169.91,244.94Z"/><path class="cls-40" d="M166.94,365.45l-.5,1c-.65,1.26.21,2.72-.51,4-1.72,2.39-3.6,2.31-4.91-.41a13.06,13.06,0,0,1-1.35-7.4c.15-1.1-.58-2.08-.16-3.14.71-.93-.13-2.08.44-3a5.81,5.81,0,0,1,1.55-3,.46.46,0,0,1,.64.07c.57,1.81-.39,3.43-.8,5.05-.89,3.48,0,6.72.83,10,.21.77.61,1.73,1.64,1.54.88-.15.84-1.1,1-1.83.35-1.89-.07-4,1.69-5.5a.66.66,0,0,1,.67.28C167.15,363.89,167.43,364.7,166.94,365.45Z"/><path class="cls-87" d="M210.9,287.05l.11-.69c2.36,1.44,2.59,3.93,2.19,6.1a21.25,21.25,0,0,1-5,10.93c-1.48,1.6-1.36,2,.6,3.1,1.4.77,3.28,1.15,2.84,3.45a.44.44,0,0,1-.66.07l-1.48-1.55c-.79-.43-1.7-.58-2.51-1-2.1-2.65-1.73-2.39.26-5.17,2.88-4,5.83-8.27,3.83-13.77A6,6,0,0,1,210.9,287.05Z"/><path class="cls-88" d="M182,357.49l.92-.6q-1.72,5-5.47,2.06c-.58-.46-1.24-1.24-1.91-.56a2.94,2.94,0,0,0-.84,2.95c.59,1.8.25,3.63.3,5.44s-1.36,2.64-2.61,3.35c-1,.58-1.84-.29-2.51-1.07a.76.76,0,0,1,0-.66l.32-.14.34,0c.91.46,1.73.56,2.29-.51.84-1.94.52-3.94.29-5.91a5.28,5.28,0,0,1,.68-3.6c.93-1.46,2.2-2.21,3.76-1.06A4.08,4.08,0,0,0,182,357.49Z"/><path class="cls-89" d="M132.53,366l.62-.08c3.48,2.62,5.52,6.72,9.26,9a28.72,28.72,0,0,0,5.85,3.17c2.69.93,3.21,3.19,1.28,4.91a1.11,1.11,0,0,1-1,.11c.63-2.78.57-2.67-2.29-4.27-3.47-1.93-7-3.78-9.34-7.25a15.54,15.54,0,0,0-2.85-2.76C133.2,368.08,132.17,367.36,132.53,366Z"/><path class="cls-4" d="M197,261a3.71,3.71,0,0,0,0,.47,2,2,0,0,1-1.54-.67c-3.29-2.82-7.25-2.27-11.11-2.2a3,3,0,0,0-2.32,1.3c-1,1.68-2.45,1.67-4.05,1.65-4.32,0-8.63,0-12.94,0-1.14,0-2.47.2-2.53-1.57a7.28,7.28,0,0,0,4.22,1c3.06-.09,6.12,0,9.18,0,2.14,0,4.38.53,5.92-1.87.54-.85,1.9-1.12,3.16-1.06,2.47.11,5,0,7.43,0Z"/><path class="cls-90" d="M179.9,189.92l-.86.14a2,2,0,0,1,.1-2.33c1.33-1.9,1.91-4.25,3.51-5.95,3.9-4.13,7.59-8.48,12.25-11.82.75-.54,1.44-1.16,2.45-.66-.84,2.06-2.64,3.1-4.43,4.16-3.56,3.26-7.32,6.4-9.84,10.56C181.93,185.9,180.2,187.56,179.9,189.92Z"/><path class="cls-91" d="M162.55,239.93,162,240c-2.14-2.87,0-5.4.83-7.9,1-3,3.26-5.45,4.36-8.54a7.35,7.35,0,0,1,4.49-3.94c.93-.33,2.2-.44,2.81.88l-.56,0a7.67,7.67,0,0,0-6.12,5.47,16.67,16.67,0,0,1-2.13,3.64A19.29,19.29,0,0,0,162.55,239.93Z"/><path class="cls-92" d="M113.52,341.5l-.57,0c.32-2.79,1.23-3.68,3.92-3.69q11.1,0,22.21,0c.94,0,2.3-.5,2.71.57s-.74,2-1.53,2.87A2.64,2.64,0,0,1,138,342l0-.52c.08-.79,1-1.11,1-1.91a.49.49,0,0,0-.4-.3c-7.23-.21-14.46-.08-21.69-.07C115.24,339.22,114.57,340.61,113.52,341.5Z"/><path class="cls-77" d="M67,256.45c-.43,1.24-.83,2.49-1.31,3.72a1.68,1.68,0,0,1-1.92,1.23,1.41,1.41,0,0,1-1.2-1.85c.27-1.57-.86-2.87-.81-4.32.09-2.21,5-6.65,7.14-6.68,1.51,0,2.33.73,2.2,2.31-.1,1.26-.29,2.48-1.64,3.08-.54-.73,0-1.37.15-2.05.41-1.78-.24-2.3-1.9-1.57a14.05,14.05,0,0,0-3.85,3.56c-1.24,1.91-.13,3.79.07,5.68a.36.36,0,0,0,.21,0,.66.66,0,0,0,.24-.43,4,4,0,0,1,1.24-2.43A1.39,1.39,0,0,1,67,256.45Z"/><path class="cls-93" d="M162,123.54a23.92,23.92,0,0,0,10.43-5.18,4.05,4.05,0,0,1,2.46-1.49.69.69,0,0,1,.2.73c-5.79,5.85-12.72,8.78-21,8-1.1-.1-2.42-.07-2.65-1.65a1,1,0,0,1,1.13-.07C155.73,124.8,158.86,124.16,162,123.54Z"/><path class="cls-94" d="M124.49,199.47c-3.08-2.07-6.69-3-9.93-4.84-3-1.69-6.64-2.28-10-3.37-.7-.23-1.39-.5-2.08-.75a.47.47,0,0,1,.07-.69,3,3,0,0,1,2.42,0,51.75,51.75,0,0,1,12,4.63c1.6.89,3.47,1.13,5.06,2.07,1,.59,2.14,1,2.59,2.19A.81.81,0,0,1,124.49,199.47Z"/><path class="cls-95" d="M157,228c0,1,0,2,0,2.95-3.34,4.15-6,4.57-10.79,1.72a33.3,33.3,0,0,1-3.35-2c-1.15-.89-2.48-1.84-1.38-3.64a.57.57,0,0,1,.67,0c1.9,4,5.66,5,9.45,5.77,2.07.41,3.24-1.2,4.13-2.9C156,229.11,155.74,228,157,228Z"/><path class="cls-96" d="M133.93,215.54c-3.12.13-3.51-3.14-5.51-4.49-4.19-2.81-7-7.44-12.06-9.18-.56-.2-1-.86-1.44-1.31a17.32,17.32,0,0,1,7.73,4.52c2.29,2.24,4.85,4.21,7.35,6.22,1.42,1.14,1.68,3.55,4,3.67A.35.35,0,0,1,133.93,215.54Z"/><path class="cls-97" d="M114.5,200.47A8.69,8.69,0,0,1,110,199.2a30.31,30.31,0,0,0-13.41-2.88c-1.3,0-1.78,1.37-2.57,2.19a.71.71,0,0,1,0-1,3.88,3.88,0,0,1,4-2c3.17.28,6.41.21,9.28,1.95,1.34.81,3.45,0,4.26,2,.88.7,2.06-.18,2.94.56A1.55,1.55,0,0,1,114.5,200.47Z"/><path class="cls-98" d="M186.91,185.42c1.54-3.12,4-5.42,6.46-7.82a39.88,39.88,0,0,1,9.9-7.19.83.83,0,0,1,.69,0c.11,1.53-1.26,1.86-2.16,2.36-4.88,2.71-8.52,6.78-12.16,10.86-.66.74-1.15,1.64-2.11,2.06A.6.6,0,0,1,186.91,185.42Z"/><path class="cls-65" d="M231,94a77.4,77.4,0,0,1,8.18-7.39c2.31-1.83,4.48-3.84,6.63-5.86.52-.5.8-1.24,1.66-1.28a.86.86,0,0,1,.2.66c-1,2.7-3.46,4-5.45,5.64-3.1,2.6-5.92,5.54-9.27,7.85a3.07,3.07,0,0,1-1.31.66A.92.92,0,0,1,231,94Z"/><path class="cls-99" d="M142.05,227l-.66-.06a50.24,50.24,0,0,0,1.1-5.54c.3-3.41.43-6.83-3.06-9a6.88,6.88,0,0,1-2-2.82.4.4,0,0,1,.12-.67,11.59,11.59,0,0,1,6.22,13.53C143.33,223.94,143.88,226,142.05,227Z"/><path class="cls-100" d="M60.47,215l-.5,1c-1.16-.08-1.68.68-2.36,1.49-1.13,1.38-2.29,2.93-4.48,2.63-.79-.11-1.52-.57-1-1.25,2.3-2.74,3.72-6.33,7.3-7.88-1.78,2.45-4.39,4.22-5.72,7-.2.41-.88.74-.41,1.23s1,.26,1.54-.16C56.68,217.6,57.75,215.16,60.47,215Z"/><path class="cls-101" d="M204.07,170.54l-.8-.13C204.9,168.83,207,168,209,167c.44-.25,1.37-.27,1.07-1.06a1.29,1.29,0,0,0-1.86-.69L203,167.5a1,1,0,0,1-.23-.76c1.53-2.11,4-2.55,6.21-3.17a2,2,0,0,1,2.2,1.32,1.82,1.82,0,0,1-.31,2.49C208.7,168.67,206.82,170.57,204.07,170.54Z"/><path class="cls-102" d="M63.14,178.41c-2.26-2.51-2.7-6.08-5-8.58-.21-.29-.43-.57-.65-.86-.17-.11-.22-.22-.16-.33s.11-.17.17-.17A3.4,3.4,0,0,1,60,170.75c1.78,6.26,6.8,10,11,14.32-2-.14-2.75-2-4-3.06S64.39,179.62,63.14,178.41Z"/><path class="cls-48" d="M108.49,361a13.31,13.31,0,0,0-4-2.51,57.94,57.94,0,0,1-6.24-4.24c-1.42-1.26-3.62-1.3-4.53-3.19a.75.75,0,0,1,.32-.61c3.2.57,5.35,3.07,8,4.58,2,1.13,3.18,3.52,5.64,4.25C108.27,359.4,108.48,360.27,108.49,361Z"/><path class="cls-102" d="M196.46,272l-.56,0c-1.2-.15-1-1.17-1.09-1.9a8,8,0,0,0-1.9-3.93c-.69-.8-1.38-1.85-2.58-1.59s-.56,1.61-1.17,2.27l-.69.11c-.64-1.33-1.16-2.75.3-3.79s2.8-.4,4,.74C195.07,266.12,196.69,268.62,196.46,272Z"/><path class="cls-102" d="M61,199c3.18-3.21,6.26-6.54,9.57-9.6,1.67-1.54,2-2.77.34-4.37,2.46.92,2.84,2,1.18,3.65-3.63,3.66-7.33,7.26-11,10.88C60.81,199.45,60.78,199.26,61,199Z"/><path class="cls-103" d="M186.91,185.42l.56.07a1.29,1.29,0,0,1-.05,1.6c-2.12,3.42-3.55,7.19-5.36,10.76-.68.94-.36,2.1-.68,3.12-.24.7-.3,1.49-1,2h-.51c-.18-3.3,1.32-6.13,2.46-9.09A64.7,64.7,0,0,1,186.91,185.42Z"/><path class="cls-14" d="M137.52,208.88l-.07.67c-4.6-3-8.13-7.37-13-10.08V199a1.5,1.5,0,0,1,2,.12,108.36,108.36,0,0,1,10.59,8.66A1.23,1.23,0,0,1,137.52,208.88Z"/><path class="cls-104" d="M70,261c-1.62-2.64-.78-4.6,2.3-5.42a7.58,7.58,0,0,1,3.18-.1c.57.46,1.93.19,1.48,1.59-.84.45-1.59-.1-2.37-.23a3.55,3.55,0,0,0-3.19.92c-.7.69-.78,1.74.36,1.86,2.11.22,4.45,1,6.12-1.23a.61.61,0,0,1,.66,0v0a1.47,1.47,0,0,1-.13,2l-.43.51A27.09,27.09,0,0,1,70,261Z"/><path class="cls-105" d="M113.47,309l1,0c.77,2.05,2.85,1.76,4.38,2.25,2,.63,2.84,1.59,2.69,3.73-.16,2.36-.31,4.78,1,7-.09.86.78,1.29.92,2-1.46.47-1.89-.63-2.3-1.6a13.81,13.81,0,0,1-.82-5.34c0-3.85-.06-3.91-3.75-4.84C114.8,311.79,113.43,311.08,113.47,309Z"/><path class="cls-94" d="M61,199l.09.56c-3.68,3.7-7.35,7.4-11,11.08-.87.87-1.72,1.82-3.12,1.75C52,208.33,56.05,203.2,61,199Z"/><path class="cls-84" d="M231,94l.56.06c.57,1.31-.31,2-1.2,2.61-.67.47-1.46.78-2.11,1.3a6.05,6.05,0,0,0-2.17,2.65c-.36,1.35,1.53,1.09,2.12,1.94s1.93,1.07,1.88,2.41l-.58,0c-1.87-.68-3-2.45-5.08-3-1.07-.28-.75-1.15,0-2.09C226.29,97.59,228.89,96.11,231,94Z"/><path class="cls-106" d="M95,298.52c-1.3,2.16-3.51,2.23-4.92.14-1.8-2.67-1.31-5.81,1.37-8.7a1,1,0,0,1,1-.12c.39,1-.62,1.44-.88,2.18a11.76,11.76,0,0,0-.89,3.11c-.16,2.72,1.24,3.61,4.35,2.78a.4.4,0,0,1,.11.41C95.1,298.45,95.06,298.52,95,298.52Z"/><path class="cls-67" d="M162,353.48h-.52a5.88,5.88,0,0,1,1.94-5.36c1.58-1.59,2-3.94,3.34-5.78a6.19,6.19,0,0,1,4.64-2.92l.7.11c-4.21,1.25-6,4.55-7.22,8.39C164,349.83,162.92,351.6,162,353.48Z"/><path class="cls-107" d="M83,356.5l-.56,0c-.65-1.52.5-2.12,1.48-2.69a2.13,2.13,0,0,1,2.55.32,2.5,2.5,0,0,1,.75,2.93,5,5,0,0,1-.49,1.14c-1.39,2.16-.92,4.26.19,6.33l0,1.05c-2.74-1.91-3.32-4.69-1.75-8,.35-.73,2-1.39.6-2.34C84.56,354.46,83.63,355.38,83,356.5Z"/><path class="cls-108" d="M125.92,242c-1.75,2.12-4.07,3.41-6.43,4.74-2.74,1.55-4.56,4.45-7.66,5.55,0-.22,0-.59.09-.65,3.34-1.77,5.52-5.14,9.14-6.55C122.85,244.34,123.69,242.05,125.92,242Z"/><path class="cls-109" d="M155.45,259.46a3.4,3.4,0,0,1-.45,0c-1.24-1.93-1.42-4.19-1.62-6.35-.25-2.68,0-5.4-.8-8a1.22,1.22,0,0,1,.45-.74,9.35,9.35,0,0,1,1.94,6.72C154.66,253.9,155.79,256.64,155.45,259.46Z"/><path class="cls-110" d="M139,362.89c1.85,3.37,4.88,5.58,7.67,8.08,1.63,1.45,4,1.65,5.24,3.51-5.07-1.48-8.48-5.25-12-8.81A4.22,4.22,0,0,1,139,362.89Z"/><path class="cls-108" d="M246.42,199c2.26-5.27,3.23-10.92,4.61-16.44q.14-.39.39-.06c-.08,3.88-1.64,7.44-2.39,11.17C248.62,195.69,248.11,197.59,246.42,199Z"/><path class="cls-109" d="M320.46,88.53c-1.26,2-3.42,3.26-4.65,5.41s-1.5,3.75.57,5.4a6,6,0,0,1,1.07,1.64c-3.75-2.06-4.21-3.9-2.11-7.43C316.63,91.39,317.88,89.32,320.46,88.53Z"/><path class="cls-111" d="M247.44,80c0-.17,0-.34,0-.51,4-3,6.78-7.26,11-10l.62.07c.46,1-.28,1.59-1,2-2.44,1.54-4.2,3.76-6.11,5.84C250.77,78.73,249.55,80.21,247.44,80Z"/><path class="cls-112" d="M132,383a2.34,2.34,0,0,1-.45-.07c-1-.54-2.08.06-3.06-.39l-2-.6c-.3-.4-1.71-.15-.75-1.29a3.65,3.65,0,0,1,2.44-.07,90.54,90.54,0,0,0,14,2,1.29,1.29,0,0,1,.87.44c-1.32,2.3-3.31,1-5.07.94h0C136.13,382.71,133.94,383.54,132,383Z"/><path class="cls-62" d="M160.46,112l-5.54,5.47c-.44.42-1.14.77-.44,1.53h0c1.67-.09,3.26-.94,5-.49-1.33,1.67-3.33,1.15-5,1.32-.9.09-2.25-1.34-1.05-2.29,2.46-2,4.5-4.32,6.86-6.37.16-.14.48-.09.72-.12C161.25,111.59,160.74,111.72,160.46,112Z"/><path class="cls-113" d="M255.93,148.52a113,113,0,0,1-5-14.5l.38-.14a1.77,1.77,0,0,1,1.05.55A9,9,0,0,1,254,138.8c.36,3.07,2.7,5.5,2.54,8.67A1.63,1.63,0,0,1,255.93,148.52Z"/><path class="cls-114" d="M90,345l.08-.58.9.14a3.08,3.08,0,0,1,2.1.56c3.11,1.65,6.13,3.46,9.34,4.94.77.35,1.74.7,1.56,1.91-.85.63-1.35-.2-2-.48Z"/><path class="cls-115" d="M282.37,85c1.2-1.25,2.31-2.59,3.61-3.71,2.32-2,6.35-1.13,8.17,1.73.31.48.56,1,.84,1.51a.94.94,0,0,1-.63.26c-1.23-.4-1.78-1.63-2.84-2.28-2.31-1.42-3.19-1.39-5.27.34-1.05.87-1.76,2.21-3.27,2.47A1,1,0,0,1,282.37,85Z"/><path class="cls-79" d="M153,244.37l-.12.73a1.68,1.68,0,0,1-1.37-.33c-2.9-1.83-5.37-4.42-9-5.07a3,3,0,0,1-2.19-1.49.8.8,0,0,1,0-.69A26.55,26.55,0,0,1,153,244.37Z"/><path class="cls-116" d="M294.42,84.51l.57,0c3.52,3.16,6.28,7,9.45,10.48.16.53.32,1.05.47,1.57-2.09-.32-2.74-2.42-4-3.62-2.3-2.16-4.13-4.86-6.25-7.26A1,1,0,0,1,294.42,84.51Z"/><path class="cls-117" d="M102,351.46l2,.47.32-.08a2,2,0,0,0,1.53-2.24,4,4,0,0,1,1.07-3.18c-1-1.91.45-3.36,1-5l.56,0c-1.08,3-1.13,6.27-1.48,9.43a2.45,2.45,0,0,1-1.79,2.17C103.67,353.59,102.84,352.45,102,351.46Z"/><path class="cls-118" d="M210.94,310l.6-.08c.08,0,.19,0,.24,0,2.78,2.49,1.71,9.38-1.71,11l-.64-.08C212,317.58,211.92,313.86,210.94,310Z"/><path class="cls-110" d="M153.46,376a23.54,23.54,0,0,1,4.32,8.05c.74,2-1.66,2.71-2.71,4l-.63-.05a8.2,8.2,0,0,1,1.27-1.52c1.76-1.3,1.43-2.75.53-4.37A29.48,29.48,0,0,1,153.46,376Z"/><path class="cls-119" d="M91.49,188c-2.26-1.17-4.95-1.33-7-3a.46.46,0,0,1,.14-.69c.88-.33,1.61.14,2.37.43a84.45,84.45,0,0,0,9.71,3c.7.18,2,0,1.63,1.45a3.25,3.25,0,0,1-2.85-.2h0C94.17,188.58,92.77,188.52,91.49,188Z"/><path class="cls-42" d="M125.49,380.94l1,1-12.58-2.76a1,1,0,0,1-.92-.73l6,1A7.94,7.94,0,0,1,125.49,380.94Z"/><path class="cls-54" d="M170,368.49l-.09.56a4.38,4.38,0,0,1-.69-5.6,2.31,2.31,0,0,0-.19-2.62c-1.69,1.13-1.1,3.22-2,4.62,0-.83,0-1.67,0-2.5-.66-1.3.25-2.21.89-3.08s1.45-.53,2.07.18a3,3,0,0,1,.65,2.55A22.11,22.11,0,0,0,170,368.49Z"/><path class="cls-120" d="M94.05,350.41,94,351a1,1,0,0,1-1.15.17c-3.23-2.16-7-3.18-10.34-5.17a.93.93,0,0,1-.52-1l1.09-.05C86.78,346.63,90.69,348,94.05,350.41Z"/><path class="cls-108" d="M111.74,252.34a35.15,35.15,0,0,0-4.87,7.47A1,1,0,0,0,107,261v.5c-.73,0-1.63-.37-1.29-1.09a37.48,37.48,0,0,1,4.88-7.89A.93.93,0,0,1,111.74,252.34Z"/><path class="cls-121" d="M92.56,290l-1.1-.06c2-1,3.27-.56,4.21,1.68,1.06,2.53,1.94,4.8-.66,6.88l0-.55A8.16,8.16,0,0,0,92.56,290Z"/><path class="cls-122" d="M202.9,166.86l.06.64-10,6,4.59-3.94C198.81,167.62,200.74,167,202.9,166.86Z"/><path class="cls-84" d="M160.46,112l.54-1,5.45-5h1C165.3,108.19,163.7,111.05,160.46,112Z"/><path class="cls-20" d="M166.38,338,149,338c.56-.68,1.35-.51,2.07-.51q6.66,0,13.34,0C165.08,337.46,165.89,337.21,166.38,338Z"/><path class="cls-58" d="M132.86,237.89c-1.5.33-2,2.37-3.84,2.18,1.68-1.44,3.29-3,5-4.31,2.42-1.84,3.76-1.6,5.86.79-.63.47-1.2.09-1.78-.13l-.56-.26a2,2,0,0,0-1.73.07l-.55.28C134.48,237,133.84,237.71,132.86,237.89Z"/><path class="cls-123" d="M323,106.89l.84.22,5.11,8.87,0,1.07C327,113.64,324.55,110.51,323,106.89Z"/><path class="cls-13" d="M225,221.49l-1.54,1.44a68.31,68.31,0,0,1-8.31,2.22l-.21-.22c.23-1.43,1.53-1.47,2.5-2,2.76-.42,5.16-1.9,7.81-2.65C225.78,220.86,225.36,221.17,225,221.49Z"/><path class="cls-42" d="M77.35,126A26.86,26.86,0,0,0,83,119.91a4.23,4.23,0,0,1,2.45-1.55.81.81,0,0,1,.24.64c-2.2,2.43-3.86,5.36-6.64,7.26a1.29,1.29,0,0,1-1.38-.2A.46.46,0,0,1,77.35,126Z"/><path class="cls-1" d="M239.48,210l.92-.59c-1.9,2.73-3.25,5.93-6.47,7.51a1.43,1.43,0,0,1,.15-1.33C235.79,213.68,236.88,211.12,239.48,210Z"/><path class="cls-124" d="M66,170.54l.14-.7c2,.8,2.9,2.58,4,4.17a9.48,9.48,0,0,0,2.51,2.69,1.8,1.8,0,0,1,.66,1.24.93.93,0,0,1-.33.62C69.55,176.8,68.24,173.24,66,170.54Z"/><path class="cls-125" d="M67,256.45l-1,.42c-.52-1.78,1.15-2.35,1.93-3.38,1-1.37,1.56-2.53-.38-3.51.68-.81,1.51-1.1,2.36-.39a1.83,1.83,0,0,1,.39,2.28c-.28.68-.54,1.38-.81,2.07Z"/><path class="cls-126" d="M255.93,148.52l0-1.1c.44-.06.93.09,1,.46.65,2.13,1.72,4.21,1,6.54l-.06,1.6C257,153.6,255.85,151.21,255.93,148.52Z"/><path class="cls-127" d="M203,70.55c0-.34,0-.68,0-1,1.85-1,2.89-2.81,4.51-4,.76-.57,1.32-1.52,2.43-1.55C208,66.59,205.46,68.51,203,70.55Z"/><path class="cls-108" d="M241.86,207.32c1-3.08,3-5.58,4.56-8.36-.35,3.58-3.11,6-4.46,9A.47.47,0,0,1,241.86,207.32Z"/><path class="cls-128" d="M85.49,119l-.06-.61c2-2,4.7-2.91,7-4.38h1a.63.63,0,0,1,.16.44c0,.15,0,.23-.06.23A25.26,25.26,0,0,1,85.49,119Z"/><path class="cls-84" d="M159.47,118.49c-1.66.29-3.27,1-5,.49,2.47-1.37,5.37-1.06,8-2a.78.78,0,0,1,1,0C162.45,118.33,160.72,117.79,159.47,118.49Z"/><path class="cls-129" d="M84.51,184.44l0,.56c-2.62-1.11-5.29-2.13-7.46-4.06a.71.71,0,0,1-.12-1C79.64,181.11,82.59,181.91,84.51,184.44Z"/><path class="cls-60" d="M94,197.48c0,.34,0,.68,0,1-2.44,1.91-4.57,4.26-7.51,5.5a17.84,17.84,0,0,1,4.56-4A14.25,14.25,0,0,0,94,197.48Z"/><path class="cls-88" d="M197,337.52l0,.57c-1.1,1.21-1.32,2.83-1.81,4.27a4.54,4.54,0,0,1-2.15,2.8l-.08-.69a5,5,0,0,0,1.64-2.88C194.92,340.06,195.13,338.26,197,337.52Z"/><path class="cls-15" d="M152.54,123.91l-1.08.1c-2,.4-5.62-1.34-6.49-3.11a1.81,1.81,0,0,1,1.56,0C148.35,122.29,150.75,122.48,152.54,123.91Z"/><path class="cls-23" d="M215.11,225.15a32.32,32.32,0,0,1,8.31-2.22c-2.59,1.69-5.77,1.75-8.52,3Z"/><path class="cls-130" d="M304.9,138.46l-2,.49c1.51-2.51,3.47-4.44,6.48-5l.05.55Z"/><path class="cls-42" d="M250.88,156.54,250,156c-.87-.81-.65-2-1-3,0-1.45-.71-2.87-.25-4.35a.44.44,0,0,1,.68-.12A31.18,31.18,0,0,1,250.88,156.54Z"/><path class="cls-131" d="M163.48,117l-1,0c2.71-.93,4.91-2.81,7.48-4,0,.18,0,.36,0,.54C167.77,114.62,166.18,116.83,163.48,117Z"/><path class="cls-132" d="M57.51,168.47c0,.17,0,.33,0,.5-3.17.42-6.34,2.24-9.53.06C51.22,170.13,54.33,168.71,57.51,168.47Z"/><path class="cls-133" d="M68,203C65.79,204.43,65,207.53,62,208c1.41-1.43,3.07-2.63,4-4.5C66.62,203.21,67.1,202.42,68,203Z"/><path class="cls-134" d="M234.38,215.89l-.45,1.06q-3,1.56-5.9,3.13l-.21-.29c.08-1,1-1.25,1.52-1.8C230.89,217,232.26,215.53,234.38,215.89Z"/><path class="cls-135" d="M245.43,26.48l.52,0c-1.48,1.87-2.27,4.42-5,5Z"/><path class="cls-136" d="M95.49,189l3,0a6.12,6.12,0,0,1,4,1v.52C100,190.49,97.58,190.57,95.49,189Z"/><path class="cls-18" d="M72.89,121.92a15.75,15.75,0,0,1,3.71-4.79l1.33-.25C76,118.33,74.91,120.57,72.89,121.92Z"/><path class="cls-48" d="M138,383.94c1.68-.35,3.59.71,5.06-.86.45-.69,1.11-.62,1.78-.49.59.28,1.29.48,1.14,1.37-1.73-.69-3.28.58-4.94.46C140,384.35,138.88,384.86,138,383.94Z"/><path class="cls-109" d="M146.53,121l-1.63.09c-1.56.18-2.57-.8-3.61-1.72a1.33,1.33,0,0,1-.38-1.28h1C143.2,119.42,145,120,146.53,121Z"/><path class="cls-42" d="M252,176.5c-.08-2.66-1-5.32,0-8C251.8,171.18,252.91,173.84,252,176.5Z"/><path class="cls-137" d="M70,261a52,52,0,0,0,8-.1A12.84,12.84,0,0,1,70,261Z"/><path class="cls-138" d="M42,156.52c.21.23.44.45.64.69s.27,1.31,1.06,1c.26-.09.28-.85.41-1.31.46.63.8,1.28.22,2a.88.88,0,0,1-1.1.3A2.37,2.37,0,0,1,42,156.52Z"/><path class="cls-30" d="M76.91,180.08l.12.86-4.1-2.38.09-.64C75,177.41,76,178.75,76.91,180.08Z"/><path class="cls-137" d="M76.93,257.07c0-1-1.06-1-1.47-1.56,1.94,0,2.88,1.07,3.06,2.92l-.67.14C77,258.4,76.81,257.83,76.93,257.07Z"/><path class="cls-48" d="M132,383c2,.32,4.22-.64,6,.94C136,383.35,133.87,384,132,383Z"/><path class="cls-139" d="M249.41,148.53a3.73,3.73,0,0,0-.47,0c-.67-1.38-1.68-2.68-1.06-4.37.05-.24.09-.47.13-.7A6.27,6.27,0,0,1,249.41,148.53Z"/><path class="cls-140" d="M136,224c0-2,0-4,0-6A8,8,0,0,1,136,224Z"/><path class="cls-112" d="M146,384l-1-1a3.66,3.66,0,0,1,3.42-.07l1.15.1A3.75,3.75,0,0,1,146,384Z"/><path class="cls-94" d="M42,222.5a3.31,3.31,0,0,1-.53-4.56Z"/><path class="cls-109" d="M323.39,85.47l-1,1.51-1.94,1.55A4.22,4.22,0,0,1,323.39,85.47Z"/><path class="cls-42" d="M252,165.49a8.7,8.7,0,0,1,0-5.5A18.77,18.77,0,0,1,252,165.49Z"/><path class="cls-94" d="M42.94,216.43l2.5-2.5A2.28,2.28,0,0,1,42.94,216.43Z"/><path class="cls-141" d="M282.37,85,283,85c-.14,1.57-1.11,2.07-2.54,2l-.58,0A4.51,4.51,0,0,1,282.37,85Z"/><path class="cls-140" d="M133.93,215.54,134,215c1.1.48.9,1.72,1.45,2.52l-.57,0A2,2,0,0,1,133.93,215.54Z"/><path class="cls-42" d="M252,168.52l0-3C252.89,166.49,253.5,167.49,252,168.52Z"/><path class="cls-136" d="M91.49,188a7.8,7.8,0,0,1,4,1C94,189.42,92.71,188.77,91.49,188Z"/><path class="cls-134" d="M225,221.49c.16-.33.33-.66.5-1l.18-.28a1.87,1.87,0,0,1,2.15-.42l.24.29A7.18,7.18,0,0,1,225,221.49Z"/><path class="cls-54" d="M165.93,370.44c.34-1.31-.32-2.74.51-4C166.27,367.78,167,369.22,165.93,370.44Z"/><path class="cls-35" d="M138,236l1.94.59.5,1,0,.54A2,2,0,0,1,138,236Z"/><path class="cls-140" d="M130,226.47c1.07-.91,2.34-.3,3.51-.46C132.42,226.91,131.15,226.32,130,226.47Z"/><path class="cls-54" d="M160,356.46c0,1,.67,2.16-.44,3C159.6,358.47,159.14,357.37,160,356.46Z"/><path class="cls-42" d="M251.93,180a3.74,3.74,0,0,1,0-3.5A8.1,8.1,0,0,1,251.93,180Z"/><path class="cls-1" d="M241.86,207.32c0,.23.07.46.1.69-.44.56-.75,1.27-1.56,1.44C240.47,208.46,241.2,207.91,241.86,207.32Z"/><path class="cls-142" d="M68,203l-2,.55c.33-.93,1.28-1.08,2-1.54l.23.2A.68.68,0,0,1,68,203Z"/><path class="cls-96" d="M114.43,200c-1-.21-2.11.4-2.94-.56C112.46,199.69,113.59,199.08,114.43,200Z"/><path class="cls-137" d="M78.4,260.42c0-.65.09-1.31.13-2C79.65,259.19,79.78,259.86,78.4,260.42Z"/><path class="cls-117" d="M108.48,341.47a6,6,0,0,1,1-2.52C109.49,339.93,109.63,341,108.48,341.47Z"/><path class="cls-117" d="M2.5,333c-.77-.9-.28-2-.49-3C2.92,330.85,2.38,332,2.5,333Z"/><path class="cls-118" d="M208.46,321.48c-.88.89-2,.32-3,.49C206.33,321.06,207.46,321.64,208.46,321.48Z"/><path class="cls-63" d="M212,102.45c-1-.1-2.15.42-3.06-.45C210,102.1,211.09,101.65,212,102.45Z"/><path class="cls-118" d="M207,307.47a3.07,3.07,0,0,1,2.51,1A2.84,2.84,0,0,1,207,307.47Z"/><path class="cls-48" d="M128.45,382.54c1.05-.11,2.13-.49,3.06.39C130.47,383,129.38,383.34,128.45,382.54Z"/><path class="cls-48" d="M329.86,78.46c0,.72-.84.84-1.06,1.41l-.81.23A2.26,2.26,0,0,1,329.86,78.46Z"/><path class="cls-143" d="M209.46,284.47a2.84,2.84,0,0,1,1,2A1.77,1.77,0,0,1,209.46,284.47Z"/><path class="cls-42" d="M251.42,182.47l-.39.06a2.29,2.29,0,0,1,.88-2.06C252.24,181.26,251.66,181.82,251.42,182.47Z"/><path class="cls-142" d="M87,195c0-.83,0-1.66,0-2.48A1.63,1.63,0,0,1,87,195Z"/><path class="cls-144" d="M157.48,354.47a3,3,0,0,1,1-2A1.77,1.77,0,0,1,157.48,354.47Z"/><path class="cls-142" d="M69.47,200.48l0,.53c0,1-.49,1.37-1.46,1L68,202A3.69,3.69,0,0,1,69.47,200.48Z"/><path class="cls-88" d="M186,352c0,.19.05.38.07.57L185,354A1.64,1.64,0,0,1,186,352Z"/><path class="cls-144" d="M158.46,352.47a3.16,3.16,0,0,1,1-2A1.74,1.74,0,0,1,158.46,352.47Z"/><path class="cls-113" d="M250,132l1,.52.24.23A1,1,0,0,1,251,134l-.08.06A3,3,0,0,1,250,132Z"/><path class="cls-145" d="M104,351.93c-2.46-2.29-5.79-3.06-8.55-4.88-1.4-.92-3-1.72-4.51-2.52a5.71,5.71,0,0,0-5.27-3.08,2.33,2.33,0,0,1-1.22-.12,9.24,9.24,0,0,0-7.32-1.74,2.68,2.68,0,0,1,2.82-1c8.21.88,16.44.19,24.65.39,2.94.07,2.86,0,2.08,2.72-.44,1.54-1.29,3.15-.22,4.79-.1,1.14-.26,2.27-.28,3.42,0,1.33-.44,2.46-2.19,2.05Z"/><path class="cls-114" d="M104,351.93a1.77,1.77,0,0,0,1.83-2.12,5.65,5.65,0,0,1,.64-3.35l.46,0c-.15,1.38-.49,2.73-.54,4.15C106.34,352.16,105.65,352.45,104,351.93Z"/><path class="cls-146" d="M208.33,95.37h-8.85v-.25h8.87Z"/><path class="cls-147" d="M253.93,19c1.15-1.37,2.17-2.9,4-3.52C256.8,16.89,255.84,18.48,253.93,19Z"/><path class="cls-135" d="M249.42,23c.46-.69.6-1.64,1.56-1.93C250.74,21.92,250.66,22.91,249.42,23Z"/><path class="cls-84" d="M154.48,119c-.43-.1-.81-.36-.71-.81s.65-.65,1.15-.72C154.77,118,154.63,118.48,154.48,119Z"/><path class="cls-135" d="M246,26.51a2.74,2.74,0,0,1,1-2A1.71,1.71,0,0,1,246,26.51Z"/><path class="cls-135" d="M247.41,24a2,2,0,0,1,2-1A2.17,2.17,0,0,1,247.41,24Z"/><path class="cls-148" d="M128,228c0,.83,0,1.66,0,2.5C126.47,229.64,127.17,228.81,128,228Z"/><path class="cls-44" d="M210.07,321c2.57-3,3.22-7.91,1.47-11.09-.34-1.85-1.82-2.38-3.33-3-2.43-.93-2.61-2-.74-3.72,4.51-4.09,6.22-12.28,3.54-16.89-.73-2.34-1.24-4.66-3.6-6.25a6.82,6.82,0,0,1-2.91-6.05,15.13,15.13,0,0,0-.52-3.43c-.44-2.47.18-3.17,2.71-3.17h41.46c3.24,0,3.84.59,3.84,3.72q0,28.23,0,56.45c0,1,.29,2.22-1,2.87l-.6,0c-.17-.73.47-1.09.72-1.63.09-19.33,0-38.66,0-58a2.91,2.91,0,0,0-.14-1c-.75-1.4-2.08-1.15-3.3-1.15h-40.9c-.32,0-.65.1-.82,0h41.71c1.31,0,2.74-.26,3.39,1.38,0,19.61.15,39.21-.06,58.82a2.72,2.72,0,0,1-2.77,1.28,10.41,10.41,0,0,0-1.25,0H12.47c-.5,0-1,0-1.5,0-1.56.1-2.3-.52-2.23-2.18q.15-3,0-6c-.08-1.74.61-2.36,2.34-2.34,5.57.07,11.15,0,16.73,0,5.92,0,11.83,0,17.74,0a4.47,4.47,0,0,0,2.45-.25c.45-1.3,1.57-2.25,1.56-3.85,0-2.16-1.12-3.13-3-3.12-12.31.08-24.63-.31-36.93.22-1,0-1.25,0-1.25-1.12.09-13.49.15-27,.09-40.46,0-2.31.53-2.86,3-2.76,6.9.27,13.81.1,20.72.1h94.16c1.23,0,2.81-.71,3.63-.17,1.38.9-.72,2-.53,3.26.4,2.63-.76,5.24-.44,7.92.22,1.78-.5,2.69-2.4,2.51a1.56,1.56,0,0,0-1.59.48l-3,1H109c-1.32-.33-2.64-.91-4,0-2,.66-4-.2-6,.49-2.68.32-5.32.85-8,1.4s-4.7,1.26-6,3.64h0c-.42.72-.65,1.59-1.54,1.94-.59.37-.43,1-.51,1.53-.4,1.49-.49,3-1,4.5h0a4.73,4.73,0,0,0,0,3.47h0c.7,1.26-.23,3.12,1.47,4h0A6.54,6.54,0,0,0,86,306h0a26.87,26.87,0,0,0,11,.52h0c.93-.59,2.08.14,3-.47h0a7.68,7.68,0,0,1,5.49-.52c3.27-.8,5.71.1,7,3.37.06.16.61.12.94.17a4.77,4.77,0,0,0,3.76,2.71c3.65.62,3.73.92,3.68,4.83a16.49,16.49,0,0,0,.65,5.38c.3.94.6,1.95,1.84,2.09,2.5,1.52,4.95,3.26,8.15,2.2,2.5-.84,5.17,1,7.54-.27s4.37.25,6.55.23a20.29,20.29,0,0,0,11.77-3.84c.68-.48,1.24-1.23,2.1-1.27,4.64-.24,6.89-3.71,9.33-6.88a4,4,0,0,0,.56-4.65,21.15,21.15,0,0,1-.93-2.57c-1.63-4.24-.66-5.7,3.95-6,2.38-.14,4.77.36,7.13-.69,1.46-.65,8,3,8.56,4.37.69,1.77.28,2.91-1.71,3.26a2.93,2.93,0,0,0-1.17.31c-4,2.87-3.83,10.83.29,13.44a13.56,13.56,0,0,0,5.56,2c4.1.5,8.28,1.45,12.39-.31a8.3,8.3,0,0,1,3.61-.6A2.84,2.84,0,0,0,210.07,321Z"/><path class="cls-149" d="M48,319.47c-.83.86-1.89.48-2.85.48-11.07,0-22.15.08-33.22,0-2.35,0-3,.78-3,3,.08,7,0,7,7,7H247c1.42,0,2.85.11,4-1,.14.11.19.22.14.33s-.09.17-.14.17l-.5,1H11.83c-3.39,0-3.37,0-3.33-3.41a40.21,40.21,0,0,0,0-5.49c-.22-1.79.31-2.15,2.06-2.14C23,319.52,35.5,319.48,48,319.47Z"/><path class="cls-150" d="M182.32,269H162.91c-3.74,0-3.74,0-4.16,3.8-.53-1.56.13-3.14-1.51-4.29h25.14Z"/><path class="cls-151" d="M161.43,284.32c-2.16-.08-2.58-1.79-1.69-6.8C160.74,279.68,158.6,282.62,161.43,284.32Z"/><path class="cls-133" d="M68.05,202.05a1.73,1.73,0,0,0,1.46-1H70C70,202.31,68.89,202.57,68,203Z"/><path class="cls-152" d="M138,236a5.32,5.32,0,0,0,2.4,2.1,19.56,19.56,0,0,0,4.08,1.64c2.9.89,5.17,2.92,7.48,4.82a8.49,8.49,0,0,1,1.79,6,17.88,17.88,0,0,0,.84,7.06c.46,1.43.09,2.68-1.71,2.87a4.31,4.31,0,0,0-3.13,2.17c-.45,2.43,1.19,4.41,1.51,6.71a24.55,24.55,0,0,1,.21,4.3c-.18,4.53,2.34,8.57,1.8,13.21a12.47,12.47,0,0,0,1.2,6.7c.83,1.66.29,3.77.21,5.67s.33,2.92,2.27,3.51a17.49,17.49,0,0,1,4.53,2c1.39,1.78,2.48,3.61,2.29,6.05a4.25,4.25,0,0,1-2.24,3.64,2.87,2.87,0,0,1-3.76-.93,2.79,2.79,0,0,0-4.83,1.92,4.83,4.83,0,0,1-3.8,4.27c-2.52.3-3.67-.47-4.67-3.28-.45-1.25-1-2.25-2.48-2.45-1.69-.23-2.4.86-2.95,2.12-1.4,3.24-3.59,4.95-7.36,4.43-1.94-.27-3-1.58-4.39-2.56-.75-1.09,0-2.43-.56-3.54a2.16,2.16,0,0,1,.17-1.58c.27-.78,1.16-.82,1.63-1.37a25.73,25.73,0,0,0,2.91-2.71,2.13,2.13,0,0,0,.51-2.91c-.75-1.06-1.81-2.14-3.31-1.62-2.09.72-4.33.61-6.43,1.52s-4.54-.59-5.42-2.78a4.86,4.86,0,0,1,1.89-5.67,14.31,14.31,0,0,0,3.15-2.41c2.91-2.87,5.22-3.16,8.65-1.08s6.48.47,6.49-3.55q.06-13.09.28-26.19a6.37,6.37,0,0,0-.78-3.56,5,5,0,0,0-3.14-.53c-7.57,0-15.14,0-22.71,0-.78,0-1.92.46-2.27-.41s.33-1.81.94-2.66c3.42-4.82,8.35-7.75,13.12-11,3.76-2.53,7.77-4.76,11.14-7.85.3-1,1.16-1.51,2-2.06h0a2.62,2.62,0,0,1,2.49,0Z"/><path class="cls-90" d="M136.46,260.52a3.22,3.22,0,0,1,1.08,2.9q0,13.66-.08,27.35a4.79,4.79,0,0,1-2.88,4.3c-1.46.82-2.74.36-4.08-.68-2.88-2.21-5.8-1.84-8.47.76a10.9,10.9,0,0,1-3.29,2.58c-1.54.65-2.18,3.61-1.44,5.33a4,4,0,0,0,5.41,2.16c2-1.06,4.23-.34,6.21-1.51,1.05-.63,2.25.77,3.09,1.61a2.29,2.29,0,0,1,.19,3c-1,1.27-1.91,2.76-3.68,3.16.48-1.19,1.57-1.84,2.4-2.73s1.51-1.5.86-2.59-1.76-1.82-2.67-1.5c-1.82.64-3.75.1-5.57,1.08-3.36,1.81-4.52.81-6.91-2.17-1.34-1.67-.3-5.21,1.84-6.57a21.12,21.12,0,0,0,3.27-2.68c2.67-2.59,5.68-3,8.77-.9,1.39.94,2.71,1.35,4.17.63s1.6-2.32,1.62-3.88c0-2.22-.32-4.43.62-6.63.67-1.56-.88-3.05-.72-4.82.43-4.66.56-9.34.81-14a5.8,5.8,0,0,0-.56-3.15Z"/><path class="cls-11" d="M127.53,317.94c1.4.48,2.2,2,3.87,2.08,4.4.31,5.19,0,7.27-4,.7-1.33,1.17-2.71,3.18-2.53s2.54,1.45,3,2.88c.65,2,1.77,3.52,4.08,3.06a4.26,4.26,0,0,0,3.6-4.13,3.12,3.12,0,0,1,5.15-2.26c1.38,1.1,2.54,2.27,4.28.74a5.11,5.11,0,0,0,1-5.93c-.5-1-1-1.89-1.56-2.84a.35.35,0,0,1,.61-.05,7.57,7.57,0,0,1,2.13,5.85,4.47,4.47,0,0,1-2.44,4.07,3.42,3.42,0,0,1-4.27-1,2.28,2.28,0,0,0-2.72-.65c-1,.35-1.15,1.26-1.25,2.23-.22,2.3-2.33,4.53-4.33,4.7-2.74.23-4.21-.76-5.12-3.56-.36-1.1-.86-1.94-2.15-2.09-1.49-.18-2.09.69-2.47,1.9-1.49,3.3-3.75,5.16-7.67,4.61-2.14-.3-3.47-1.54-4.83-2.93,0-.08.1-.16.14-.24A.37.37,0,0,1,127.53,317.94Z"/><path class="cls-11" d="M126.89,312.85l.14,1.56a7.67,7.67,0,0,1,0,3.47l-.15.15A5,5,0,0,1,126.89,312.85Z"/><path class="cls-22" d="M189.16,266.86c-.14-1.07-1-2.33.48-3.06s2.3.35,3.2,1.18c2,1.9,2.6,4.44,3.06,7-.13,2.74,1,5.3,1.15,8,.13,1.92,2.15,3.24,4,4.07a4.13,4.13,0,0,1,2.58,3.09,28.27,28.27,0,0,1,.13,8.9,2.63,2.63,0,0,1-2.2,2.42c-2.39,2.79-3.81,5.68-2.11,9.53.74,1.67.48,3.79,2.79,4.43a1.49,1.49,0,0,1,.43.5.73.73,0,0,0,.51.45c2.36.6,2.36.6,1.13,2.95-2.11.31-4,1.58-6.23,1.34a7.8,7.8,0,0,0-2.68-.28c-2-.27-2.81-1.71-3.13-3.37s1-2.24,2.21-2.86a3.68,3.68,0,0,0,1.74-3.05,8.56,8.56,0,0,0-2.29-7.2,9.06,9.06,0,0,0-2.47-2c-.38-.43-1-.49-1.43-.73a7,7,0,0,0-2.36-.33c-2.64-1-3.79-2.89-2.82-5.63.68-1.95,1.3-4.05,3-5.53a14.62,14.62,0,0,0,4-4.91l-.05.05a1.55,1.55,0,0,0,.59-1.54c-.22-3.52.67-7.11-.74-10.54a5.8,5.8,0,0,0-1.92-2.79Z"/><path class="cls-31" d="M202.45,313c-3.38-.28-2.75-3.41-3.7-5.35-1.34-2.73.3-7.7,2.81-9.12-.27.44-.79.76-.68,1.39-2.66,3.13-1.67,6.56-.68,9.9a3.47,3.47,0,0,0,3.65,2.49c1.57,0,3,.54,3.06,2.22s-1.4,2.08-2.75,2.41c-2.81.68-5.57,1.48-8.54,1-2.19-.33-3.05-1.81-3.73-3.56s.88-2.38,1.82-3.14a6,6,0,0,0,1.27-8.11c-.47-.68-1.09-1.28-1-2.2,3.16,2.16,2.72,5.39,2.38,8.5a2.72,2.72,0,0,1-1.66,2c-1.08.47-2.3,1.14-2,2.47s1,2.87,2.84,3c.75.59,1.73-.06,2.49.46,2.32.13,4.32-1.17,6.53-1.5.34-.7,1.49-1.22.49-2.22C204.2,313.21,203.14,313.76,202.45,313Z"/><path class="cls-31" d="M190.46,298a1.71,1.71,0,0,1,1,1c-7.65-1.1-9.15-4-5.34-10.79a19.35,19.35,0,0,1,2.87-3.09c1-1.06,1.94-2.16,2.91-3.25a5.76,5.76,0,0,1-2.31,3.7c-2.13,1.6-3.2,3.89-4.24,6.21-1.2,2.67-.07,5.09,2.6,5.71C188.71,298.07,189.7,297.41,190.46,298Z"/><path class="cls-31" d="M189.78,267.05c2.42.93,2.68,3.37,3,5.28.5,2.63.15,5.42.14,8.15a1.34,1.34,0,0,1-1.1,1.44C192.19,276.82,193.14,271.63,189.78,267.05Z"/><path class="cls-153" d="M162,304.94l-.61.05a17,17,0,0,0-3.4-1.45c-3.23-.64-4-2.62-3.66-5.6.39-3.24-.8-6.3-1.38-9.42a8,8,0,0,1-.23-2.44,14.79,14.79,0,0,0-.69-6.34c-.9-2.77-.81-5.74-1-8.64a17.22,17.22,0,0,0-1-4.76,7.37,7.37,0,0,1-.57-3.86c.17-.21.34-.2.51,0-.35,2.58,1.5,4.63,1.75,7.14.13,1.2-.12,2.36,0,3.57.82,5.94,1.81,11.85,2.52,17.8.37,3.12.6,6.21.68,9.33,0,1.13.79,1.42,1.67,1.86C158.46,303.08,160.65,303.24,162,304.94Z"/><path class="cls-75" d="M150,262.48h-.51a4.24,4.24,0,0,1,3.25-2.44c1.81-.25,1.86-1.31,1.44-2.7a11.13,11.13,0,0,1-.67-3.91,16.3,16.3,0,0,0-1.55-8.91l1,.58c2,4.6.85,9.67,2.09,14.39a2.72,2.72,0,0,1-2.61,1.46C151.27,260.92,150.79,262,150,262.48Z"/><path class="cls-35" d="M135.49,236l-2,2.06-.68-.18C133.71,237.22,134.15,236,135.49,236Z"/><path class="cls-59" d="M174.92,117.42l0-.55c2.61-2.14,5.19-4.32,7.85-6.4,1.13-.88,2.78.14,2.82,1.85a3.63,3.63,0,0,0,.78,2.76c.73.72,1.29,2.14,2.49,1.73a3.68,3.68,0,0,0,2.54-3.11,13,13,0,0,0,0-3c-.58-4.75,1.61-7,6.09-7.61,3.41-.44,6.79-1.58,10.31-1,1.69,1.47,3.94.54,5.82,1.37,4.21,1.85,9,2.53,12.4,6-.94.77-1.73.11-2.5-.3a44.61,44.61,0,0,0-15.77-5.23,27.31,27.31,0,0,0-12,1.32,3.41,3.41,0,0,0-2.56,3.56c0,1.16,0,2.33,0,3.49a6.08,6.08,0,0,1-1.55,4.11q-2.58,3.1-5.56.31a6.16,6.16,0,0,1-2-3.09c-.37-1.54-1.11-1.34-2.13-.61-1.68,1.23-3.26,2.59-5,3.77C176.31,117.18,175.79,117.86,174.92,117.42Z"/><path class="cls-154" d="M41.6,153c1.28-1.68,1.13-4.3,2.08-6.69,1.84-4.67,4.82-6.5,9.57-7.18,2.12-.3,3.66-.64,5,1.07,1,1.24.33,5.08-.82,6.31a1.65,1.65,0,0,1-1.34.53c-5.53-.22-8.61,3.42-11.56,7.31-.47.61-.88,1.65-1.82,1.4S41.45,154.49,41.6,153Z"/><path class="cls-152" d="M174.92,117.42c2.5-1.88,5-3.73,7.49-5.67,1.4-1.1,2.08-.93,2.09.91,0,2.2,1.54,3.49,3.08,4.56s4.61-1.24,4.81-3.89c.12-1.57.05-3.16,0-4.73,0-2.36,1.18-3.5,3.38-4.18a29,29,0,0,1,14.85-.84,45.69,45.69,0,0,1,12.91,4.83c.78.45,1.46,1.1,2.45,1h0A34.55,34.55,0,0,1,236.56,122a11.41,11.41,0,0,0,2,2.87,14.4,14.4,0,0,1,4.25,8.65,13.28,13.28,0,0,0,1.45,3.93c2.28,4.78,4.65,9.51,4.88,14.95a1,1,0,0,0,.4.61c.73.91.18,2,.47,3a42.27,42.27,0,0,1,1,13.41c-.27,4.19.38,8.38-.47,12.58-1.88,9.2-4.58,18-10.08,25.82a3.63,3.63,0,0,0-.93,2.25l-5.1,5.86a22.67,22.67,0,0,0-5,2.57c-1.25.82-2.76,1.13-4,2h0a20.74,20.74,0,0,1-8,3,.81.81,0,0,1-.19-1c1.65-2,4.38-2.64,5.8-4.89a25.44,25.44,0,0,0,8-8.57,13.71,13.71,0,0,1,2.48-2.74c1.58-2.61,3.9-4.69,5.3-7.45a7.85,7.85,0,0,0,1-2.22,8.71,8.71,0,0,1,1.9-4,14.5,14.5,0,0,0,3.67-8.79c.09-2.64,1.6-5,1.4-7.79-.62-8.66-7.83-15.56-16.51-13.59-2.22.51-4.71-.24-6.72,1.35-3,2.36-6.52,4-9.49,6.47a4.58,4.58,0,0,1-1,.36c-2.11.4-3.66,1.95-5.27,3.09-3.22,2.26-6.91,3.94-9.51,7-.92,1.09-2.4,1.46-3.31,2.58a4.61,4.61,0,0,1-.48.51c-4.81,5.34-9.47,10.76-11.61,17.83-.43,1.14-.32,2.37-.7,3.51a15.5,15.5,0,0,0-.09,1.8c0,1.54-.23,3.12.57,4.56a4.23,4.23,0,0,1,.24.68c.29,1.14,0,2.36.49,3.46.45.94,1,1.83,1.41,2.78,1,2.43,2.91,4.39,3.9,6.85a.77.77,0,0,1-.28.62c-3.75-1.14-4.88-4.52-6.4-7.55a14,14,0,0,1-1.6-7.37,6.15,6.15,0,0,1,0-3.53c-.14-1.51-.72-3,0-4.53.13-.67-.21-1.46.49-2,.86-1-.17-2.35.62-3.36q3-6,6-12.11a52.92,52.92,0,0,1,16.6-15c2-1,3.9-2.06,5.87-3.06.85-.43,1.33-1.06.95-2s-1.21-1.83-2-1.39c-1.95,1-4.29,1.16-5.95,2.75l-5.39,2.66c-2-.34-2.56,1.56-3.82,2.36-4.37,2.77-7.51,6.87-10.81,10.69a16.7,16.7,0,0,0-3.84,7.49h0c-2,3-3.89,6-3.45,9.86.12,1-1,2-1.09,3.14-1.34,2.79-1.37,5.77-1.21,8.76a3,3,0,0,1-2.14,3.43,18.41,18.41,0,0,0-9,7.48c-1.32,2.12-3.84,3.14-5.22,5.25-.56,1.33-.8,2.75-1.87,3.9a4.2,4.2,0,0,1-4.15,1.5,26.44,26.44,0,0,1-7.41-3.23,2.68,2.68,0,0,1-1.47-3.13,30.08,30.08,0,0,0,1.35-10.41,3.25,3.25,0,0,0-.74-2.06c-1.7-1.89-3.42-3.78-5.14-5.66-3.76-3.34-7.58-6.61-11.61-9.62a1.59,1.59,0,0,0-1.41-.3,14.5,14.5,0,0,0-2.2-1.5c-6.45-2.91-12.73-6.27-19.82-7.47-1.33-.36-2.89.25-4-1-4.66-1.5-9.46-2.57-13.95-4.59l-7.6-4.36c-1.45-.44-2.31-2-3.89-2.16l-.57-.85c-6.62-6.34-8.6-14.06-6.86-22.9.56-2.22-.29-4.62.86-6.76-.19-.88.42-1.6.53-2.42a8.79,8.79,0,0,1,2.5-5h0c1.92-5.52,5.62-9.85,9.45-14.09,2.4-2.1,3.86-5.09,6.55-6.93l8-4.54c1.82-.87,3.77-1.45,5.53-2.45h0a49.91,49.91,0,0,1,20-3.22,69.23,69.23,0,0,1,15.28,6.06c2.43,1.35,4.55,3.27,7.24,4.14L144.9,121a36.54,36.54,0,0,0,6.56,3c3.42,2,7,1.3,10.51.46A31.25,31.25,0,0,0,174.92,117.42Z"/><path class="cls-155" d="M188.44,225.92c0-.15,0-.3,0-.45,2.4-1.19,4.92-.32,7.21.05,4,.65,7.66-.26,11.37-1.34a11.74,11.74,0,0,1,4.83-.42c1.46.24,2.68-.55,3.94-1.11a2.17,2.17,0,0,1,1-.42.76.76,0,0,1,.63.35c0,.29,0,.59,0,.89l-2.56,1.46c-2.33,1.21-5,.26-7.48,1.45a19.76,19.76,0,0,1-4.36,1.69,13.59,13.59,0,0,1-6.59-.13c-1.63-.61-3.38.2-5-.46Z"/><path class="cls-156" d="M191.46,227.48c1.67.23,3.41-.44,5,.46C194.8,227.79,193.05,228.48,191.46,227.48Z"/><path class="cls-157" d="M180.44,207.47V211A3.14,3.14,0,0,1,180.44,207.47Z"/><path class="cls-59" d="M249.5,153c-1.92-.93-1.1-2.89-1.27-4.24-.42-3.25-2.19-5.89-3.26-8.82-.95-2.62-2.23-5.05-2.67-7.91a12.66,12.66,0,0,0-2.75-5.47,67.42,67.42,0,0,1-4-5.91c-2.44-3.89-5.22-7.63-9.06-10.37-.23-.17-.33-.53-.49-.8,2,.42,3.34,1.91,4.45,3.39,2.25,3,5,5.58,6.67,9.16,1.4,3.1,4.78,5.28,5.48,8.69.85,4.12,2.85,7.69,4.21,11.55a3.29,3.29,0,0,0,1.08,1.89c.33,1.46,1.3,2.77,1.06,4.37C249.13,150,249.31,151.47,249.5,153Z"/><path class="cls-44" d="M280.41,87c.81-.7,2-.94,2.54-2,1-.91,1.92-1.84,2.91-2.72,2.44-2.14,4.81-1.92,7.32.68.45.47.82,1,1.24,1.54l10.49,12c1.1,2.64,3.45,4.22,5.41,6,3.52,3.27,5.85,7.47,9.09,10.94a34.72,34.72,0,0,1,2.94,3.69c1.74,2.49,1.75,4.16-.8,5.77-2,1.26-3.24,3.1-4.92,4.56-2.44,2.11-4.84,4.28-7.25,6.42-2.46,1.28-4.37,3.27-6.48,5-4.69,4.13-9.5,8.12-14,12.45-3.14,3-6.63,5.69-9.92,8.57a2.06,2.06,0,0,0-1.49.8c-2.5,2.38-5.22,4.47-7.94,6.59-2.55,2-4.94,4.41-7.39,6.67-.35.33-.67.88-1.21.71-.73-.25-.51-1-.45-1.52.43-4.12-1.08-8.16-.19-12.39.42-2.05-1.19-4.36-2.28-6.41-.77-2.3-.49-4.91-2-7a4.35,4.35,0,0,0-.89-3.21c-1.69-2.4-1.27-5.53-2.61-8.08a13,13,0,0,1-.57-1.62c-.49-.58-.57-1.37-1-2h0c-.1-1.65-1.14-2.89-1.86-4.27-3.12-6-6.56-11.79-11.26-16.76-2.35-2.5-5.37-4.11-7.77-6.51-1.47-1.11-2.57-2.75-4.57-3.12-.59-.1-1.25-.69-.57-1.2,1.63-1.23,2.31-3.48,4.47-4.14a2.89,2.89,0,0,0,2.15-2.45c4.37-3.65,8.76-7.27,13.08-11A33.68,33.68,0,0,0,247.44,80a12.89,12.89,0,0,0,4.64-3.6,19.57,19.57,0,0,1,5.8-5.33,2,2,0,0,0,1.17-1.49c2.87-1.36,5.06-3.66,7.47-5.6,1.53-1.23,3.07-2.52,4.6-3.76s3.15-.36,4.08,1c2.72,3.84,6.36,6.89,9,10.82a15.18,15.18,0,0,1,1.7,3c-3.69,3.46-7.11,7.3-11.16,10.29s-7.21,7.06-11.3,10c-1.14.84-2.33,2.06-.84,3.51,1.25,1.21,2.62.94,4-.11C271.43,95.06,275.92,91,280.41,87Z"/><path class="cls-89" d="M141.51,119c-2.93-.14-4.78-2.46-7.11-3.73a90.37,90.37,0,0,0-15.05-6.14,1,1,0,0,1,1.27-.16c4.81.95,9.1,3.16,13.46,5.29,2.36,1.15,4.15,3.29,6.83,3.82Z"/><path class="cls-158" d="M120.62,108.93l-1.27.16c-7-.55-13.69,1.22-20.38,2.89.87-1.57,2.58-1.3,3.94-1.67,5.1-1.35,10.26-2.4,15.59-1.93A3.44,3.44,0,0,1,120.62,108.93Z"/><path class="cls-158" d="M99,112a9.19,9.19,0,0,1-5.53,2.45,3.42,3.42,0,0,1,0-.44C95.35,113.43,97,112.25,99,112Z"/><path class="cls-26" d="M66,154.53a16.06,16.06,0,0,0,.14,9.89,8.22,8.22,0,0,1,.38,2.92,5.9,5.9,0,0,0,1.8,4.23c1.65,1.63,2.62,3.75,4.1,5.5-2.84-1.24-3.44-4.45-5.56-6.32a10,10,0,0,1-.8-.91c.11-4.12-2.38-8-1.43-12.13.73-3.26-.15-6.71,1.26-9.87A17.92,17.92,0,0,1,66,154.53Z"/><path class="cls-13" d="M78.94,125.9c-.78,2.28-2.77,3.53-4.22,5.23a21.8,21.8,0,0,0-4.24,8c-.16.55-.38.9-1,.87a21.36,21.36,0,0,1,6.32-10.83,4.22,4.22,0,0,0,1.84-3.1Z"/><path class="cls-159" d="M66,154.53c0-2.23-.07-4.46-.11-6.69l.53-.43C66.28,149.78,67,152.2,66,154.53Z"/><path class="cls-26" d="M69.48,140c-.64,1.77-2,3.15-2.5,5C66.53,142.68,67.77,141.21,69.48,140Z"/><path class="cls-90" d="M174.51,203.05c.61-4.12.86-8.33,3.22-12a1.84,1.84,0,0,1,1.32-1c-1.06,2.68-3.14,5-3.12,8A9.83,9.83,0,0,1,174.51,203.05Z"/><path class="cls-152" d="M148.39,382.9c-1.13.78-2.29-.15-3.42.07l-1.92.11c-5.09.51-9.94-1-14.86-1.79a11.69,11.69,0,0,0-2.7-.35l-6.5-1.5c-.21-.24-.4-.68-.63-.7-4.48-.42-8.31-3.33-12.88-3.35-1,0-1.43-.72-2-1.27-1.27-1.15-2.33-2.46-4.21-2.92-1.44-.36-2.42-1.49-1.14-3.21a3.29,3.29,0,0,0,.19-2.89,2.76,2.76,0,0,0-2.06-2c-1.09-.31-1.74.44-2.31,1.13-2.93,3.48-4.17,3.53-7,.25-2.21-2.07-2.46-3.34-.84-6.58.69-1.39,1.82-2.72-.25-3.62-1.89-.82-2.82.56-3.39,2.17-2.16,2.75-3.33,2.56-6.11.6s-3.37-4.84-4.13-7.56c-1.07-3.83,3.06-6.63,7.38-5.24.78.25,1.57.48,2.35.72,2.42,1,4.4,2.93,7.09,3.33C91,348.6,91.87,351,94,351c3.73,2.17,7.67,4,10.53,7.45,1.16,1.93,3.22,2.88,4.84,4.3.9.8,2.42,0,2.73-.9.53-1.58,1.92-3.09.66-5.09-1.48-2.36-.67-5.14-.06-7.45.7-2.64.57-5.22.85-7.81.21-2.23,1.49-3.09,3.66-3.08,7.12,0,14.24,0,21.36,0,.75,0,2-.5,2.16.53s-.74,1.55-1.67,1.88a5.36,5.36,0,0,0-1.05.62c-4.89-.52-7.62,3.25-7.37,7.73a24.15,24.15,0,0,1-.72,4.89c-.63,4.31,1.77,7.9,2.64,11.85,4.37,5.16,8.68,10.36,15.27,12.94C150.43,379.92,150.55,381.25,148.39,382.9Z"/><path class="cls-78" d="M97,306.47c-3.71.86-7.38,1-11-.52A63.86,63.86,0,0,0,97,306.47Z"/><path class="cls-78" d="M83.49,304.46c-2.3-.67-1.82-2.36-1.47-4C83.77,301.33,82.37,303.36,83.49,304.46Z"/><path class="cls-78" d="M105.49,305.46A22.52,22.52,0,0,0,100,306C101.71,304.53,103.58,304.79,105.49,305.46Z"/><path class="cls-78" d="M82,297a7.94,7.94,0,0,1,1-4.5C83,294.06,83.1,295.65,82,297Z"/><path class="cls-78" d="M86,306a2.25,2.25,0,0,1-2.5-1.48A5.17,5.17,0,0,1,86,306Z"/><path class="cls-78" d="M82,300.45A2.69,2.69,0,0,1,82,297Z"/><path class="cls-78" d="M100,306c-.88.86-2,.33-3,.47C97.87,305.56,99,306.09,100,306Z"/><path class="cls-78" d="M83.49,291,85,289C85,290,84.85,291,83.49,291Z"/><path class="cls-152" d="M162,353.48a7.17,7.17,0,0,1,2.88-5.55,5.9,5.9,0,0,0,2.06-3c1.6-4,5.23-5,8.78-5.36,4-.46,8.12-.14,12.19-.1,2.14,0,2.21.78,1.56,2.84-1.73,5.47-5.24,10-7.51,15.19-1,1.3-2,2.34-3.71,1.12-1-.7-1.71-2.21-3.12-1.13a4,4,0,0,0-1.33,4.44,21.2,21.2,0,0,1,.16,5.22,1.65,1.65,0,0,1-.95,1.37,2.42,2.42,0,0,1-2.59,0h0a4.81,4.81,0,0,1-.34-4.4c.83-1.91-.08-4.67-1.12-4.6-2,.13-1.61,2.34-2.52,3.46a24.21,24.21,0,0,0-1,5.34c0,1.27-.18,2.81-1.62,2.94s-2-1.22-2.35-2.51c-1.44-4.74-1.75-9.41.4-14A3.91,3.91,0,0,0,162,353.48Z"/><path class="cls-45" d="M122,283.49a36.75,36.75,0,0,1-13,0l0,0a73.81,73.81,0,0,1,13,0Z"/><path class="cls-45" d="M99,284c1.93-1,4-.25,6-.49C103.06,284.47,101,283.71,99,284Z"/><path class="cls-46" d="M162.55,239.93c-1.32-2.71,0-5.18.91-7.57,1.09-2.89,3.42-5.14,4.25-8.24.57-2.12,4.11-3.91,6.18-3.59,2.21,5,5.37,9,11,10.81-2.84,3-6.3,4.69-9,7.25a39.24,39.24,0,0,0-6,6.35c-2.42,1.17-3.69,3.66-5.88,5.12-.77.51-1.45,1.49-2.24.57s-.34-2,.48-2.89a1.29,1.29,0,0,1,.43-.24c1.41-.55,3.28-.59,3.22-2.8S164.33,241.06,162.55,239.93Z"/><path class="cls-26" d="M166.46,363a5.23,5.23,0,0,1,.75-2.58c.28-.67.37-1.56,1.4-1.42a2,2,0,0,1,1.82,1.75,7.57,7.57,0,0,1,0,3,11.09,11.09,0,0,0,0,4.83l-.24.06-.25-.06c-.59-1.53-1.31-3-.16-4.68.36-.52.12-1.46.14-2.2s-.17-1.57-1.05-1.77c-1-.23-.87.76-1.12,1.29s-.54,1.21-.8,1.82Z"/><path class="cls-26" d="M170.44,368.49l2.59,0C172.16,369.83,171.29,369.72,170.44,368.49Z"/><path class="cls-160" d="M67.49,250c2.6.2,2.78.64,1.58,2.91-.81,1.54-2.69,2.18-3.13,4a4,4,0,0,0-1,2.61c-.83,1-1.67.59-1.63-.39.09-1.89-1.07-3.81.07-5.67C64.62,252.08,65.66,250.56,67.49,250Z"/><path class="cls-125" d="M63.43,253.42c-.53,1.84.34,3.63.22,5.46-.06,1,.66.91,1.34.6a1,1,0,0,1-.86,1.24c-.46.11-1-.2-.92-.55C63.63,257.92,61.39,255.59,63.43,253.42Z"/><path class="cls-161" d="M181.51,197.6c-.27,1.11.49,2.41-.62,3.36C181.34,199.88,180.59,198.59,181.51,197.6Z"/><path class="cls-162" d="M76.93,257.07l.92,1.5c.15.92,0,1.75-1.06,1.91a17.68,17.68,0,0,1-5.67,0A1.35,1.35,0,0,1,70,259.05,2.33,2.33,0,0,1,71.11,257,5.12,5.12,0,0,1,76.93,257.07Z"/><path class="cls-163" d="M92.56,290c2.93,1.07,4,4.64,2.42,8-.93.41-1.23,1.95-2.85,1.19a3.32,3.32,0,0,1-2.06-3.08C90,293.79,90.39,291.48,92.56,290Z"/><path class="cls-84" d="M250.92,132.51a2.41,2.41,0,0,1,1,2c-.31-.18-.62-.36-.92-.55C251,133.48,251,133,250.92,132.51Z"/><path class="cls-35" d="M138,236l-2.49,0C136.32,235.67,137.13,234.49,138,236Z"/><path class="cls-13" d="M225.46,220.49a6.35,6.35,0,0,1,4-2l-1.63,1.33Z"/><path class="cls-164" d="M250.94,329.47V270c-.15-.48,0-.61.49-.5q0,28.71,0,57.4C251.43,327.75,251.76,328.73,250.94,329.47Z"/><path class="cls-150" d="M251.43,269.48l-.49.5a4.82,4.82,0,0,0-3.21-1q-20.1.06-40.18,0c-1.21,0-2.56-.24-2.75,2.38-.58-2.33-.09-2.9,1.39-2.9q21.59,0,43.16,0C250.23,268.47,251,268.55,251.43,269.48Z"/><path class="cls-151" d="M122,283.47H109c3.51-1.08,7.11-.22,10.66-.46C120.44,282.94,121.32,282.71,122,283.47Z"/><path class="cls-90" d="M127.07,317.88c0-1.15,0-2.31,0-3.47.89,1.07.19,2.37.5,3.53A1.19,1.19,0,0,1,127.07,317.88Z"/><path class="cls-165" d="M194.33,269c-.29,4-.53,8-.61,12C193.62,277,193,272.92,194.33,269Z"/><path class="cls-161" d="M205.42,313.5c.92,1.3.35,2-.95,2.44.36-1.85-.39-2.39-2.11-1.79,0,0-.17-.1-.16-.11.07-.19.17-.38.26-.57A3.76,3.76,0,0,1,205.42,313.5Z"/><path class="cls-161" d="M203.08,295.34v-6.85h.24v6.86Z"/><path class="cls-9" d="M205.42,313.5l-3,0c0-.15,0-.31,0-.47C203.44,313.16,204.56,312.56,205.42,313.5Z"/><path class="cls-166" d="M195.18,273.37a2.4,2.4,0,0,1,0,2.21A2.4,2.4,0,0,1,195.18,273.37Z"/><path class="cls-16" d="M190.46,298c-.85-.1-1.79.32-2.51-.47C188.8,297.59,189.75,297.16,190.46,298Z"/><path class="cls-9" d="M197.94,317.44c-.84-.09-1.78.32-2.49-.46C196.29,317.09,197.23,316.65,197.94,317.44Z"/><path class="cls-167" d="M223,163.58c.17-.27.31-.74.52-.77,5.09-.87,10.26-2.64,15.28-.09,3.92,2,6.8,4.83,7.87,9.54.72,3.18,1,6-.09,9.09-1,2.85-.54,6-2.2,8.81-1,1.62-2.71,2.75-3.16,4.69a24.7,24.7,0,0,1-3,6.49c-1.15,2.06-3.27,3.41-4.33,5.57a1.4,1.4,0,0,1-.42-1,6.09,6.09,0,0,1,2.09-3.58,8.92,8.92,0,0,0,2.22-3.54,63.59,63.59,0,0,1,5.54-9.9c1.54-2.37.71-5.38,1.94-7.91,3.56-7.34-3-18.49-12.66-18.16-2.18.08-4.32,1.07-6.58.9C225,163.76,224,164.4,223,163.58Z"/><path class="cls-75" d="M181.48,207l0-1.94c1.37-.9.28-2.45.92-3.55,2.18-5.2,3.76-10.74,8.75-14.22,1.39-1,1.24-3.32,3.27-3.77.27,2.15-1.51,3.28-2.42,4.83-6,5.57-9,12.42-8.34,20.59a39,39,0,0,0,1.63,8,1.89,1.89,0,0,1-.17,1.54.53.53,0,0,1-.71.1L182.94,216c-.62-1.27.2-2.72-.48-4h0C181.59,210.42,182.34,208.53,181.48,207Z"/><path class="cls-168" d="M163.5,135c2.49,3.52,3.79,7.68,6.15,11.3a3.44,3.44,0,0,1-.91,4.51c-1.23,1-4.44.4-5.49-1.5-1.44-2.61-3.63-4.93-3.87-8.13a.73.73,0,0,1,0-.69c1-.21,1,.64,1.3,1.18.93,2,2.11,3.76,3,5.72a3.26,3.26,0,0,0,.67,1c.95.85,2.07,1.79,3.3.94s.77-2.17.2-3.19c-1.55-2.75-2.94-5.58-4.34-8.4-.42-.86-1.15-1.7-.67-2.79A.45.45,0,0,1,163.5,135Z"/><path class="cls-156" d="M184.43,218.53l.58-.06c1.72.36,2.08,2,2.77,3.22a4.89,4.89,0,0,0,4.67,2.62,14.79,14.79,0,0,1,5.83.83c1.66.7,3.39-.08,5-.74,1.18-.08,2.32-.71,3.55-.36a1.23,1.23,0,0,1,.64.48,19.34,19.34,0,0,1-10.7,1.84c-2.76-.35-5.54-.59-8.31-.89C187,223.24,185.2,221.17,184.43,218.53Z"/><path class="cls-24" d="M191.86,187.93l2.58-4.45a.44.44,0,0,0,.12-.34A173.16,173.16,0,0,1,213,170l.79-.12a1.22,1.22,0,0,1,1.07-.07c-.57,2.17-2.66,2.76-4.2,3.72A144.91,144.91,0,0,0,196,184.23a15.7,15.7,0,0,0-2,2.5C193.46,187.39,193.06,188.41,191.86,187.93Z"/><path class="cls-93" d="M163.5,135l-.57,0c-1.24.16-1.37-1-1.89-1.64-1.54-2-2.68-4.28-5.11-5.54.62,2.4,1.25,4.73,2,7,.59,1.83,2.05,3.42,1.59,5.55,0,.25-.09.51-.13.76a21.82,21.82,0,0,1-3.52-8.63,20.14,20.14,0,0,0-1.17-2.7c-.42-1.24-.79-2.8.5-3.66s2.23.27,3.09,1.25A37.71,37.71,0,0,1,163.5,135Z"/><path class="cls-59" d="M213,170c-2.71,2.83-6.23,4.62-9.49,6.59-2.9,1.76-4.89,4.5-7.85,6-.36.19-.76.32-1.13.47a60.16,60.16,0,0,1,9.9-7.94C207.31,173.46,209.84,171.21,213,170Z"/><path class="cls-169" d="M233.88,205.88c0,.35,0,.69,0,1-2.61,1.7-3.29,4.94-5.55,7a29.39,29.39,0,0,1-4.93,4.11.4.4,0,0,1-.61,0,1.26,1.26,0,0,1-.14-.69,1.29,1.29,0,0,1,.34-.6,17.61,17.61,0,0,0,5.58-5.32,23.64,23.64,0,0,1,4-5.05A1.44,1.44,0,0,1,233.88,205.88Z"/><path class="cls-23" d="M214.9,170l-1.08,0a27.76,27.76,0,0,1,7-4.82,5.32,5.32,0,0,0,2.19-1.52L226,163a.58.58,0,0,1,.16.43q0,.24-.06.24C222.3,165.69,218.91,168.36,214.9,170Z"/><path class="cls-13" d="M222.87,218l.55,0c-1.39,2.3-3.81,3.26-5.94,4.61l-.58-.13c-.2-1,.7-1.26,1.25-1.76a7.31,7.31,0,0,1,.81-.56C220.44,219.71,221.21,218,222.87,218Z"/><path class="cls-170" d="M181.48,207c1.47,1.45.71,3.34,1,5C180.89,210.55,181.63,208.67,181.48,207Z"/><path class="cls-170" d="M182.46,212c.92,1.25.26,2.68.48,4C182,214.75,182.66,213.31,182.46,212Z"/><path class="cls-161" d="M182.42,201.47c-.32,1.18.84,2.75-.92,3.55C182.3,204,181.5,202.49,182.42,201.47Z"/><path class="cls-136" d="M218.46,221l-1.56,1.46-.51.4c-2.94,2-6.44.63-9.57,1.57l-3.36.57a.63.63,0,0,1,0-.75c2-1.74,4.56-2,7-2.06,2.21,0,4.28-.1,6.2-1.29A1.42,1.42,0,0,1,218.46,221Z"/><path class="cls-13" d="M206.82,224.42a6.64,6.64,0,0,1,4.74-.68c1.77.53,3.17-.89,4.83-.89-2.59,2.61-6,1-8.91,1.67Z"/><path class="cls-171" d="M225.93,163.43c0-.15,0-.3,0-.45,2.88.29,5.6-.95,8.54-.73,4.65.35,10.38,5.05,11.52,9.54a17.94,17.94,0,0,1-.56,11.07c-.84,2.31-.49,5-2,7.29-1.71,2.5-3.8,4.81-4.23,8,0,.35-.73.62-1.12.93a.81.81,0,0,1-.41-.64,18.21,18.21,0,0,1,3.41-7.37,11.07,11.07,0,0,0,2.74-7c0-1.28.63-2.4.91-3.61,1.17-5,.52-9.54-3.33-13.3a11.24,11.24,0,0,0-10.23-3.28C229.43,164.15,227.58,164.73,225.93,163.43Z"/><path class="cls-171" d="M233.88,205.88l-.92.62c-.69-1-.05-1.74.43-2.46a26.84,26.84,0,0,1,4.39-5.18l.3.24c.23,2.73-2.81,3.39-3.5,5.55A7.19,7.19,0,0,1,233.88,205.88Z"/><path d="M237.78,198.86c-.43,2.33-2.81,3.27-3.77,5.25-.37.79-1.11,1.41-1,2.39l-4,5a26.09,26.09,0,0,1-6,5.49l0,0a15,15,0,0,1-4,3.5l-.53.45c-.84-.25-1.38.26-2,.72a6,6,0,0,1-4.42,1.19c-3.07-.39-5.83.52-8.58,1.62-2.16,1-4.31,1.46-6.64.36-1-.46-2.13-.18-3.19-.14-2.93.12-5.18-.71-6.53-3.62-.64-1.39-1.49-2.72-2.21-4.1-1.87-1.83-1.28-4.44-1.7-6.59-1.56-8.07,1.77-14.89,6.68-21.06a3.61,3.61,0,0,1,2-1.44c.16,0,.39,0,.46-.12,5.22-7,12.73-11.18,19.8-15.88.95-.63,1.86-1.31,2.78-2a51.13,51.13,0,0,1,11-6.53c2.25.22,4.44-.31,6.66-.4,9.59-.4,15.66,9.13,12.54,18.35-.85,2.5-.17,5.27-1.88,7.6A38.77,38.77,0,0,0,237.78,198.86Z"/><path class="cls-172" d="M184.9,217a15.66,15.66,0,0,1,2.88,4.48,4.62,4.62,0,0,0,4.43,2.87c3.76-.05,7.5,1.34,11.26.15a3.65,3.65,0,0,0,0,.47,8.1,8.1,0,0,1-6.89.32c-1.22-.49-2.77-.16-4.17-.21a5.73,5.73,0,0,1-5.61-4,14.36,14.36,0,0,0-1.78-2.66Z"/><path class="cls-173" d="M159.51,140.41c-1.84-3.49-2.34-7.5-4.24-11a1.85,1.85,0,0,1,.33-2.5c.9-.57,1.61.27,2.08.89,1.8,2.36,3.51,4.79,5.25,7.2,1.76,3.47,3.48,7,5.31,10.4.88,1.65,1.33,3.33-.15,4.69-1.15,1.06-4.09-.42-4.93-2.2C162,145.39,160.73,142.91,159.51,140.41Z"/><path class="cls-77" d="M223,217l6-5.49A11,11,0,0,1,223,217Z"/><path class="cls-101" d="M219,220.54a22.7,22.7,0,0,1,4-3.5c0,.3-.09.6-.14.91C221.57,218.8,220.72,220.33,219,220.54Z"/></g></g></svg>